<!-- <svg xmlns="http://www.w3.org/2000/svg" width="1em" height="1em" viewBox="0 0 256 256"><path fill="currentColor" d="M128 88a40 40 0 1 0 40 40a40 40 0 0 0-40-40m0 64a24 24 0 1 1 24-24a24 24 0 0 1-24 24m112-96H16a8 8 0 0 0-8 8v128a8 8 0 0 0 8 8h224a8 8 0 0 0 8-8V64a8 8 0 0 0-8-8m-46.35 128H62.35A56.78 56.78 0 0 0 24 145.65v-35.3A56.78 56.78 0 0 0 62.35 72h131.3A56.78 56.78 0 0 0 232 110.35v35.3A56.78 56.78 0 0 0 193.65 184M232 93.37A40.81 40.81 0 0 1 210.63 72H232ZM45.37 72A40.81 40.81 0 0 1 24 93.37V72ZM24 162.63A40.81 40.81 0 0 1 45.37 184H24ZM210.63 184A40.81 40.81 0 0 1 232 162.63V184Z"/></svg> -->

<svg xmlns="http://www.w3.org/2000/svg" width="16" height="16" fill="currentColor" class="bi bi-coin" viewBox="0 0 16 16">
  <path d="M5.5 9.511c.076.954.83 1.697 2.182 1.785V12h.6v-.709c1.4-.098 2.218-.846 2.218-1.932 0-.987-.626-1.496-1.745-1.76l-.473-.112V5.57c.6.068.982.396 1.074.85h1.052c-.076-.919-.864-1.638-2.126-1.716V4h-.6v.719c-1.195.117-2.01.836-2.01 1.853 0 .9.606 1.472 1.613 1.707l.397.098v2.034c-.615-.093-1.022-.43-1.114-.9zm2.177-2.166c-.59-.137-.91-.416-.91-.836 0-.47.345-.822.915-.925v1.76h-.005zm.692 1.193c.717.166 1.048.435 1.048.91 0 .542-.412.914-1.135.982V8.518z"/>
  <path d="M8 15A7 7 0 1 1 8 1a7 7 0 0 1 0 14m0 1A8 8 0 1 0 8 0a8 8 0 0 0 0 16"/>
  <path d="M8 13.5a5.5 5.5 0 1 1 0-11 5.5 5.5 0 0 1 0 11m0 .5A6 6 0 1 0 8 2a6 6 0 0 0 0 12"/>
</svg>