<!-- <svg xmlns="http://www.w3.org/2000/svg" width="1em" height="1em" viewBox="0 0 24 24"><path fill="currentColor" d="M8.143 15.857H5.57V9.43h2.572v6.428zm5.143 0h-2.572V3h2.572zm5.142 0h-2.571v-9h2.571z"/><path fill="currentColor" fill-rule="evenodd" d="M21 20.714H3v-2h18z" clip-rule="evenodd"/></svg> -->

<svg xmlns="http://www.w3.org/2000/svg" width="16" height="16" fill="currentColor" class="bi bi-bar-chart" viewBox="0 0 16 16">
  <path d="M4 11H2v3h2zm5-4H7v7h2zm5-5v12h-2V2zm-2-1a1 1 0 0 0-1 1v12a1 1 0 0 0 1 1h2a1 1 0 0 0 1-1V2a1 1 0 0 0-1-1zM6 7a1 1 0 0 1 1-1h2a1 1 0 0 1 1 1v7a1 1 0 0 1-1 1H7a1 1 0 0 1-1-1zm-5 4a1 1 0 0 1 1-1h2a1 1 0 0 1 1 1v3a1 1 0 0 1-1 1H2a1 1 0 0 1-1-1z"/>
</svg>