<svg xmlns="http://www.w3.org/2000/svg" xmlns:xlink="http://www.w3.org/1999/xlink" width="500" zoomAndPan="magnify" viewBox="0 0 375 374.999991" height="500" preserveAspectRatio="xMidYMid meet" version="1.0"><defs><clipPath id="26ab1cea87"><path d="M 37.5 0 L 337.5 0 C 347.445312 0 356.984375 3.949219 364.015625 10.984375 C 371.050781 18.015625 375 27.554688 375 37.5 L 375 337.5 C 375 347.445312 371.050781 356.984375 364.015625 364.015625 C 356.984375 371.050781 347.445312 375 337.5 375 L 37.5 375 C 27.554688 375 18.015625 371.050781 10.984375 364.015625 C 3.949219 356.984375 0 347.445312 0 337.5 L 0 37.5 C 0 27.554688 3.949219 18.015625 10.984375 10.984375 C 18.015625 3.949219 27.554688 0 37.5 0 Z M 37.5 0 " clip-rule="nonzero"/></clipPath><clipPath id="a1c60bc1c7"><path d="M 25 25 L 353 25 L 353 351 L 25 351 Z M 25 25 " clip-rule="nonzero"/></clipPath><clipPath id="85f5021eef"><path d="M -59.910156 261.050781 L 260.941406 -59.800781 L 434.890625 114.148438 L 114.039062 434.996094 Z M -59.910156 261.050781 " clip-rule="nonzero"/></clipPath><clipPath id="7f0e16dd05"><path d="M -60.257812 261.398438 L 261.652344 -60.511719 L 435.597656 113.4375 L 113.6875 435.347656 Z M -60.257812 261.398438 " clip-rule="nonzero"/></clipPath><clipPath id="4fa4f4072e"><path d="M 112 111 L 264 111 L 264 263 L 112 263 Z M 112 111 " clip-rule="nonzero"/></clipPath><clipPath id="bd9d8c271d"><path d="M -59.910156 261.050781 L 260.941406 -59.800781 L 434.890625 114.148438 L 114.039062 434.996094 Z M -59.910156 261.050781 " clip-rule="nonzero"/></clipPath><clipPath id="461644a5e4"><path d="M -60.257812 261.398438 L 261.652344 -60.511719 L 435.597656 113.4375 L 113.6875 435.347656 Z M -60.257812 261.398438 " clip-rule="nonzero"/></clipPath><clipPath id="07f0e79589"><path d="M 46 45 L 333 45 L 333 330 L 46 330 Z M 46 45 " clip-rule="nonzero"/></clipPath><clipPath id="467398b645"><path d="M -28.972656 251.503906 L 252.632812 -30.101562 L 404.839844 122.105469 L 123.234375 403.710938 Z M -28.972656 251.503906 " clip-rule="nonzero"/></clipPath><clipPath id="0d75bf80f6"><path d="M -29.277344 251.8125 L 252.855469 -30.324219 L 405.0625 121.882812 L 122.925781 404.015625 Z M -29.277344 251.8125 " clip-rule="nonzero"/></clipPath><clipPath id="61e7678738"><path d="M 121 120 L 255 120 L 255 254 L 121 254 Z M 121 120 " clip-rule="nonzero"/></clipPath><clipPath id="ffb71b7980"><path d="M -28.972656 251.503906 L 252.632812 -30.101562 L 404.839844 122.105469 L 123.234375 403.710938 Z M -28.972656 251.503906 " clip-rule="nonzero"/></clipPath><clipPath id="86d67b56f5"><path d="M -29.277344 251.8125 L 252.855469 -30.324219 L 405.0625 121.882812 L 122.925781 404.015625 Z M -29.277344 251.8125 " clip-rule="nonzero"/></clipPath><clipPath id="adbb82fff3"><path d="M 108 108 L 267 108 L 267 267 L 108 267 Z M 108 108 " clip-rule="nonzero"/></clipPath><clipPath id="31322c9aed"><path d="M 75.292969 187.5 L 187.722656 75.070312 L 300.152344 187.5 L 187.722656 299.929688 Z M 75.292969 187.5 " clip-rule="nonzero"/></clipPath><clipPath id="ba76d9a1c1"><path d="M 75.292969 187.5 L 187.722656 75.070312 L 300.152344 187.5 L 187.722656 299.929688 Z M 75.292969 187.5 " clip-rule="nonzero"/></clipPath><clipPath id="c7c5ced4ce"><path d="M 86 85 L 290 85 L 290 290 L 86 290 Z M 86 85 " clip-rule="nonzero"/></clipPath><clipPath id="fffc78a75b"><path d="M 43.835938 187.292969 L 188.085938 43.042969 L 332.335938 187.292969 L 188.085938 331.542969 Z M 43.835938 187.292969 " clip-rule="nonzero"/></clipPath><clipPath id="8625200560"><path d="M 43.835938 187.292969 L 188.085938 43.042969 L 332.335938 187.292969 L 188.085938 331.542969 Z M 43.835938 187.292969 " clip-rule="nonzero"/></clipPath><clipPath id="1721db0b80"><path d="M 124 124 L 251 124 L 251 251 L 124 251 Z M 124 124 " clip-rule="nonzero"/></clipPath><clipPath id="fe0b42ab6c"><path d="M 97.84375 187.496094 L 187.46875 97.867188 L 277.09375 187.496094 L 187.46875 277.121094 Z M 97.84375 187.496094 " clip-rule="nonzero"/></clipPath><clipPath id="cb4b28c07f"><path d="M 97.84375 187.496094 L 187.46875 97.867188 L 277.09375 187.496094 L 187.46875 277.121094 Z M 97.84375 187.496094 " clip-rule="nonzero"/></clipPath><clipPath id="de7a49eb23"><path d="M 97.84375 187.496094 L 187.46875 97.867188 L 277.09375 187.496094 L 187.46875 277.121094 Z M 97.84375 187.496094 " clip-rule="nonzero"/></clipPath><clipPath id="b8582768b9"><path d="M 95 95 L 280 95 L 280 280 L 95 280 Z M 95 95 " clip-rule="nonzero"/></clipPath><clipPath id="cfcbb57e18"><path d="M 56.746094 187.5 L 187.738281 56.507812 L 318.730469 187.5 L 187.738281 318.488281 Z M 56.746094 187.5 " clip-rule="nonzero"/></clipPath><clipPath id="467c09a457"><path d="M 56.746094 187.5 L 187.738281 56.507812 L 318.730469 187.5 L 187.738281 318.488281 Z M 56.746094 187.5 " clip-rule="nonzero"/></clipPath></defs><g clip-path="url(#26ab1cea87)"><rect x="-37.5" width="450" fill="#000000" y="-37.499999" height="449.999989" fill-opacity="1"/></g><g clip-path="url(#a1c60bc1c7)"><g clip-path="url(#85f5021eef)"><g clip-path="url(#7f0e16dd05)"><path fill="#0a6bff" d="M 276.257812 272.351562 C 222.320312 326.292969 142.339844 352.457031 38.542969 350.113281 L 28.21875 349.878906 L 27.058594 339.621094 C 26.371094 333.558594 11.285156 190.082031 103.070312 98.296875 C 157.148438 44.21875 236.636719 20.140625 339.328125 26.726562 L 349.011719 27.347656 L 350.289062 36.972656 C 351.066406 42.789062 368.140625 180.472656 276.257812 272.351562 Z M 49.84375 326.605469 C 141.667969 326.847656 212.175781 302.992188 259.539062 255.632812 C 329.957031 185.214844 329.65625 81.671875 327.683594 49.78125 C 237.011719 45.78125 167.101562 67.707031 119.792969 115.019531 C 49.441406 185.371094 48.304688 293.03125 49.84375 326.605469 Z M 49.84375 326.605469 " fill-opacity="1" fill-rule="nonzero"/></g></g></g><g clip-path="url(#4fa4f4072e)"><g clip-path="url(#bd9d8c271d)"><g clip-path="url(#461644a5e4)"><path fill="#0a6bff" d="M 134.25 133.96875 C 104.765625 163.453125 104.765625 211.253906 134.25 240.738281 C 163.734375 270.222656 211.535156 270.222656 241.019531 240.738281 C 270.503906 211.253906 270.5 163.453125 241.015625 133.972656 C 211.535156 104.488281 163.734375 104.484375 134.25 133.96875 Z M 210.039062 209.761719 C 197.667969 222.132812 177.605469 222.136719 165.230469 209.761719 C 152.855469 197.386719 152.855469 177.324219 165.230469 164.949219 C 177.605469 152.578125 197.664062 152.578125 210.039062 164.953125 C 222.414062 177.328125 222.414062 197.386719 210.039062 209.761719 Z M 210.039062 209.761719 " fill-opacity="1" fill-rule="nonzero"/></g></g></g><g clip-path="url(#07f0e79589)"><g clip-path="url(#467398b645)"><g clip-path="url(#0d75bf80f6)"><path fill="#0a6bff" d="M 265.832031 261.421875 C 218.527344 308.722656 148.390625 331.667969 57.367188 329.613281 L 48.316406 329.40625 L 47.296875 320.414062 C 46.691406 315.09375 33.464844 189.273438 113.953125 108.785156 C 161.378906 61.359375 231.082031 40.246094 321.136719 46.023438 L 329.632812 46.566406 L 330.75 55.007812 C 331.429688 60.109375 346.40625 180.847656 265.832031 261.421875 Z M 67.277344 309 C 147.800781 309.210938 209.632812 288.292969 251.167969 246.757812 C 312.921875 185.007812 312.65625 94.207031 310.925781 66.238281 C 231.414062 62.730469 170.105469 81.960938 128.617188 123.449219 C 66.921875 185.144531 65.925781 279.554688 67.277344 309 Z M 67.277344 309 " fill-opacity="1" fill-rule="nonzero"/></g></g></g><g clip-path="url(#61e7678738)"><g clip-path="url(#ffb71b7980)"><g clip-path="url(#86d67b56f5)"><path fill="#0a6bff" d="M 141.296875 140.066406 C 115.441406 165.921875 115.441406 207.84375 141.296875 233.695312 C 167.152344 259.550781 209.070312 259.554688 234.925781 233.699219 C 260.78125 207.84375 260.78125 165.925781 234.925781 140.070312 C 209.070312 114.214844 167.152344 114.210938 141.296875 140.066406 Z M 207.761719 206.53125 C 196.910156 217.382812 179.316406 217.382812 168.464844 206.53125 C 157.613281 195.679688 157.613281 178.085938 168.464844 167.234375 C 179.316406 156.382812 196.90625 156.386719 207.757812 167.238281 C 218.609375 178.089844 218.613281 195.679688 207.761719 206.53125 Z M 207.761719 206.53125 " fill-opacity="1" fill-rule="nonzero"/></g></g></g><g clip-path="url(#adbb82fff3)"><g clip-path="url(#31322c9aed)"><g clip-path="url(#ba76d9a1c1)"><path fill="#0a6bff" d="M 243.601562 131.398438 C 244.519531 132.316406 245.417969 133.253906 246.289062 134.21875 C 247.160156 135.179688 248.007812 136.164062 248.832031 137.164062 C 249.65625 138.167969 250.453125 139.191406 251.226562 140.234375 C 252 141.277344 252.75 142.339844 253.46875 143.421875 C 254.191406 144.5 254.886719 145.597656 255.554688 146.710938 C 256.222656 147.824219 256.859375 148.953125 257.472656 150.097656 C 258.085938 151.242188 258.667969 152.402344 259.222656 153.578125 C 259.777344 154.75 260.304688 155.9375 260.800781 157.136719 C 261.300781 158.335938 261.765625 159.546875 262.203125 160.769531 C 262.640625 161.992188 263.046875 163.226562 263.425781 164.46875 C 263.800781 165.710938 264.148438 166.960938 264.464844 168.222656 C 264.78125 169.480469 265.0625 170.746094 265.316406 172.019531 C 265.570312 173.292969 265.792969 174.574219 265.984375 175.859375 C 266.171875 177.140625 266.332031 178.429688 266.460938 179.722656 C 266.585938 181.015625 266.683594 182.308594 266.746094 183.605469 C 266.808594 184.902344 266.839844 186.203125 266.839844 187.5 C 266.839844 188.796875 266.808594 190.097656 266.746094 191.394531 C 266.683594 192.691406 266.585938 193.984375 266.460938 195.277344 C 266.332031 196.570312 266.171875 197.855469 265.984375 199.140625 C 265.792969 200.425781 265.570312 201.707031 265.316406 202.980469 C 265.0625 204.253906 264.78125 205.519531 264.464844 206.777344 C 264.148438 208.039062 263.800781 209.289062 263.425781 210.53125 C 263.046875 211.773438 262.640625 213.007812 262.203125 214.230469 C 261.765625 215.453125 261.300781 216.664062 260.800781 217.863281 C 260.304688 219.0625 259.777344 220.25 259.222656 221.421875 C 258.667969 222.597656 258.085938 223.757812 257.472656 224.902344 C 256.859375 226.046875 256.222656 227.175781 255.554688 228.289062 C 254.886719 229.402344 254.191406 230.5 253.46875 231.578125 C 252.75 232.660156 252 233.722656 251.226562 234.765625 C 250.453125 235.808594 249.65625 236.828125 248.832031 237.832031 C 248.007812 238.835938 247.160156 239.820312 246.289062 240.78125 C 245.417969 241.746094 244.519531 242.683594 243.601562 243.601562 C 242.683594 244.519531 241.746094 245.417969 240.78125 246.289062 C 239.820312 247.160156 238.835938 248.007812 237.832031 248.832031 C 236.828125 249.65625 235.808594 250.453125 234.765625 251.226562 C 233.722656 252 232.660156 252.75 231.578125 253.46875 C 230.5 254.191406 229.402344 254.886719 228.289062 255.554688 C 227.175781 256.222656 226.046875 256.859375 224.902344 257.472656 C 223.757812 258.085938 222.597656 258.667969 221.421875 259.222656 C 220.25 259.777344 219.0625 260.304688 217.863281 260.800781 C 216.664062 261.300781 215.453125 261.765625 214.230469 262.203125 C 213.007812 262.640625 211.773438 263.046875 210.53125 263.425781 C 209.289062 263.800781 208.039062 264.148438 206.777344 264.464844 C 205.519531 264.78125 204.253906 265.0625 202.980469 265.316406 C 201.707031 265.570312 200.425781 265.792969 199.140625 265.984375 C 197.855469 266.171875 196.570312 266.332031 195.277344 266.460938 C 193.984375 266.585938 192.691406 266.683594 191.394531 266.746094 C 190.097656 266.808594 188.796875 266.839844 187.5 266.839844 C 186.203125 266.839844 184.902344 266.808594 183.605469 266.746094 C 182.308594 266.683594 181.015625 266.585938 179.722656 266.460938 C 178.429688 266.332031 177.140625 266.171875 175.859375 265.984375 C 174.574219 265.792969 173.292969 265.570312 172.019531 265.316406 C 170.746094 265.0625 169.480469 264.78125 168.222656 264.464844 C 166.960938 264.148438 165.710938 263.800781 164.46875 263.425781 C 163.226562 263.046875 161.992188 262.640625 160.769531 262.203125 C 159.546875 261.765625 158.335938 261.300781 157.136719 260.800781 C 155.9375 260.304688 154.75 259.777344 153.578125 259.222656 C 152.402344 258.667969 151.242188 258.085938 150.097656 257.472656 C 148.953125 256.859375 147.824219 256.222656 146.710938 255.554688 C 145.597656 254.886719 144.5 254.191406 143.421875 253.46875 C 142.339844 252.75 141.277344 252 140.234375 251.226562 C 139.191406 250.453125 138.167969 249.65625 137.164062 248.832031 C 136.164062 248.007812 135.179688 247.160156 134.21875 246.289062 C 133.253906 245.417969 132.316406 244.519531 131.398438 243.601562 C 130.480469 242.683594 129.582031 241.746094 128.710938 240.78125 C 127.839844 239.820312 126.992188 238.835938 126.167969 237.832031 C 125.34375 236.828125 124.546875 235.808594 123.773438 234.765625 C 123 233.722656 122.25 232.660156 121.53125 231.578125 C 120.808594 230.5 120.113281 229.402344 119.445312 228.289062 C 118.777344 227.175781 118.140625 226.046875 117.527344 224.902344 C 116.914062 223.757812 116.332031 222.597656 115.777344 221.421875 C 115.21875 220.25 114.695312 219.0625 114.199219 217.863281 C 113.699219 216.664062 113.234375 215.453125 112.796875 214.230469 C 112.359375 213.007812 111.953125 211.773438 111.574219 210.53125 C 111.199219 209.289062 110.851562 208.039062 110.535156 206.777344 C 110.21875 205.519531 109.9375 204.253906 109.683594 202.980469 C 109.429688 201.707031 109.207031 200.425781 109.015625 199.140625 C 108.828125 197.855469 108.667969 196.570312 108.539062 195.277344 C 108.414062 193.984375 108.316406 192.691406 108.253906 191.394531 C 108.191406 190.097656 108.15625 188.796875 108.15625 187.5 C 108.15625 186.203125 108.191406 184.902344 108.253906 183.605469 C 108.316406 182.308594 108.414062 181.015625 108.539062 179.722656 C 108.667969 178.429688 108.828125 177.140625 109.015625 175.859375 C 109.207031 174.574219 109.429688 173.292969 109.683594 172.019531 C 109.9375 170.746094 110.21875 169.480469 110.535156 168.222656 C 110.851562 166.960938 111.199219 165.710938 111.574219 164.46875 C 111.953125 163.226562 112.359375 161.992188 112.796875 160.769531 C 113.234375 159.546875 113.699219 158.335938 114.199219 157.136719 C 114.695312 155.9375 115.21875 154.75 115.777344 153.578125 C 116.332031 152.402344 116.914062 151.242188 117.527344 150.097656 C 118.140625 148.953125 118.777344 147.824219 119.445312 146.710938 C 120.113281 145.597656 120.808594 144.5 121.53125 143.421875 C 122.25 142.339844 123 141.277344 123.773438 140.234375 C 124.546875 139.191406 125.34375 138.167969 126.167969 137.164062 C 126.992188 136.164062 127.839844 135.179688 128.710938 134.21875 C 129.582031 133.253906 130.480469 132.316406 131.398438 131.398438 C 132.316406 130.480469 133.253906 129.582031 134.21875 128.710938 C 135.179688 127.839844 136.164062 126.992188 137.164062 126.167969 C 138.167969 125.34375 139.191406 124.546875 140.234375 123.773438 C 141.277344 123 142.339844 122.25 143.421875 121.53125 C 144.5 120.808594 145.597656 120.113281 146.710938 119.445312 C 147.824219 118.777344 148.953125 118.140625 150.097656 117.527344 C 151.242188 116.914062 152.402344 116.332031 153.578125 115.777344 C 154.75 115.21875 155.9375 114.695312 157.136719 114.199219 C 158.335938 113.699219 159.546875 113.234375 160.769531 112.796875 C 161.992188 112.359375 163.226562 111.953125 164.46875 111.574219 C 165.710938 111.199219 166.960938 110.851562 168.222656 110.535156 C 169.480469 110.21875 170.746094 109.9375 172.019531 109.683594 C 173.292969 109.429688 174.574219 109.207031 175.859375 109.015625 C 177.140625 108.828125 178.429688 108.667969 179.722656 108.539062 C 181.015625 108.414062 182.308594 108.316406 183.605469 108.253906 C 184.902344 108.191406 186.203125 108.15625 187.5 108.15625 C 188.796875 108.15625 190.097656 108.191406 191.394531 108.253906 C 192.691406 108.316406 193.984375 108.414062 195.277344 108.539062 C 196.570312 108.667969 197.855469 108.828125 199.140625 109.015625 C 200.425781 109.207031 201.707031 109.429688 202.980469 109.683594 C 204.253906 109.9375 205.519531 110.21875 206.777344 110.535156 C 208.039062 110.851562 209.289062 111.199219 210.53125 111.574219 C 211.773438 111.953125 213.007812 112.359375 214.230469 112.796875 C 215.453125 113.234375 216.664062 113.699219 217.863281 114.199219 C 219.0625 114.695312 220.25 115.21875 221.421875 115.777344 C 222.597656 116.332031 223.757812 116.914062 224.902344 117.527344 C 226.046875 118.140625 227.175781 118.777344 228.289062 119.445312 C 229.402344 120.113281 230.5 120.808594 231.578125 121.53125 C 232.660156 122.25 233.722656 123 234.765625 123.773438 C 235.808594 124.546875 236.828125 125.34375 237.832031 126.167969 C 238.835938 126.992188 239.820312 127.839844 240.78125 128.710938 C 241.746094 129.582031 242.683594 130.480469 243.601562 131.398438 Z M 243.601562 131.398438 " fill-opacity="1" fill-rule="nonzero"/></g></g></g><g clip-path="url(#c7c5ced4ce)"><g clip-path="url(#fffc78a75b)"><g clip-path="url(#8625200560)"><path fill="#0a6bff" d="M 115.914062 115.210938 C 76.089844 155.035156 76.089844 219.546875 115.914062 259.371094 C 155.738281 299.195312 220.25 299.195312 260.074219 259.371094 C 299.898438 219.546875 299.898438 155.035156 260.074219 115.210938 C 220.25 75.386719 155.738281 75.386719 115.914062 115.210938 Z M 245.65625 244.953125 C 213.796875 276.8125 162.1875 276.8125 130.332031 244.953125 C 98.472656 213.097656 98.472656 161.488281 130.332031 129.628906 C 162.1875 97.769531 213.796875 97.769531 245.65625 129.628906 C 277.515625 161.488281 277.515625 213.097656 245.65625 244.953125 Z M 245.65625 244.953125 " fill-opacity="1" fill-rule="nonzero"/></g></g></g><g clip-path="url(#1721db0b80)"><g clip-path="url(#fe0b42ab6c)"><g clip-path="url(#cb4b28c07f)"><g clip-path="url(#de7a49eb23)"><path fill="#000000" d="M 142.65625 142.683594 C 117.90625 167.433594 117.90625 207.558594 142.65625 232.308594 C 167.40625 257.058594 207.53125 257.058594 232.28125 232.308594 C 257.03125 207.558594 257.03125 167.433594 232.28125 142.683594 C 207.53125 117.933594 167.40625 117.933594 142.65625 142.683594 Z M 216.984375 193.832031 L 187.46875 193.832031 C 185.785156 193.832031 184.175781 193.164062 182.988281 191.976562 L 160.582031 169.570312 C 158.109375 167.097656 158.109375 163.082031 160.582031 160.605469 C 163.054688 158.132812 167.070312 158.132812 169.542969 160.605469 L 190.097656 181.160156 L 216.984375 181.160156 C 220.480469 181.160156 223.320312 184 223.320312 187.496094 C 223.320312 190.988281 220.480469 193.832031 216.984375 193.832031 Z M 216.984375 193.832031 " fill-opacity="1" fill-rule="nonzero"/></g></g></g></g><g clip-path="url(#b8582768b9)"><g clip-path="url(#cfcbb57e18)"><g clip-path="url(#467c09a457)"><path fill="#0a6bff" d="M 122.121094 122.121094 C 86.003906 158.242188 86.003906 216.753906 122.121094 252.875 C 158.242188 288.992188 216.753906 288.992188 252.875 252.875 C 288.992188 216.753906 288.992188 158.242188 252.875 122.121094 C 216.753906 86.003906 158.242188 86.003906 122.121094 122.121094 Z M 239.796875 239.796875 C 210.902344 268.695312 164.09375 268.695312 135.199219 239.796875 C 106.300781 210.902344 106.300781 164.09375 135.199219 135.199219 C 164.09375 106.300781 210.902344 106.300781 239.796875 135.199219 C 268.695312 164.09375 268.695312 210.902344 239.796875 239.796875 Z M 239.796875 239.796875 " fill-opacity="1" fill-rule="nonzero"/></g></g></g></svg>