<svg xmlns="http://www.w3.org/2000/svg" xmlns:xlink="http://www.w3.org/1999/xlink" width="500" zoomAndPan="magnify" viewBox="0 0 375 374.999991" height="500" preserveAspectRatio="xMidYMid meet" version="1.0"><defs><clipPath id="23ff76a57d"><path d="M 0 59.660156 L 375 59.660156 L 375 315.410156 L 0 315.410156 Z M 0 59.660156 " clip-rule="nonzero"/></clipPath><clipPath id="0e8fcc999b"><path d="M 28.277344 78.9375 L 347 78.9375 L 347 295.6875 L 28.277344 295.6875 Z M 28.277344 78.9375 " clip-rule="nonzero"/></clipPath><clipPath id="101b297f17"><path d="M 67.273438 67.273438 L 308 67.273438 L 308 308 L 67.273438 308 Z M 67.273438 67.273438 " clip-rule="nonzero"/></clipPath><clipPath id="2a500cf871"><path d="M 63.726562 63.726562 L 311.226562 63.726562 L 311.226562 311.226562 L 63.726562 311.226562 Z M 63.726562 63.726562 " clip-rule="nonzero"/></clipPath><clipPath id="6faa266940"><path d="M 59.660156 59.660156 L 315.410156 59.660156 L 315.410156 315.410156 L 59.660156 315.410156 Z M 59.660156 59.660156 " clip-rule="nonzero"/></clipPath></defs><g clip-path="url(#23ff76a57d)"><path fill="#050a30" d="M 187.5 59.660156 C 102.273438 59.660156 29.488281 112.671875 0 187.5 C 29.488281 262.328125 102.273438 315.339844 187.5 315.339844 C 272.726562 315.339844 345.511719 262.328125 375 187.5 C 345.511719 112.671875 272.8125 59.660156 187.5 59.660156 Z M 187.5 272.726562 C 140.453125 272.726562 102.273438 234.542969 102.273438 187.5 C 102.273438 140.453125 140.453125 102.273438 187.5 102.273438 C 234.546875 102.273438 272.726562 140.453125 272.726562 187.5 C 272.726562 234.542969 234.546875 272.726562 187.5 272.726562 Z M 187.5 136.363281 C 159.289062 136.363281 136.363281 159.289062 136.363281 187.5 C 136.363281 215.707031 159.289062 238.636719 187.5 238.636719 C 215.710938 238.636719 238.636719 215.707031 238.636719 187.5 C 238.636719 159.289062 215.710938 136.363281 187.5 136.363281 Z M 187.5 136.363281 " fill-opacity="1" fill-rule="nonzero"/></g><g clip-path="url(#0e8fcc999b)"><path fill="#233dff" d="M 187.5 78.9375 C 115.128906 78.9375 53.324219 123.953125 28.28125 187.496094 C 53.324219 251.035156 115.128906 296.050781 187.5 296.050781 C 259.871094 296.050781 321.675781 251.035156 346.714844 187.496094 C 321.675781 123.953125 259.941406 78.9375 187.5 78.9375 Z M 187.5 259.867188 C 147.550781 259.867188 115.128906 227.445312 115.128906 187.496094 C 115.128906 147.546875 147.550781 115.125 187.5 115.125 C 227.449219 115.125 259.871094 147.546875 259.871094 187.496094 C 259.871094 227.445312 227.449219 259.867188 187.5 259.867188 Z M 187.5 144.074219 C 163.542969 144.074219 144.078125 163.539062 144.078125 187.496094 C 144.078125 211.449219 163.542969 230.917969 187.5 230.917969 C 211.453125 230.917969 230.921875 211.449219 230.921875 187.496094 C 230.921875 163.539062 211.453125 144.074219 187.5 144.074219 Z M 187.5 144.074219 " fill-opacity="1" fill-rule="nonzero"/></g><g clip-path="url(#101b297f17)"><path fill="#050a30" d="M 307.71875 187.496094 C 307.71875 189.464844 307.671875 191.429688 307.574219 193.394531 C 307.476562 195.359375 307.332031 197.324219 307.140625 199.28125 C 306.949219 201.238281 306.707031 203.191406 306.417969 205.136719 C 306.128906 207.082031 305.792969 209.019531 305.410156 210.949219 C 305.027344 212.882812 304.59375 214.800781 304.117188 216.707031 C 303.636719 218.617188 303.113281 220.511719 302.542969 222.394531 C 301.972656 224.277344 301.355469 226.144531 300.691406 228 C 300.027344 229.851562 299.320312 231.6875 298.566406 233.503906 C 297.816406 235.320312 297.019531 237.121094 296.175781 238.898438 C 295.335938 240.675781 294.453125 242.433594 293.523438 244.167969 C 292.597656 245.90625 291.625 247.617188 290.617188 249.304688 C 289.605469 250.992188 288.550781 252.652344 287.457031 254.289062 C 286.367188 255.925781 285.234375 257.53125 284.0625 259.113281 C 282.886719 260.695312 281.679688 262.246094 280.429688 263.765625 C 279.183594 265.285156 277.898438 266.777344 276.574219 268.234375 C 275.253906 269.691406 273.898438 271.117188 272.507812 272.507812 C 271.117188 273.898438 269.691406 275.253906 268.234375 276.574219 C 266.777344 277.898438 265.285156 279.183594 263.765625 280.429688 C 262.246094 281.679688 260.695312 282.886719 259.113281 284.0625 C 257.53125 285.234375 255.925781 286.367188 254.289062 287.457031 C 252.652344 288.550781 250.992188 289.605469 249.304688 290.617188 C 247.617188 291.625 245.90625 292.597656 244.167969 293.523438 C 242.433594 294.453125 240.675781 295.335938 238.898438 296.175781 C 237.121094 297.019531 235.320312 297.816406 233.503906 298.566406 C 231.6875 299.320312 229.851562 300.027344 228 300.691406 C 226.144531 301.355469 224.277344 301.972656 222.394531 302.542969 C 220.511719 303.113281 218.617188 303.636719 216.707031 304.117188 C 214.800781 304.59375 212.882812 305.027344 210.949219 305.410156 C 209.019531 305.792969 207.082031 306.128906 205.136719 306.417969 C 203.191406 306.707031 201.238281 306.949219 199.28125 307.140625 C 197.324219 307.332031 195.359375 307.476562 193.394531 307.574219 C 191.429688 307.671875 189.464844 307.71875 187.496094 307.71875 C 185.53125 307.71875 183.5625 307.671875 181.597656 307.574219 C 179.632812 307.476562 177.671875 307.332031 175.714844 307.140625 C 173.753906 306.949219 171.804688 306.707031 169.855469 306.417969 C 167.910156 306.128906 165.972656 305.792969 164.042969 305.410156 C 162.113281 305.027344 160.195312 304.59375 158.285156 304.117188 C 156.375 303.636719 154.480469 303.113281 152.597656 302.542969 C 150.714844 301.972656 148.847656 301.355469 146.996094 300.691406 C 145.140625 300.027344 143.308594 299.320312 141.488281 298.566406 C 139.671875 297.816406 137.875 297.019531 136.09375 296.175781 C 134.316406 295.335938 132.558594 294.453125 130.824219 293.523438 C 129.089844 292.597656 127.378906 291.625 125.691406 290.617188 C 124.003906 289.605469 122.339844 288.550781 120.703125 287.457031 C 119.070312 286.367188 117.460938 285.234375 115.878906 284.0625 C 114.300781 282.886719 112.75 281.679688 111.226562 280.429688 C 109.707031 279.183594 108.21875 277.898438 106.761719 276.574219 C 105.300781 275.253906 103.878906 273.898438 102.488281 272.507812 C 101.09375 271.117188 99.738281 269.691406 98.417969 268.234375 C 97.097656 266.777344 95.8125 265.285156 94.5625 263.765625 C 93.316406 262.246094 92.105469 260.695312 90.933594 259.113281 C 89.761719 257.53125 88.628906 255.925781 87.535156 254.289062 C 86.441406 252.652344 85.390625 250.992188 84.378906 249.304688 C 83.367188 247.617188 82.398438 245.90625 81.46875 244.167969 C 80.542969 242.433594 79.65625 240.675781 78.816406 238.898438 C 77.976562 237.121094 77.179688 235.320312 76.425781 233.503906 C 75.671875 231.6875 74.964844 229.851562 74.300781 228 C 73.640625 226.144531 73.023438 224.277344 72.449219 222.394531 C 71.878906 220.511719 71.355469 218.617188 70.878906 216.707031 C 70.398438 214.800781 69.96875 212.882812 69.585938 210.949219 C 69.199219 209.019531 68.863281 207.082031 68.574219 205.136719 C 68.285156 203.191406 68.046875 201.238281 67.851562 199.28125 C 67.660156 197.324219 67.515625 195.359375 67.417969 193.394531 C 67.324219 191.429688 67.273438 189.464844 67.273438 187.496094 C 67.273438 185.53125 67.324219 183.5625 67.417969 181.597656 C 67.515625 179.632812 67.660156 177.671875 67.851562 175.714844 C 68.046875 173.753906 68.285156 171.804688 68.574219 169.855469 C 68.863281 167.910156 69.199219 165.972656 69.585938 164.042969 C 69.96875 162.113281 70.398438 160.195312 70.878906 158.285156 C 71.355469 156.375 71.878906 154.480469 72.449219 152.597656 C 73.023438 150.714844 73.640625 148.847656 74.300781 146.996094 C 74.964844 145.140625 75.671875 143.308594 76.425781 141.488281 C 77.179688 139.671875 77.976562 137.875 78.816406 136.09375 C 79.65625 134.316406 80.542969 132.558594 81.46875 130.824219 C 82.398438 129.089844 83.367188 127.378906 84.378906 125.691406 C 85.390625 124.003906 86.441406 122.339844 87.535156 120.703125 C 88.628906 119.070312 89.761719 117.460938 90.933594 115.878906 C 92.105469 114.300781 93.316406 112.75 94.5625 111.226562 C 95.8125 109.707031 97.097656 108.21875 98.417969 106.761719 C 99.738281 105.300781 101.09375 103.878906 102.488281 102.488281 C 103.878906 101.09375 105.300781 99.738281 106.761719 98.417969 C 108.21875 97.097656 109.707031 95.8125 111.226562 94.5625 C 112.75 93.316406 114.300781 92.105469 115.878906 90.933594 C 117.460938 89.761719 119.070312 88.628906 120.703125 87.535156 C 122.339844 86.441406 124.003906 85.390625 125.691406 84.378906 C 127.378906 83.367188 129.089844 82.398438 130.824219 81.46875 C 132.558594 80.542969 134.316406 79.65625 136.09375 78.816406 C 137.875 77.976562 139.671875 77.179688 141.488281 76.425781 C 143.308594 75.671875 145.140625 74.964844 146.996094 74.300781 C 148.847656 73.640625 150.714844 73.023438 152.597656 72.449219 C 154.480469 71.878906 156.375 71.355469 158.285156 70.878906 C 160.195312 70.398438 162.113281 69.96875 164.042969 69.585938 C 165.972656 69.199219 167.910156 68.863281 169.855469 68.574219 C 171.804688 68.285156 173.753906 68.046875 175.714844 67.851562 C 177.671875 67.660156 179.632812 67.515625 181.597656 67.417969 C 183.5625 67.324219 185.53125 67.273438 187.496094 67.273438 C 189.464844 67.273438 191.429688 67.324219 193.394531 67.417969 C 195.359375 67.515625 197.324219 67.660156 199.28125 67.851562 C 201.238281 68.046875 203.191406 68.285156 205.136719 68.574219 C 207.082031 68.863281 209.019531 69.199219 210.949219 69.585938 C 212.882812 69.96875 214.800781 70.398438 216.707031 70.878906 C 218.617188 71.355469 220.511719 71.878906 222.394531 72.449219 C 224.277344 73.023438 226.144531 73.640625 228 74.300781 C 229.851562 74.964844 231.6875 75.671875 233.503906 76.425781 C 235.320312 77.179688 237.121094 77.976562 238.898438 78.816406 C 240.675781 79.65625 242.433594 80.542969 244.167969 81.46875 C 245.90625 82.398438 247.617188 83.367188 249.304688 84.378906 C 250.992188 85.390625 252.652344 86.441406 254.289062 87.535156 C 255.925781 88.628906 257.53125 89.761719 259.113281 90.933594 C 260.695312 92.105469 262.246094 93.316406 263.765625 94.5625 C 265.285156 95.8125 266.777344 97.097656 268.234375 98.417969 C 269.691406 99.738281 271.117188 101.09375 272.507812 102.488281 C 273.898438 103.878906 275.253906 105.300781 276.574219 106.761719 C 277.898438 108.21875 279.183594 109.707031 280.429688 111.226562 C 281.679688 112.75 282.886719 114.300781 284.0625 115.878906 C 285.234375 117.460938 286.367188 119.070312 287.457031 120.703125 C 288.550781 122.339844 289.605469 124.003906 290.617188 125.691406 C 291.625 127.378906 292.597656 129.089844 293.523438 130.824219 C 294.453125 132.558594 295.335938 134.316406 296.175781 136.09375 C 297.019531 137.875 297.816406 139.671875 298.566406 141.488281 C 299.320312 143.308594 300.027344 145.140625 300.691406 146.996094 C 301.355469 148.847656 301.972656 150.714844 302.542969 152.597656 C 303.113281 154.480469 303.636719 156.375 304.117188 158.285156 C 304.59375 160.195312 305.027344 162.113281 305.410156 164.042969 C 305.792969 165.972656 306.128906 167.910156 306.417969 169.855469 C 306.707031 171.804688 306.949219 173.753906 307.140625 175.714844 C 307.332031 177.671875 307.476562 179.632812 307.574219 181.597656 C 307.671875 183.5625 307.71875 185.53125 307.71875 187.496094 Z M 307.71875 187.496094 " fill-opacity="1" fill-rule="nonzero"/></g><g clip-path="url(#2a500cf871)"><path fill="#e2eaff" d="M 187.496094 63.726562 C 119.140625 63.726562 63.726562 119.140625 63.726562 187.496094 C 63.726562 255.851562 119.140625 311.261719 187.496094 311.261719 C 255.851562 311.261719 311.261719 255.851562 311.261719 187.496094 C 311.261719 119.140625 255.851562 63.726562 187.496094 63.726562 Z M 219.5 237.003906 L 178.746094 196.246094 C 176.417969 193.917969 175.117188 190.777344 175.117188 187.496094 L 175.117188 125.613281 C 175.117188 118.78125 180.664062 113.234375 187.496094 113.234375 C 194.328125 113.234375 199.871094 118.78125 199.871094 125.613281 L 199.871094 182.371094 L 237.003906 219.5 C 241.828125 224.328125 241.828125 232.175781 237.003906 237.003906 C 232.175781 241.828125 224.328125 241.828125 219.5 237.003906 Z M 219.5 237.003906 " fill-opacity="1" fill-rule="nonzero"/></g><g clip-path="url(#6faa266940)"><path fill="#050a30" d="M 187.5 59.660156 C 116.867188 59.660156 59.660156 116.867188 59.660156 187.5 C 59.660156 258.128906 116.867188 315.339844 187.5 315.339844 C 258.128906 315.339844 315.339844 258.128906 315.339844 187.5 C 315.339844 116.867188 258.128906 59.660156 187.5 59.660156 Z M 187.5 289.769531 C 130.992188 289.769531 85.226562 244.003906 85.226562 187.5 C 85.226562 130.992188 130.992188 85.226562 187.5 85.226562 C 244.003906 85.226562 289.769531 130.992188 289.769531 187.5 C 289.769531 244.003906 244.003906 289.769531 187.5 289.769531 Z M 187.5 289.769531 " fill-opacity="1" fill-rule="nonzero"/></g></svg>