<svg xmlns="http://www.w3.org/2000/svg" xmlns:xlink="http://www.w3.org/1999/xlink" width="500" zoomAndPan="magnify" viewBox="0 0 375 374.999991" height="500" preserveAspectRatio="xMidYMid meet" version="1.0"><defs><clipPath id="e4ecae37c6"><path d="M 237.90625 111.1875 L 331.65625 111.1875 L 331.65625 267.1875 L 237.90625 267.1875 Z M 237.90625 111.1875 " clip-rule="nonzero"/></clipPath><clipPath id="44e30d5467"><path d="M 43.296875 107.804688 L 137.046875 107.804688 L 137.046875 263.804688 L 43.296875 263.804688 Z M 43.296875 107.804688 " clip-rule="nonzero"/></clipPath><clipPath id="cf05fd331f"><path d="M 0.578125 86.25 L 374.078125 86.25 L 374.078125 288.75 L 0.578125 288.75 Z M 0.578125 86.25 " clip-rule="nonzero"/></clipPath><clipPath id="c67c9c59e1"><path d="M 24.15625 98.707031 L 351.90625 98.707031 L 351.90625 276.457031 L 24.15625 276.457031 Z M 24.15625 98.707031 " clip-rule="nonzero"/></clipPath><clipPath id="7e956c7d7c"><path d="M 103.953125 103.710938 L 271.953125 103.710938 L 271.953125 271.710938 L 103.953125 271.710938 Z M 103.953125 103.710938 " clip-rule="nonzero"/></clipPath><clipPath id="d3b77f94b8"><path d="M 135.285156 135.285156 L 239.535156 135.285156 L 239.535156 239.535156 L 135.285156 239.535156 Z M 135.285156 135.285156 " clip-rule="nonzero"/></clipPath><clipPath id="8abe9e4e97"><path d="M 122.152344 122.152344 L 252.652344 122.152344 L 252.652344 252.652344 L 122.152344 252.652344 Z M 122.152344 122.152344 " clip-rule="nonzero"/></clipPath><clipPath id="a822a90db4"><path d="M 111.351562 111.351562 L 263.601562 111.351562 L 263.601562 263.601562 L 111.351562 263.601562 Z M 111.351562 111.351562 " clip-rule="nonzero"/></clipPath><clipPath id="d3b806da14"><path d="M 146.714844 141.625 L 229.214844 141.625 L 229.214844 230.125 L 146.714844 230.125 Z M 146.714844 141.625 " clip-rule="nonzero"/></clipPath></defs><g clip-path="url(#e4ecae37c6)"><path fill="#f4f6fc" d="M 217.375 267.1875 C 269.320312 267.1875 313.679688 234.878906 331.652344 189.269531 C 313.679688 143.660156 269.320312 111.351562 217.375 111.351562 C 165.429688 111.351562 121.066406 143.660156 103.09375 189.269531 C 121.066406 234.878906 165.375 267.1875 217.375 267.1875 Z M 217.375 137.324219 C 246.046875 137.324219 269.320312 160.597656 269.320312 189.269531 C 269.320312 217.945312 246.046875 241.214844 217.375 241.214844 C 188.699219 241.214844 165.429688 217.945312 165.429688 189.269531 C 165.429688 160.597656 188.699219 137.324219 217.375 137.324219 Z M 217.375 220.4375 C 234.566406 220.4375 248.539062 206.464844 248.539062 189.269531 C 248.539062 172.074219 234.566406 158.101562 217.375 158.101562 C 200.179688 158.101562 186.207031 172.074219 186.207031 189.269531 C 186.207031 206.464844 200.179688 220.4375 217.375 220.4375 Z M 217.375 220.4375 " fill-opacity="1" fill-rule="nonzero"/></g><g clip-path="url(#44e30d5467)"><path fill="#f4f6fc" d="M 157.578125 107.804688 C 105.632812 107.804688 61.269531 140.117188 43.296875 185.722656 C 61.269531 231.332031 105.632812 263.640625 157.578125 263.640625 C 209.523438 263.640625 253.882812 231.332031 271.855469 185.722656 C 253.882812 140.117188 209.574219 107.804688 157.578125 107.804688 Z M 157.578125 237.667969 C 128.902344 237.667969 105.632812 214.398438 105.632812 185.722656 C 105.632812 157.050781 128.902344 133.777344 157.578125 133.777344 C 186.25 133.777344 209.523438 157.050781 209.523438 185.722656 C 209.523438 214.398438 186.25 237.667969 157.578125 237.667969 Z M 157.578125 154.554688 C 140.382812 154.554688 126.410156 168.53125 126.410156 185.722656 C 126.410156 202.917969 140.382812 216.890625 157.578125 216.890625 C 174.769531 216.890625 188.746094 202.917969 188.746094 185.722656 C 188.746094 168.53125 174.769531 154.554688 157.578125 154.554688 Z M 157.578125 154.554688 " fill-opacity="1" fill-rule="nonzero"/></g><g clip-path="url(#cf05fd331f)"><path fill="#233dff" d="M 189.773438 288.613281 C 126.945312 288.613281 65.128906 257.273438 6.042969 195.460938 L 0.167969 189.3125 L 5.464844 182.660156 C 8.59375 178.730469 83.371094 86.386719 190.277344 86.386719 C 253.265625 86.386719 313.582031 118.65625 369.550781 182.296875 L 374.828125 188.300781 L 369.96875 194.648438 C 367.03125 198.488281 296.792969 288.613281 189.773438 288.613281 Z M 26.316406 188.351562 C 79.652344 241.96875 134.605469 269.140625 189.773438 269.140625 C 271.792969 269.140625 331.917969 208.664062 349.34375 188.941406 C 298.867188 133.808594 245.382812 105.863281 190.277344 105.863281 C 108.332031 105.863281 44.972656 167.902344 26.316406 188.351562 Z M 26.316406 188.351562 " fill-opacity="1" fill-rule="nonzero"/></g><path fill="#233dff" d="M 187.660156 125.320312 C 153.316406 125.320312 125.480469 153.160156 125.480469 187.5 C 125.480469 221.839844 153.316406 249.679688 187.660156 249.679688 C 222.003906 249.679688 249.839844 221.839844 249.839844 187.5 C 249.839844 153.160156 222.003906 125.320312 187.660156 125.320312 Z M 187.660156 213.597656 C 173.246094 213.597656 161.5625 201.914062 161.5625 187.5 C 161.5625 173.085938 173.246094 161.402344 187.660156 161.402344 C 202.074219 161.402344 213.753906 173.085938 213.753906 187.5 C 213.753906 201.914062 202.074219 213.597656 187.660156 213.597656 Z M 187.660156 213.597656 " fill-opacity="1" fill-rule="nonzero"/><g clip-path="url(#c67c9c59e1)"><path fill="#233dff" d="M 190.070312 276.167969 C 134.972656 276.167969 80.765625 248.683594 28.949219 194.476562 L 23.796875 189.085938 L 28.441406 183.253906 C 31.1875 179.804688 96.761719 98.824219 190.511719 98.824219 C 245.75 98.824219 298.644531 127.121094 347.726562 182.933594 L 352.355469 188.199219 L 348.09375 193.765625 C 345.519531 197.132812 283.921875 276.167969 190.070312 276.167969 Z M 46.726562 188.242188 C 93.5 235.261719 141.691406 259.089844 190.070312 259.089844 C 262 259.089844 314.726562 206.054688 330.003906 188.757812 C 285.742188 140.410156 238.839844 115.902344 190.511719 115.902344 C 118.652344 115.902344 63.085938 170.308594 46.726562 188.242188 Z M 46.726562 188.242188 " fill-opacity="1" fill-rule="nonzero"/></g><path fill="#233dff" d="M 188.21875 132.964844 C 158.101562 132.964844 133.6875 157.378906 133.6875 187.496094 C 133.6875 217.609375 158.101562 242.027344 188.21875 242.027344 C 218.335938 242.027344 242.746094 217.609375 242.746094 187.496094 C 242.746094 157.382812 218.335938 132.964844 188.21875 132.964844 Z M 188.21875 210.382812 C 175.578125 210.382812 165.332031 200.136719 165.332031 187.496094 C 165.332031 174.855469 175.578125 164.609375 188.21875 164.609375 C 200.855469 164.609375 211.101562 174.855469 211.101562 187.496094 C 211.101562 200.136719 200.855469 210.382812 188.21875 210.382812 Z M 188.21875 210.382812 " fill-opacity="1" fill-rule="nonzero"/><g clip-path="url(#7e956c7d7c)"><path fill="#233dff" d="M 187.90625 103.710938 C 141.523438 103.710938 103.953125 141.28125 103.953125 187.664062 C 103.953125 234.050781 141.523438 271.617188 187.90625 271.617188 C 234.289062 271.617188 271.859375 234.050781 271.859375 187.664062 C 271.859375 141.28125 234.289062 103.710938 187.90625 103.710938 Z M 187.90625 254.828125 C 150.800781 254.828125 120.742188 224.773438 120.742188 187.664062 C 120.742188 150.558594 150.800781 120.503906 187.90625 120.503906 C 225.011719 120.503906 255.070312 150.558594 255.070312 187.664062 C 255.070312 224.773438 225.011719 254.828125 187.90625 254.828125 Z M 187.90625 254.828125 " fill-opacity="1" fill-rule="nonzero"/></g><g clip-path="url(#d3b77f94b8)"><path fill="#ffffff" d="M 187.496094 135.285156 C 158.660156 135.285156 135.285156 158.660156 135.285156 187.496094 C 135.285156 216.335938 158.660156 239.710938 187.496094 239.710938 C 216.335938 239.710938 239.710938 216.335938 239.710938 187.496094 C 239.710938 158.660156 216.335938 135.285156 187.496094 135.285156 Z M 201 208.382812 L 183.804688 191.191406 C 182.824219 190.207031 182.277344 188.882812 182.277344 187.496094 L 182.277344 161.390625 C 182.277344 158.507812 184.617188 156.171875 187.496094 156.171875 C 190.378906 156.171875 192.71875 158.507812 192.71875 161.390625 L 192.71875 185.335938 L 208.382812 201 C 210.417969 203.035156 210.417969 206.347656 208.382812 208.382812 C 206.347656 210.417969 203.035156 210.417969 201 208.382812 Z M 201 208.382812 " fill-opacity="1" fill-rule="nonzero"/></g><g clip-path="url(#8abe9e4e97)"><path fill="#5cb6f9" d="M 252.839844 187.496094 C 252.839844 188.566406 252.816406 189.636719 252.761719 190.703125 C 252.710938 191.773438 252.632812 192.835938 252.527344 193.902344 C 252.421875 194.964844 252.289062 196.027344 252.132812 197.085938 C 251.976562 198.144531 251.792969 199.195312 251.585938 200.246094 C 251.375 201.292969 251.140625 202.335938 250.882812 203.375 C 250.621094 204.410156 250.335938 205.441406 250.027344 206.464844 C 249.71875 207.488281 249.382812 208.503906 249.019531 209.511719 C 248.660156 210.519531 248.277344 211.515625 247.867188 212.503906 C 247.457031 213.492188 247.023438 214.46875 246.566406 215.433594 C 246.109375 216.402344 245.628906 217.355469 245.125 218.300781 C 244.621094 219.242188 244.09375 220.171875 243.542969 221.089844 C 242.996094 222.007812 242.421875 222.910156 241.828125 223.800781 C 241.234375 224.691406 240.617188 225.5625 239.980469 226.421875 C 239.34375 227.28125 238.6875 228.125 238.007812 228.949219 C 237.332031 229.777344 236.632812 230.585938 235.914062 231.378906 C 235.195312 232.171875 234.457031 232.945312 233.703125 233.703125 C 232.945312 234.457031 232.171875 235.195312 231.378906 235.914062 C 230.585938 236.632812 229.777344 237.332031 228.949219 238.007812 C 228.125 238.6875 227.28125 239.34375 226.421875 239.980469 C 225.5625 240.617188 224.6875 241.234375 223.800781 241.828125 C 222.910156 242.421875 222.007812 242.996094 221.089844 243.542969 C 220.171875 244.09375 219.242188 244.621094 218.300781 245.125 C 217.355469 245.628906 216.402344 246.109375 215.433594 246.566406 C 214.46875 247.023438 213.492188 247.457031 212.503906 247.867188 C 211.515625 248.277344 210.519531 248.660156 209.511719 249.019531 C 208.503906 249.382812 207.488281 249.71875 206.464844 250.027344 C 205.441406 250.335938 204.410156 250.621094 203.375 250.882812 C 202.335938 251.140625 201.292969 251.375 200.246094 251.585938 C 199.195312 251.792969 198.144531 251.976562 197.085938 252.132812 C 196.027344 252.289062 194.964844 252.421875 193.902344 252.527344 C 192.835938 252.632812 191.773438 252.710938 190.703125 252.761719 C 189.636719 252.816406 188.566406 252.839844 187.496094 252.839844 C 186.429688 252.839844 185.359375 252.816406 184.289062 252.761719 C 183.222656 252.710938 182.15625 252.632812 181.09375 252.527344 C 180.027344 252.421875 178.96875 252.289062 177.910156 252.132812 C 176.851562 251.976562 175.796875 251.792969 174.75 251.585938 C 173.699219 251.375 172.65625 251.140625 171.621094 250.882812 C 170.582031 250.621094 169.550781 250.335938 168.527344 250.027344 C 167.503906 249.71875 166.492188 249.382812 165.484375 249.019531 C 164.476562 248.660156 163.480469 248.277344 162.492188 247.867188 C 161.503906 247.457031 160.527344 247.023438 159.558594 246.566406 C 158.59375 246.109375 157.636719 245.628906 156.695312 245.125 C 155.75 244.621094 154.820312 244.09375 153.902344 243.542969 C 152.988281 242.996094 152.082031 242.421875 151.195312 241.828125 C 150.304688 241.234375 149.429688 240.617188 148.570312 239.980469 C 147.714844 239.34375 146.871094 238.6875 146.042969 238.007812 C 145.21875 237.332031 144.40625 236.632812 143.613281 235.914062 C 142.824219 235.195312 142.046875 234.457031 141.292969 233.703125 C 140.535156 232.945312 139.800781 232.171875 139.082031 231.378906 C 138.363281 230.585938 137.664062 229.777344 136.984375 228.949219 C 136.308594 228.125 135.648438 227.28125 135.011719 226.421875 C 134.375 225.5625 133.761719 224.691406 133.164062 223.800781 C 132.570312 222.910156 132 222.007812 131.449219 221.089844 C 130.898438 220.171875 130.375 219.242188 129.871094 218.300781 C 129.363281 217.355469 128.882812 216.402344 128.425781 215.433594 C 127.96875 214.46875 127.535156 213.492188 127.128906 212.503906 C 126.71875 211.515625 126.332031 210.519531 125.972656 209.511719 C 125.613281 208.503906 125.277344 207.488281 124.96875 206.464844 C 124.65625 205.441406 124.371094 204.410156 124.113281 203.375 C 123.851562 202.335938 123.617188 201.292969 123.410156 200.246094 C 123.199219 199.195312 123.019531 198.144531 122.859375 197.085938 C 122.703125 196.027344 122.574219 194.964844 122.46875 193.902344 C 122.363281 192.835938 122.285156 191.773438 122.230469 190.703125 C 122.179688 189.636719 122.152344 188.566406 122.152344 187.496094 C 122.152344 186.429688 122.179688 185.359375 122.230469 184.289062 C 122.285156 183.222656 122.363281 182.15625 122.46875 181.09375 C 122.574219 180.027344 122.703125 178.96875 122.859375 177.910156 C 123.019531 176.851562 123.199219 175.796875 123.410156 174.75 C 123.617188 173.699219 123.851562 172.65625 124.113281 171.621094 C 124.371094 170.582031 124.65625 169.550781 124.96875 168.527344 C 125.277344 167.503906 125.613281 166.492188 125.972656 165.484375 C 126.332031 164.476562 126.71875 163.480469 127.128906 162.492188 C 127.535156 161.503906 127.96875 160.527344 128.425781 159.558594 C 128.882812 158.59375 129.363281 157.636719 129.871094 156.695312 C 130.375 155.75 130.898438 154.820312 131.449219 153.902344 C 132 152.988281 132.570312 152.082031 133.164062 151.195312 C 133.761719 150.304688 134.375 149.429688 135.011719 148.570312 C 135.648438 147.714844 136.308594 146.871094 136.984375 146.042969 C 137.664062 145.21875 138.363281 144.40625 139.082031 143.613281 C 139.800781 142.824219 140.535156 142.046875 141.292969 141.292969 C 142.046875 140.535156 142.824219 139.800781 143.613281 139.082031 C 144.40625 138.363281 145.21875 137.664062 146.042969 136.984375 C 146.871094 136.308594 147.714844 135.648438 148.570312 135.011719 C 149.429688 134.375 150.304688 133.761719 151.195312 133.164062 C 152.082031 132.570312 152.988281 132 153.902344 131.449219 C 154.820312 130.898438 155.75 130.375 156.695312 129.871094 C 157.636719 129.363281 158.59375 128.882812 159.558594 128.425781 C 160.527344 127.96875 161.503906 127.535156 162.492188 127.128906 C 163.480469 126.71875 164.476562 126.332031 165.484375 125.972656 C 166.492188 125.613281 167.503906 125.277344 168.527344 124.96875 C 169.550781 124.65625 170.582031 124.371094 171.621094 124.113281 C 172.65625 123.851562 173.699219 123.617188 174.75 123.410156 C 175.796875 123.199219 176.851562 123.019531 177.910156 122.859375 C 178.96875 122.703125 180.027344 122.574219 181.09375 122.46875 C 182.15625 122.363281 183.222656 122.285156 184.289062 122.230469 C 185.359375 122.179688 186.429688 122.152344 187.496094 122.152344 C 188.566406 122.152344 189.636719 122.179688 190.703125 122.230469 C 191.773438 122.285156 192.835938 122.363281 193.902344 122.46875 C 194.964844 122.574219 196.027344 122.703125 197.085938 122.859375 C 198.144531 123.019531 199.195312 123.199219 200.246094 123.410156 C 201.292969 123.617188 202.335938 123.851562 203.375 124.113281 C 204.410156 124.371094 205.441406 124.65625 206.464844 124.96875 C 207.488281 125.277344 208.503906 125.613281 209.511719 125.972656 C 210.519531 126.332031 211.515625 126.71875 212.503906 127.128906 C 213.492188 127.535156 214.46875 127.96875 215.433594 128.425781 C 216.402344 128.882812 217.355469 129.363281 218.300781 129.871094 C 219.242188 130.375 220.171875 130.898438 221.089844 131.449219 C 222.007812 132 222.910156 132.570312 223.800781 133.164062 C 224.6875 133.761719 225.5625 134.375 226.421875 135.011719 C 227.28125 135.648438 228.125 136.308594 228.949219 136.984375 C 229.777344 137.664062 230.585938 138.363281 231.378906 139.082031 C 232.171875 139.800781 232.945312 140.535156 233.703125 141.292969 C 234.457031 142.046875 235.195312 142.824219 235.914062 143.613281 C 236.632812 144.40625 237.332031 145.21875 238.007812 146.042969 C 238.6875 146.871094 239.34375 147.714844 239.980469 148.570312 C 240.617188 149.429688 241.234375 150.304688 241.828125 151.195312 C 242.421875 152.082031 242.996094 152.988281 243.542969 153.902344 C 244.09375 154.820312 244.621094 155.75 245.125 156.695312 C 245.628906 157.636719 246.109375 158.59375 246.566406 159.558594 C 247.023438 160.527344 247.457031 161.503906 247.867188 162.492188 C 248.277344 163.480469 248.660156 164.476562 249.019531 165.484375 C 249.382812 166.492188 249.71875 167.503906 250.027344 168.527344 C 250.335938 169.550781 250.621094 170.582031 250.882812 171.621094 C 251.140625 172.65625 251.375 173.699219 251.585938 174.75 C 251.792969 175.796875 251.976562 176.851562 252.132812 177.910156 C 252.289062 178.96875 252.421875 180.027344 252.527344 181.09375 C 252.632812 182.15625 252.710938 183.222656 252.761719 184.289062 C 252.816406 185.359375 252.839844 186.429688 252.839844 187.496094 Z M 252.839844 187.496094 " fill-opacity="1" fill-rule="nonzero"/></g><g clip-path="url(#a822a90db4)"><path fill="#233dff" d="M 187.496094 111.351562 C 145.425781 111.351562 111.351562 145.425781 111.351562 187.496094 C 111.351562 229.5625 145.425781 263.636719 187.496094 263.636719 C 229.5625 263.636719 263.636719 229.5625 263.636719 187.496094 C 263.636719 145.425781 229.5625 111.351562 187.496094 111.351562 Z M 187.496094 248.410156 C 153.839844 248.410156 126.582031 221.148438 126.582031 187.496094 C 126.582031 153.839844 153.839844 126.582031 187.496094 126.582031 C 221.148438 126.582031 248.410156 153.839844 248.410156 187.496094 C 248.410156 221.148438 221.148438 248.410156 187.496094 248.410156 Z M 187.496094 248.410156 " fill-opacity="1" fill-rule="nonzero"/></g><g clip-path="url(#d3b806da14)"><path fill="#12229d" d="M 187.90625 110.46875 C 229.324219 110.46875 262.902344 144.046875 262.902344 185.464844 C 262.902344 226.882812 229.324219 260.457031 187.90625 260.457031 C 146.488281 260.457031 112.914062 226.882812 112.914062 185.464844 C 112.914062 144.046875 146.488281 110.46875 187.90625 110.46875 Z M 194.730469 124.480469 L 194.722656 130.921875 C 194.722656 134.6875 191.671875 137.738281 187.90625 137.738281 C 184.140625 137.738281 181.089844 134.6875 181.089844 130.921875 L 181.089844 124.480469 C 152.648438 127.621094 130.066406 150.207031 126.921875 178.648438 L 133.367188 178.644531 C 137.132812 178.644531 140.183594 181.699219 140.183594 185.464844 C 140.183594 189.226562 137.132812 192.28125 133.367188 192.28125 L 126.921875 192.285156 C 130.070312 220.726562 152.652344 243.304688 181.089844 246.449219 L 181.089844 240.003906 C 181.089844 236.238281 184.140625 233.1875 187.90625 233.1875 C 191.671875 233.1875 194.722656 236.238281 194.722656 240.003906 L 194.730469 246.445312 C 223.164062 243.300781 245.746094 220.722656 248.890625 192.285156 L 242.449219 192.28125 C 238.683594 192.28125 235.628906 189.226562 235.628906 185.464844 C 235.628906 181.699219 238.683594 178.644531 242.449219 178.644531 L 248.890625 178.648438 C 245.75 150.207031 223.167969 127.625 194.730469 124.480469 Z M 219.4375 146.050781 C 222.375 148.402344 222.851562 152.695312 220.5 155.632812 L 200.609375 180.496094 C 201.210938 182.035156 201.542969 183.710938 201.542969 185.464844 C 201.542969 192.992188 195.4375 199.097656 187.90625 199.097656 C 180.375 199.097656 174.273438 192.992188 174.273438 185.464844 C 174.273438 185.171875 174.28125 184.882812 174.300781 184.59375 L 163.671875 177.5 C 160.539062 175.410156 159.691406 171.179688 161.78125 168.046875 C 163.871094 164.914062 168.101562 164.066406 171.234375 166.15625 L 181.859375 173.238281 C 183.683594 172.335938 185.734375 171.828125 187.90625 171.828125 C 188.605469 171.828125 189.292969 171.878906 189.964844 171.980469 L 209.855469 147.117188 C 212.207031 144.175781 216.496094 143.699219 219.4375 146.050781 Z M 219.4375 146.050781 " fill-opacity="1" fill-rule="nonzero"/></g></svg>