<svg xmlns="http://www.w3.org/2000/svg" xmlns:xlink="http://www.w3.org/1999/xlink" width="500" zoomAndPan="magnify" viewBox="0 0 375 374.999991" height="500" preserveAspectRatio="xMidYMid meet" version="1.0"><defs><clipPath id="d400f89edc"><path d="M 0 64.21875 L 375 64.21875 L 375 310.96875 L 0 310.96875 Z M 0 64.21875 " clip-rule="nonzero"/></clipPath><clipPath id="bd98d88d23"><path d="M 67.273438 67.273438 L 308 67.273438 L 308 308 L 67.273438 308 Z M 67.273438 67.273438 " clip-rule="nonzero"/></clipPath><clipPath id="8f89a9e7f4"><path d="M 74.644531 74.644531 L 300.394531 74.644531 L 300.394531 300.394531 L 74.644531 300.394531 Z M 74.644531 74.644531 " clip-rule="nonzero"/></clipPath></defs><path fill="#233dff" d="M 371.210938 187.449219 C 371.210938 187.449219 288.992188 307.09375 187.554688 307.09375 C 86.121094 307.09375 3.890625 187.449219 3.890625 187.449219 C 3.890625 187.449219 86.121094 67.804688 187.554688 67.804688 C 288.992188 67.804688 371.210938 187.449219 371.210938 187.449219 " fill-opacity="1" fill-rule="nonzero"/><g clip-path="url(#d400f89edc)"><path fill="#cae8ff" d="M 371.210938 187.449219 L 368.230469 185.402344 L 368.183594 185.472656 C 367.03125 187.144531 346.222656 216.839844 313.453125 245.972656 C 297.074219 260.542969 277.707031 274.957031 256.382812 285.695312 C 235.058594 296.433594 211.808594 303.480469 187.554688 303.480469 C 162.914062 303.480469 139.308594 296.207031 117.707031 285.183594 C 85.304688 268.648438 57.507812 243.675781 37.890625 222.828125 C 28.078125 212.40625 20.300781 203.023438 14.992188 196.257812 C 12.335938 192.875 10.292969 190.152344 8.921875 188.273438 C 8.238281 187.335938 7.71875 186.613281 7.375 186.125 C 7.203125 185.882812 7.074219 185.695312 6.988281 185.574219 L 6.894531 185.441406 L 6.867188 185.402344 L 3.890625 187.449219 L 6.867188 189.492188 L 6.921875 189.421875 C 8.074219 187.753906 28.882812 158.054688 61.652344 128.925781 C 78.03125 114.355469 97.394531 99.9375 118.71875 89.203125 C 140.046875 78.460938 163.296875 71.414062 187.554688 71.417969 C 212.191406 71.414062 235.792969 78.6875 257.398438 89.71875 C 289.800781 106.246094 317.59375 131.222656 337.214844 152.070312 C 347.027344 162.492188 354.800781 171.871094 360.109375 178.636719 C 362.769531 182.019531 364.808594 184.75 366.179688 186.625 C 366.863281 187.558594 367.378906 188.285156 367.726562 188.773438 C 367.898438 189.015625 368.027344 189.199219 368.113281 189.320312 L 368.207031 189.457031 L 368.230469 189.492188 L 371.210938 187.449219 L 368.230469 185.402344 L 371.210938 187.449219 L 374.183594 185.402344 C 374.085938 185.261719 353.402344 155.15625 319.835938 124.941406 C 303.046875 109.835938 283.03125 94.691406 260.683594 83.28125 C 238.34375 71.878906 213.628906 64.195312 187.554688 64.195312 C 161.472656 64.195312 136.765625 71.878906 114.421875 83.28125 C 80.902344 100.402344 52.613281 125.902344 32.628906 147.113281 C 12.648438 168.335938 0.988281 185.292969 0.917969 185.402344 C 0.0703125 186.636719 0.0703125 188.265625 0.917969 189.492188 C 1.019531 189.640625 21.699219 219.738281 55.265625 249.953125 C 72.058594 265.0625 92.074219 280.203125 114.421875 291.617188 C 136.765625 303.019531 161.472656 310.703125 187.554688 310.707031 C 213.628906 310.703125 238.34375 303.019531 260.683594 291.617188 C 294.203125 274.496094 322.488281 248.996094 342.476562 227.78125 C 362.453125 206.558594 374.113281 189.601562 374.183594 189.492188 C 375.03125 188.265625 375.03125 186.636719 374.183594 185.402344 L 371.210938 187.449219 " fill-opacity="1" fill-rule="nonzero"/></g><path fill="#233dff" d="M 280.007812 187.449219 C 280.007812 238.511719 238.617188 279.914062 187.554688 279.914062 C 136.484375 279.914062 95.09375 238.511719 95.09375 187.449219 C 95.09375 136.390625 136.484375 94.988281 187.554688 94.988281 C 238.617188 94.988281 280.007812 136.390625 280.007812 187.449219 " fill-opacity="1" fill-rule="nonzero"/><path fill="#cae8ff" d="M 280.007812 187.449219 L 276.394531 187.449219 C 276.390625 211.992188 266.457031 234.183594 250.371094 250.277344 C 234.285156 266.359375 212.097656 276.296875 187.554688 276.300781 C 163.003906 276.296875 140.816406 266.359375 124.726562 250.277344 C 108.644531 234.183594 98.707031 211.992188 98.707031 187.449219 C 98.707031 162.90625 108.644531 140.714844 124.726562 124.621094 C 140.816406 108.535156 163.003906 98.597656 187.554688 98.597656 C 212.097656 98.597656 234.285156 108.535156 250.371094 124.621094 C 266.457031 140.714844 276.390625 162.90625 276.394531 187.449219 L 283.617188 187.449219 C 283.621094 160.933594 272.859375 136.890625 255.484375 119.515625 C 238.109375 102.132812 214.070312 91.371094 187.554688 91.375 C 161.03125 91.371094 136.988281 102.132812 119.617188 119.515625 C 102.238281 136.890625 91.480469 160.933594 91.480469 187.449219 C 91.480469 213.964844 102.238281 238.007812 119.617188 255.386719 C 136.988281 272.765625 161.035156 283.527344 187.554688 283.527344 C 214.070312 283.527344 238.109375 272.765625 255.484375 255.386719 C 272.859375 238.007812 283.621094 213.964844 283.617188 187.449219 L 280.007812 187.449219 " fill-opacity="1" fill-rule="nonzero"/><path fill="#cae8ff" d="M 231.632812 187.449219 C 231.632812 211.792969 211.894531 231.53125 187.554688 231.53125 C 163.214844 231.53125 143.472656 211.792969 143.472656 187.449219 C 143.472656 163.09375 163.214844 143.371094 187.554688 143.371094 C 211.894531 143.371094 231.632812 163.09375 231.632812 187.449219 " fill-opacity="1" fill-rule="nonzero"/><path fill="#233dff" d="M 246.191406 172.699219 C 246.191406 188.894531 233.078125 202.015625 216.882812 202.015625 C 200.679688 202.015625 187.554688 188.894531 187.554688 172.699219 C 187.554688 156.5 200.679688 143.371094 216.882812 143.371094 C 233.078125 143.371094 246.191406 156.5 246.191406 172.699219 " fill-opacity="1" fill-rule="nonzero"/><g clip-path="url(#bd98d88d23)"><path fill="#cae8ff" d="M 307.71875 187.496094 C 307.71875 189.464844 307.671875 191.429688 307.574219 193.394531 C 307.476562 195.359375 307.332031 197.324219 307.140625 199.28125 C 306.949219 201.238281 306.707031 203.191406 306.417969 205.136719 C 306.128906 207.082031 305.792969 209.019531 305.410156 210.949219 C 305.027344 212.882812 304.59375 214.800781 304.117188 216.707031 C 303.636719 218.617188 303.113281 220.511719 302.542969 222.394531 C 301.972656 224.277344 301.355469 226.144531 300.691406 228 C 300.027344 229.851562 299.320312 231.6875 298.566406 233.503906 C 297.816406 235.320312 297.019531 237.121094 296.175781 238.898438 C 295.335938 240.675781 294.453125 242.433594 293.523438 244.167969 C 292.597656 245.90625 291.625 247.617188 290.617188 249.304688 C 289.605469 250.992188 288.550781 252.652344 287.457031 254.289062 C 286.367188 255.925781 285.234375 257.53125 284.0625 259.113281 C 282.886719 260.695312 281.679688 262.246094 280.429688 263.765625 C 279.183594 265.285156 277.898438 266.777344 276.574219 268.234375 C 275.253906 269.691406 273.898438 271.117188 272.507812 272.507812 C 271.117188 273.898438 269.691406 275.253906 268.234375 276.574219 C 266.777344 277.898438 265.285156 279.183594 263.765625 280.429688 C 262.246094 281.679688 260.695312 282.886719 259.113281 284.0625 C 257.53125 285.234375 255.925781 286.367188 254.289062 287.457031 C 252.652344 288.550781 250.992188 289.605469 249.304688 290.617188 C 247.617188 291.625 245.90625 292.597656 244.167969 293.523438 C 242.433594 294.453125 240.675781 295.335938 238.898438 296.175781 C 237.121094 297.019531 235.320312 297.816406 233.503906 298.566406 C 231.6875 299.320312 229.851562 300.027344 228 300.691406 C 226.144531 301.355469 224.277344 301.972656 222.394531 302.542969 C 220.511719 303.113281 218.617188 303.636719 216.707031 304.117188 C 214.800781 304.59375 212.882812 305.027344 210.949219 305.410156 C 209.019531 305.792969 207.082031 306.128906 205.136719 306.417969 C 203.191406 306.707031 201.238281 306.949219 199.28125 307.140625 C 197.324219 307.332031 195.359375 307.476562 193.394531 307.574219 C 191.429688 307.671875 189.464844 307.71875 187.496094 307.71875 C 185.53125 307.71875 183.5625 307.671875 181.597656 307.574219 C 179.632812 307.476562 177.671875 307.332031 175.714844 307.140625 C 173.753906 306.949219 171.804688 306.707031 169.855469 306.417969 C 167.910156 306.128906 165.972656 305.792969 164.042969 305.410156 C 162.113281 305.027344 160.195312 304.59375 158.285156 304.117188 C 156.375 303.636719 154.480469 303.113281 152.597656 302.542969 C 150.714844 301.972656 148.847656 301.355469 146.996094 300.691406 C 145.140625 300.027344 143.308594 299.320312 141.488281 298.566406 C 139.671875 297.816406 137.875 297.019531 136.09375 296.175781 C 134.316406 295.335938 132.558594 294.453125 130.824219 293.523438 C 129.089844 292.597656 127.378906 291.625 125.691406 290.617188 C 124.003906 289.605469 122.339844 288.550781 120.703125 287.457031 C 119.070312 286.367188 117.460938 285.234375 115.878906 284.0625 C 114.300781 282.886719 112.75 281.679688 111.226562 280.429688 C 109.707031 279.183594 108.21875 277.898438 106.761719 276.574219 C 105.300781 275.253906 103.878906 273.898438 102.488281 272.507812 C 101.09375 271.117188 99.738281 269.691406 98.417969 268.234375 C 97.097656 266.777344 95.8125 265.285156 94.5625 263.765625 C 93.316406 262.246094 92.105469 260.695312 90.933594 259.113281 C 89.761719 257.53125 88.628906 255.925781 87.535156 254.289062 C 86.441406 252.652344 85.390625 250.992188 84.378906 249.304688 C 83.367188 247.617188 82.398438 245.90625 81.46875 244.167969 C 80.542969 242.433594 79.65625 240.675781 78.816406 238.898438 C 77.976562 237.121094 77.179688 235.320312 76.425781 233.503906 C 75.671875 231.6875 74.964844 229.851562 74.300781 228 C 73.640625 226.144531 73.023438 224.277344 72.449219 222.394531 C 71.878906 220.511719 71.355469 218.617188 70.878906 216.707031 C 70.398438 214.800781 69.96875 212.882812 69.585938 210.949219 C 69.199219 209.019531 68.863281 207.082031 68.574219 205.136719 C 68.285156 203.191406 68.046875 201.238281 67.851562 199.28125 C 67.660156 197.324219 67.515625 195.359375 67.417969 193.394531 C 67.324219 191.429688 67.273438 189.464844 67.273438 187.496094 C 67.273438 185.53125 67.324219 183.5625 67.417969 181.597656 C 67.515625 179.632812 67.660156 177.671875 67.851562 175.714844 C 68.046875 173.753906 68.285156 171.804688 68.574219 169.855469 C 68.863281 167.910156 69.199219 165.972656 69.585938 164.042969 C 69.96875 162.113281 70.398438 160.195312 70.878906 158.285156 C 71.355469 156.375 71.878906 154.480469 72.449219 152.597656 C 73.023438 150.714844 73.640625 148.847656 74.300781 146.996094 C 74.964844 145.140625 75.671875 143.308594 76.425781 141.488281 C 77.179688 139.671875 77.976562 137.875 78.816406 136.09375 C 79.65625 134.316406 80.542969 132.558594 81.46875 130.824219 C 82.398438 129.089844 83.367188 127.378906 84.378906 125.691406 C 85.390625 124.003906 86.441406 122.339844 87.535156 120.703125 C 88.628906 119.070312 89.761719 117.460938 90.933594 115.878906 C 92.105469 114.300781 93.316406 112.75 94.5625 111.226562 C 95.8125 109.707031 97.097656 108.21875 98.417969 106.761719 C 99.738281 105.300781 101.09375 103.878906 102.488281 102.488281 C 103.878906 101.09375 105.300781 99.738281 106.761719 98.417969 C 108.21875 97.097656 109.707031 95.8125 111.226562 94.5625 C 112.75 93.316406 114.300781 92.105469 115.878906 90.933594 C 117.460938 89.761719 119.070312 88.628906 120.703125 87.535156 C 122.339844 86.441406 124.003906 85.390625 125.691406 84.378906 C 127.378906 83.367188 129.089844 82.398438 130.824219 81.46875 C 132.558594 80.542969 134.316406 79.65625 136.09375 78.816406 C 137.875 77.976562 139.671875 77.179688 141.488281 76.425781 C 143.308594 75.671875 145.140625 74.964844 146.996094 74.300781 C 148.847656 73.640625 150.714844 73.023438 152.597656 72.449219 C 154.480469 71.878906 156.375 71.355469 158.285156 70.878906 C 160.195312 70.398438 162.113281 69.96875 164.042969 69.585938 C 165.972656 69.199219 167.910156 68.863281 169.855469 68.574219 C 171.804688 68.285156 173.753906 68.046875 175.714844 67.851562 C 177.671875 67.660156 179.632812 67.515625 181.597656 67.417969 C 183.5625 67.324219 185.53125 67.273438 187.496094 67.273438 C 189.464844 67.273438 191.429688 67.324219 193.394531 67.417969 C 195.359375 67.515625 197.324219 67.660156 199.28125 67.851562 C 201.238281 68.046875 203.191406 68.285156 205.136719 68.574219 C 207.082031 68.863281 209.019531 69.199219 210.949219 69.585938 C 212.882812 69.96875 214.800781 70.398438 216.707031 70.878906 C 218.617188 71.355469 220.511719 71.878906 222.394531 72.449219 C 224.277344 73.023438 226.144531 73.640625 228 74.300781 C 229.851562 74.964844 231.6875 75.671875 233.503906 76.425781 C 235.320312 77.179688 237.121094 77.976562 238.898438 78.816406 C 240.675781 79.65625 242.433594 80.542969 244.167969 81.46875 C 245.90625 82.398438 247.617188 83.367188 249.304688 84.378906 C 250.992188 85.390625 252.652344 86.441406 254.289062 87.535156 C 255.925781 88.628906 257.53125 89.761719 259.113281 90.933594 C 260.695312 92.105469 262.246094 93.316406 263.765625 94.5625 C 265.285156 95.8125 266.777344 97.097656 268.234375 98.417969 C 269.691406 99.738281 271.117188 101.09375 272.507812 102.488281 C 273.898438 103.878906 275.253906 105.300781 276.574219 106.761719 C 277.898438 108.21875 279.183594 109.707031 280.429688 111.226562 C 281.679688 112.75 282.886719 114.300781 284.0625 115.878906 C 285.234375 117.460938 286.367188 119.070312 287.457031 120.703125 C 288.550781 122.339844 289.605469 124.003906 290.617188 125.691406 C 291.625 127.378906 292.597656 129.089844 293.523438 130.824219 C 294.453125 132.558594 295.335938 134.316406 296.175781 136.09375 C 297.019531 137.875 297.816406 139.671875 298.566406 141.488281 C 299.320312 143.308594 300.027344 145.140625 300.691406 146.996094 C 301.355469 148.847656 301.972656 150.714844 302.542969 152.597656 C 303.113281 154.480469 303.636719 156.375 304.117188 158.285156 C 304.59375 160.195312 305.027344 162.113281 305.410156 164.042969 C 305.792969 165.972656 306.128906 167.910156 306.417969 169.855469 C 306.707031 171.804688 306.949219 173.753906 307.140625 175.714844 C 307.332031 177.671875 307.476562 179.632812 307.574219 181.597656 C 307.671875 183.5625 307.71875 185.53125 307.71875 187.496094 Z M 307.71875 187.496094 " fill-opacity="1" fill-rule="nonzero"/></g><g clip-path="url(#8f89a9e7f4)"><path fill="#050a30" d="M 187.496094 74.644531 C 125.167969 74.644531 74.644531 125.167969 74.644531 187.496094 C 74.644531 249.824219 125.167969 300.347656 187.496094 300.347656 C 249.824219 300.347656 300.347656 249.824219 300.347656 187.496094 C 300.347656 125.167969 249.824219 74.644531 187.496094 74.644531 Z M 216.679688 232.636719 L 179.515625 195.472656 C 177.394531 193.351562 176.210938 190.484375 176.210938 187.496094 L 176.210938 131.070312 C 176.210938 124.839844 181.265625 119.785156 187.496094 119.785156 C 193.722656 119.785156 198.78125 124.839844 198.78125 131.070312 L 198.78125 182.824219 L 232.636719 216.679688 C 237.035156 221.078125 237.035156 228.234375 232.636719 232.636719 C 228.234375 237.035156 221.078125 237.035156 216.679688 232.636719 Z M 216.679688 232.636719 " fill-opacity="1" fill-rule="nonzero"/></g></svg>