<svg xmlns="http://www.w3.org/2000/svg" xmlns:xlink="http://www.w3.org/1999/xlink" width="500" zoomAndPan="magnify" viewBox="0 0 375 374.999991" height="500" preserveAspectRatio="xMidYMid meet" version="1.0"><defs><clipPath id="ed9e3f18b9"><path d="M 162 34 L 344 34 L 344 217 L 162 217 Z M 162 34 " clip-rule="nonzero"/></clipPath><clipPath id="827c99bc2c"><path d="M 405.433594 124.726562 L 313.6875 216.476562 L 162.011719 64.800781 L 253.761719 -26.945312 Z M 405.433594 124.726562 " clip-rule="nonzero"/></clipPath><clipPath id="466b49006a"><path d="M 405.433594 124.726562 L 182.695312 347.464844 L 31.023438 195.792969 L 253.761719 -26.945312 Z M 405.433594 124.726562 " clip-rule="nonzero"/></clipPath><clipPath id="92b4528f27"><path d="M 31 158 L 213 158 L 213 341 L 31 341 Z M 31 158 " clip-rule="nonzero"/></clipPath><clipPath id="255a59547a"><path d="M -30.476562 250.300781 L 61.269531 158.554688 L 212.945312 310.230469 L 121.199219 401.976562 Z M -30.476562 250.300781 " clip-rule="nonzero"/></clipPath><clipPath id="5efc746fd0"><path d="M -30.476562 250.300781 L 192.261719 27.5625 L 343.9375 179.238281 L 121.199219 401.976562 Z M -30.476562 250.300781 " clip-rule="nonzero"/></clipPath><clipPath id="cdbbb086c1"><path d="M 4 3 L 375 3 L 375 373 L 4 373 Z M 4 3 " clip-rule="nonzero"/></clipPath><clipPath id="834bf8e8c6"><path d="M -93.054688 270.90625 L 270.753906 -92.898438 L 468.035156 104.382812 L 104.230469 468.191406 Z M -93.054688 270.90625 " clip-rule="nonzero"/></clipPath><clipPath id="7ed6f78d31"><path d="M -93.453125 271.304688 L 271.414062 -93.5625 L 468.699219 103.71875 L 103.832031 468.585938 Z M -93.453125 271.304688 " clip-rule="nonzero"/></clipPath><clipPath id="7ea9a52027"><path d="M 102 101 L 274 101 L 274 273 L 102 273 Z M 102 101 " clip-rule="nonzero"/></clipPath><clipPath id="131a6a76b2"><path d="M -93.054688 270.90625 L 270.753906 -92.898438 L 468.035156 104.382812 L 104.230469 468.191406 Z M -93.054688 270.90625 " clip-rule="nonzero"/></clipPath><clipPath id="328d411b1f"><path d="M -93.453125 271.304688 L 271.414062 -93.5625 L 468.699219 103.71875 L 103.832031 468.585938 Z M -93.453125 271.304688 " clip-rule="nonzero"/></clipPath><clipPath id="ea74375c6f"><path d="M 13 12 L 369 12 L 369 367 L 13 367 Z M 13 12 " clip-rule="nonzero"/></clipPath><clipPath id="ecf763649a"><path d="M -80.269531 269.34375 L 269.21875 -80.144531 L 458.546875 109.183594 L 109.058594 458.671875 Z M -80.269531 269.34375 " clip-rule="nonzero"/></clipPath><clipPath id="eec0dddeb7"><path d="M -80.648438 269.722656 L 269.898438 -80.824219 L 459.226562 108.503906 L 108.675781 459.050781 Z M -80.648438 269.722656 " clip-rule="nonzero"/></clipPath><clipPath id="96406291e9"><path d="M 107 106 L 272 106 L 272 272 L 107 272 Z M 107 106 " clip-rule="nonzero"/></clipPath><clipPath id="9d87f9320c"><path d="M -80.269531 269.34375 L 269.21875 -80.144531 L 458.546875 109.183594 L 109.058594 458.671875 Z M -80.269531 269.34375 " clip-rule="nonzero"/></clipPath><clipPath id="a2d201ed6a"><path d="M -80.648438 269.722656 L 269.898438 -80.824219 L 459.226562 108.503906 L 108.675781 459.050781 Z M -80.648438 269.722656 " clip-rule="nonzero"/></clipPath><clipPath id="6fd93090b9"><path d="M 64 63 L 316 63 L 316 315 L 64 315 Z M 64 63 " clip-rule="nonzero"/></clipPath><clipPath id="4c8da04401"><path d="M 12.003906 188.828125 L 189.664062 11.167969 L 367.324219 188.828125 L 189.664062 366.488281 Z M 12.003906 188.828125 " clip-rule="nonzero"/></clipPath><clipPath id="cda74e610e"><path d="M 12.003906 188.828125 L 189.664062 11.167969 L 367.324219 188.828125 L 189.664062 366.488281 Z M 12.003906 188.828125 " clip-rule="nonzero"/></clipPath><clipPath id="46a41635dc"><path d="M 115 115 L 260 115 L 260 260 L 115 260 Z M 115 115 " clip-rule="nonzero"/></clipPath><clipPath id="72d5e54009"><path d="M 85.832031 187.496094 L 187.65625 85.675781 L 289.476562 187.496094 L 187.65625 289.320312 Z M 85.832031 187.496094 " clip-rule="nonzero"/></clipPath><clipPath id="70e8ce015d"><path d="M 85.832031 187.496094 L 187.65625 85.675781 L 289.476562 187.496094 L 187.65625 289.320312 Z M 85.832031 187.496094 " clip-rule="nonzero"/></clipPath><clipPath id="d20a67af9c"><path d="M 97 97 L 278 97 L 278 278 L 97 278 Z M 97 97 " clip-rule="nonzero"/></clipPath><clipPath id="25f832fe11"><path d="M 60.261719 187.5 L 187.539062 60.21875 L 314.820312 187.5 L 187.539062 314.777344 Z M 60.261719 187.5 " clip-rule="nonzero"/></clipPath><clipPath id="dc383e99d7"><path d="M 60.261719 187.5 L 187.539062 60.21875 L 314.820312 187.5 L 187.539062 314.777344 Z M 60.261719 187.5 " clip-rule="nonzero"/></clipPath><clipPath id="8427fde59a"><path d="M 84 84 L 295 84 L 295 295 L 84 295 Z M 84 84 " clip-rule="nonzero"/></clipPath><clipPath id="0a9555682d"><path d="M 40.757812 189.222656 L 189.25 40.730469 L 337.742188 189.222656 L 189.25 337.71875 Z M 40.757812 189.222656 " clip-rule="nonzero"/></clipPath><clipPath id="ba9aa7b7ed"><path d="M 40.757812 189.222656 L 189.25 40.730469 L 337.742188 189.222656 L 189.25 337.71875 Z M 40.757812 189.222656 " clip-rule="nonzero"/></clipPath><clipPath id="b1f63adc11"><path d="M 132.257812 128.527344 L 246.257812 128.527344 L 246.257812 250.027344 L 132.257812 250.027344 Z M 132.257812 128.527344 " clip-rule="nonzero"/></clipPath></defs><g clip-path="url(#ed9e3f18b9)"><g clip-path="url(#827c99bc2c)"><g clip-path="url(#466b49006a)"><path fill="#f4f6fc" d="M 294.171875 235.988281 C 344.746094 185.417969 356.476562 110.773438 329.574219 48.875 C 267.671875 21.96875 193.027344 33.703125 142.457031 84.273438 C 91.886719 134.84375 80.152344 209.488281 107.058594 271.390625 C 168.957031 298.292969 243.550781 286.613281 294.171875 235.988281 Z M 167.742188 109.558594 C 195.660156 81.644531 240.972656 81.644531 268.886719 109.558594 C 296.804688 137.476562 296.804688 182.789062 268.886719 210.703125 C 240.972656 238.617188 195.660156 238.617188 167.742188 210.703125 C 139.828125 182.789062 139.828125 137.476562 167.742188 109.558594 Z M 248.660156 190.472656 C 265.398438 173.734375 265.398438 146.527344 248.660156 129.789062 C 231.917969 113.050781 204.710938 113.050781 187.972656 129.789062 C 171.234375 146.527344 171.234375 173.734375 187.972656 190.472656 C 204.710938 207.214844 231.917969 207.214844 248.660156 190.472656 Z M 248.660156 190.472656 " fill-opacity="1" fill-rule="nonzero"/></g></g></g><g clip-path="url(#92b4528f27)"><g clip-path="url(#255a59547a)"><g clip-path="url(#5efc746fd0)"><path fill="#f4f6fc" d="M 80.785156 139.042969 C 30.210938 189.613281 18.480469 264.257812 45.382812 326.15625 C 107.285156 353.0625 181.929688 341.328125 232.5 290.757812 C 283.074219 240.183594 294.804688 165.539062 267.902344 103.640625 C 206 76.738281 131.40625 88.417969 80.785156 139.042969 Z M 207.214844 265.472656 C 179.300781 293.386719 133.988281 293.386719 106.070312 265.472656 C 78.15625 237.554688 78.15625 192.242188 106.070312 164.328125 C 133.988281 136.410156 179.300781 136.410156 207.214844 164.328125 C 235.128906 192.242188 235.128906 237.554688 207.214844 265.472656 Z M 126.300781 184.554688 C 109.558594 201.296875 109.558594 228.503906 126.300781 245.242188 C 143.039062 261.980469 170.246094 261.980469 186.984375 245.242188 C 203.726562 228.503906 203.726562 201.296875 186.984375 184.554688 C 170.246094 167.816406 143.039062 167.816406 126.300781 184.554688 Z M 126.300781 184.554688 " fill-opacity="1" fill-rule="nonzero"/></g></g></g><g clip-path="url(#cdbbb086c1)"><g clip-path="url(#834bf8e8c6)"><g clip-path="url(#7ed6f78d31)"><path fill="#233dff" d="M 288.15625 283.726562 C 226.988281 344.890625 136.292969 374.558594 18.589844 371.90625 L 6.882812 371.636719 L 5.5625 360.007812 C 4.785156 353.132812 -12.320312 190.429688 91.761719 86.347656 C 153.085938 25.023438 243.222656 -2.28125 359.671875 5.1875 L 370.65625 5.894531 L 372.105469 16.804688 C 372.984375 23.402344 392.347656 179.535156 288.15625 283.726562 Z M 31.402344 345.246094 C 135.53125 345.523438 215.488281 318.472656 269.195312 264.765625 C 349.046875 184.910156 348.707031 67.496094 346.46875 31.332031 C 243.652344 26.796875 164.375 51.660156 110.722656 105.308594 C 30.945312 185.089844 29.65625 307.175781 31.402344 345.246094 Z M 31.402344 345.246094 " fill-opacity="1" fill-rule="nonzero"/></g></g></g><g clip-path="url(#7ea9a52027)"><g clip-path="url(#131a6a76b2)"><g clip-path="url(#328d411b1f)"><path fill="#233dff" d="M 127.117188 126.800781 C 93.683594 160.234375 93.683594 214.441406 127.117188 247.875 C 160.550781 281.308594 214.757812 281.308594 248.195312 247.875 C 281.628906 214.441406 281.625 160.234375 248.191406 126.800781 C 214.757812 93.371094 160.554688 93.367188 127.117188 126.800781 Z M 213.0625 212.746094 C 199.03125 226.777344 176.28125 226.78125 162.25 212.746094 C 148.214844 198.714844 148.21875 175.964844 162.25 161.933594 C 176.28125 147.902344 199.027344 147.902344 213.0625 161.933594 C 227.09375 175.96875 227.09375 198.714844 213.0625 212.746094 Z M 213.0625 212.746094 " fill-opacity="1" fill-rule="nonzero"/></g></g></g><g clip-path="url(#ea74375c6f)"><g clip-path="url(#ecf763649a)"><g clip-path="url(#eec0dddeb7)"><path fill="#233dff" d="M 285.910156 281.65625 C 227.152344 340.410156 140.035156 368.910156 26.972656 366.359375 L 15.726562 366.101562 L 14.460938 354.929688 C 13.710938 348.328125 -2.71875 192.042969 97.257812 92.0625 C 156.164062 33.15625 242.746094 6.929688 354.605469 14.105469 L 365.15625 14.78125 L 366.546875 25.265625 C 367.390625 31.601562 385.992188 181.574219 285.910156 281.65625 Z M 39.28125 340.753906 C 139.300781 341.015625 216.105469 315.03125 267.695312 263.441406 C 344.398438 186.738281 344.074219 73.957031 341.921875 39.214844 C 243.160156 34.859375 167.007812 58.742188 115.472656 110.277344 C 38.84375 186.910156 37.605469 304.183594 39.28125 340.753906 Z M 39.28125 340.753906 " fill-opacity="1" fill-rule="nonzero"/></g></g></g><g clip-path="url(#96406291e9)"><g clip-path="url(#9d87f9320c)"><g clip-path="url(#a2d201ed6a)"><path fill="#233dff" d="M 131.222656 130.921875 C 99.105469 163.039062 99.109375 215.105469 131.222656 247.21875 C 163.335938 279.335938 215.40625 279.335938 247.523438 247.222656 C 279.636719 215.105469 279.632812 163.039062 247.519531 130.921875 C 215.40625 98.808594 163.339844 98.804688 131.222656 130.921875 Z M 213.777344 213.476562 C 200.300781 226.957031 178.445312 226.957031 164.964844 213.476562 C 151.488281 200 151.488281 178.144531 164.96875 164.667969 C 178.445312 151.1875 200.296875 151.191406 213.773438 164.667969 C 227.253906 178.148438 227.257812 200 213.777344 213.476562 Z M 213.777344 213.476562 " fill-opacity="1" fill-rule="nonzero"/></g></g></g><g clip-path="url(#6fd93090b9)"><g clip-path="url(#4c8da04401)"><g clip-path="url(#cda74e610e)"><path fill="#233dff" d="M 100.8125 100.019531 C 51.746094 149.085938 51.746094 228.570312 100.8125 277.636719 C 149.882812 326.703125 229.367188 326.703125 278.433594 277.636719 C 327.5 228.570312 327.5 149.085938 278.433594 100.019531 C 229.367188 50.949219 149.882812 50.949219 100.8125 100.019531 Z M 260.671875 259.875 C 221.417969 299.128906 157.832031 299.128906 118.578125 259.875 C 79.324219 220.621094 79.324219 157.035156 118.578125 117.78125 C 157.832031 78.527344 221.417969 78.527344 260.671875 117.78125 C 299.925781 157.035156 299.925781 220.621094 260.671875 259.875 Z M 260.671875 259.875 " fill-opacity="1" fill-rule="nonzero"/></g></g></g><g clip-path="url(#46a41635dc)"><g clip-path="url(#72d5e54009)"><g clip-path="url(#70e8ce015d)"><path fill="#ffffff" d="M 136.664062 136.664062 C 108.589844 164.738281 108.589844 210.253906 136.664062 238.332031 C 164.738281 266.40625 210.253906 266.40625 238.332031 238.332031 C 266.40625 210.253906 266.40625 164.738281 238.332031 136.664062 C 210.253906 108.589844 164.738281 108.589844 136.664062 136.664062 Z M 220.976562 194.683594 L 187.496094 194.683594 C 185.585938 194.683594 183.761719 193.925781 182.414062 192.582031 L 156.996094 167.164062 C 154.191406 164.359375 154.191406 159.804688 156.996094 156.996094 C 159.804688 154.191406 164.359375 154.191406 167.164062 156.996094 L 190.476562 180.308594 L 220.976562 180.308594 C 224.941406 180.308594 228.164062 183.53125 228.164062 187.496094 C 228.164062 191.460938 224.941406 194.683594 220.976562 194.683594 Z M 220.976562 194.683594 " fill-opacity="1" fill-rule="nonzero"/></g></g></g><g clip-path="url(#d20a67af9c)"><g clip-path="url(#25f832fe11)"><g clip-path="url(#dc383e99d7)"><path fill="#050a30" d="M 251.117188 123.878906 C 252.160156 124.921875 253.175781 125.988281 254.164062 127.078125 C 255.152344 128.167969 256.113281 129.285156 257.046875 130.421875 C 257.980469 131.5625 258.886719 132.722656 259.765625 133.902344 C 260.640625 135.085938 261.488281 136.289062 262.308594 137.515625 C 263.125 138.738281 263.914062 139.980469 264.667969 141.246094 C 265.425781 142.507812 266.152344 143.789062 266.847656 145.085938 C 267.539062 146.386719 268.203125 147.699219 268.832031 149.03125 C 269.460938 150.363281 270.058594 151.707031 270.621094 153.070312 C 271.183594 154.429688 271.714844 155.800781 272.210938 157.1875 C 272.707031 158.574219 273.167969 159.972656 273.597656 161.382812 C 274.023438 162.792969 274.414062 164.210938 274.773438 165.636719 C 275.132812 167.066406 275.453125 168.503906 275.742188 169.945312 C 276.027344 171.390625 276.28125 172.839844 276.496094 174.296875 C 276.710938 175.753906 276.890625 177.214844 277.035156 178.679688 C 277.179688 180.144531 277.289062 181.613281 277.363281 183.085938 C 277.433594 184.554688 277.46875 186.027344 277.46875 187.5 C 277.46875 188.972656 277.433594 190.441406 277.363281 191.914062 C 277.289062 193.382812 277.179688 194.851562 277.035156 196.316406 C 276.890625 197.785156 276.710938 199.246094 276.496094 200.699219 C 276.28125 202.15625 276.027344 203.609375 275.742188 205.050781 C 275.453125 206.496094 275.132812 207.933594 274.773438 209.359375 C 274.414062 210.789062 274.023438 212.207031 273.597656 213.617188 C 273.167969 215.023438 272.707031 216.421875 272.210938 217.808594 C 271.714844 219.195312 271.183594 220.570312 270.621094 221.929688 C 270.058594 223.289062 269.460938 224.636719 268.832031 225.964844 C 268.203125 227.296875 267.539062 228.613281 266.847656 229.910156 C 266.152344 231.210938 265.425781 232.492188 264.667969 233.753906 C 263.914062 235.015625 263.125 236.261719 262.308594 237.484375 C 261.488281 238.707031 260.640625 239.910156 259.765625 241.09375 C 258.886719 242.277344 257.980469 243.4375 257.046875 244.574219 C 256.113281 245.714844 255.152344 246.828125 254.164062 247.917969 C 253.175781 249.011719 252.160156 250.078125 251.117188 251.117188 C 250.078125 252.160156 249.011719 253.175781 247.917969 254.164062 C 246.828125 255.152344 245.714844 256.113281 244.574219 257.046875 C 243.4375 257.980469 242.277344 258.886719 241.09375 259.765625 C 239.910156 260.640625 238.707031 261.488281 237.484375 262.308594 C 236.261719 263.125 235.015625 263.914062 233.753906 264.667969 C 232.492188 265.425781 231.210938 266.152344 229.910156 266.847656 C 228.613281 267.539062 227.296875 268.203125 225.964844 268.832031 C 224.636719 269.460938 223.289062 270.058594 221.929688 270.621094 C 220.570312 271.183594 219.195312 271.714844 217.808594 272.210938 C 216.421875 272.707031 215.023438 273.167969 213.617188 273.597656 C 212.207031 274.023438 210.789062 274.414062 209.359375 274.773438 C 207.933594 275.132812 206.496094 275.453125 205.050781 275.742188 C 203.609375 276.027344 202.15625 276.28125 200.699219 276.496094 C 199.246094 276.710938 197.785156 276.890625 196.316406 277.035156 C 194.851562 277.179688 193.382812 277.289062 191.914062 277.363281 C 190.441406 277.433594 188.972656 277.46875 187.5 277.46875 C 186.027344 277.46875 184.554688 277.433594 183.085938 277.363281 C 181.613281 277.289062 180.144531 277.179688 178.679688 277.035156 C 177.214844 276.890625 175.753906 276.710938 174.296875 276.496094 C 172.839844 276.28125 171.390625 276.027344 169.945312 275.742188 C 168.503906 275.453125 167.066406 275.132812 165.636719 274.773438 C 164.210938 274.414062 162.792969 274.023438 161.382812 273.597656 C 159.972656 273.167969 158.574219 272.707031 157.1875 272.210938 C 155.800781 271.714844 154.429688 271.183594 153.070312 270.621094 C 151.707031 270.058594 150.363281 269.460938 149.03125 268.832031 C 147.699219 268.203125 146.386719 267.539062 145.085938 266.847656 C 143.789062 266.152344 142.507812 265.425781 141.246094 264.667969 C 139.980469 263.914062 138.738281 263.125 137.515625 262.308594 C 136.289062 261.488281 135.085938 260.640625 133.902344 259.765625 C 132.722656 258.886719 131.5625 257.980469 130.421875 257.046875 C 129.285156 256.113281 128.167969 255.152344 127.078125 254.164062 C 125.988281 253.175781 124.921875 252.160156 123.878906 251.117188 C 122.839844 250.078125 121.824219 249.011719 120.835938 247.917969 C 119.847656 246.828125 118.886719 245.714844 117.949219 244.574219 C 117.015625 243.4375 116.109375 242.277344 115.234375 241.09375 C 114.355469 239.910156 113.507812 238.707031 112.691406 237.484375 C 111.875 236.261719 111.085938 235.015625 110.328125 233.753906 C 109.570312 232.492188 108.847656 231.210938 108.152344 229.910156 C 107.457031 228.613281 106.796875 227.296875 106.167969 225.964844 C 105.539062 224.636719 104.941406 223.289062 104.378906 221.929688 C 103.8125 220.570312 103.285156 219.195312 102.789062 217.808594 C 102.292969 216.421875 101.832031 215.027344 101.402344 213.617188 C 100.976562 212.207031 100.582031 210.789062 100.226562 209.359375 C 99.867188 207.933594 99.542969 206.496094 99.257812 205.050781 C 98.96875 203.609375 98.71875 202.15625 98.503906 200.699219 C 98.285156 199.246094 98.105469 197.785156 97.960938 196.316406 C 97.816406 194.851562 97.710938 193.382812 97.636719 191.914062 C 97.566406 190.441406 97.527344 188.972656 97.527344 187.5 C 97.527344 186.027344 97.566406 184.554688 97.636719 183.085938 C 97.710938 181.613281 97.816406 180.144531 97.960938 178.679688 C 98.105469 177.214844 98.285156 175.753906 98.503906 174.296875 C 98.71875 172.839844 98.96875 171.390625 99.257812 169.945312 C 99.542969 168.503906 99.867188 167.066406 100.226562 165.636719 C 100.582031 164.210938 100.976562 162.792969 101.402344 161.382812 C 101.832031 159.972656 102.292969 158.574219 102.789062 157.1875 C 103.285156 155.800781 103.8125 154.429688 104.378906 153.070312 C 104.941406 151.707031 105.539062 150.363281 106.167969 149.03125 C 106.796875 147.699219 107.457031 146.386719 108.152344 145.085938 C 108.847656 143.789062 109.570312 142.507812 110.328125 141.246094 C 111.085938 139.980469 111.875 138.738281 112.691406 137.515625 C 113.507812 136.289062 114.355469 135.085938 115.234375 133.902344 C 116.109375 132.722656 117.015625 131.5625 117.949219 130.421875 C 118.886719 129.285156 119.847656 128.167969 120.835938 127.078125 C 121.824219 125.988281 122.839844 124.921875 123.878906 123.878906 C 124.921875 122.839844 125.988281 121.824219 127.078125 120.835938 C 128.167969 119.847656 129.285156 118.886719 130.421875 117.949219 C 131.5625 117.015625 132.722656 116.109375 133.902344 115.234375 C 135.085938 114.355469 136.289062 113.507812 137.515625 112.691406 C 138.738281 111.875 139.980469 111.085938 141.246094 110.328125 C 142.507812 109.570312 143.789062 108.847656 145.085938 108.152344 C 146.386719 107.457031 147.699219 106.796875 149.03125 106.167969 C 150.363281 105.539062 151.707031 104.941406 153.070312 104.378906 C 154.429688 103.8125 155.800781 103.285156 157.1875 102.789062 C 158.574219 102.292969 159.972656 101.828125 161.382812 101.402344 C 162.792969 100.976562 164.210938 100.582031 165.636719 100.226562 C 167.066406 99.867188 168.503906 99.542969 169.945312 99.257812 C 171.390625 98.96875 172.839844 98.71875 174.296875 98.503906 C 175.753906 98.285156 177.214844 98.105469 178.679688 97.960938 C 180.144531 97.816406 181.613281 97.710938 183.085938 97.636719 C 184.554688 97.566406 186.027344 97.527344 187.5 97.527344 C 188.972656 97.527344 190.441406 97.566406 191.914062 97.636719 C 193.382812 97.710938 194.851562 97.816406 196.316406 97.960938 C 197.785156 98.105469 199.246094 98.285156 200.699219 98.503906 C 202.15625 98.71875 203.609375 98.96875 205.050781 99.257812 C 206.496094 99.542969 207.933594 99.867188 209.359375 100.226562 C 210.789062 100.582031 212.207031 100.976562 213.617188 101.402344 C 215.023438 101.832031 216.421875 102.292969 217.808594 102.789062 C 219.195312 103.285156 220.570312 103.8125 221.929688 104.378906 C 223.289062 104.941406 224.636719 105.539062 225.964844 106.167969 C 227.296875 106.796875 228.613281 107.457031 229.910156 108.152344 C 231.210938 108.847656 232.492188 109.570312 233.753906 110.328125 C 235.015625 111.085938 236.261719 111.875 237.484375 112.691406 C 238.707031 113.507812 239.910156 114.355469 241.09375 115.234375 C 242.277344 116.109375 243.4375 117.015625 244.574219 117.949219 C 245.714844 118.886719 246.828125 119.847656 247.917969 120.835938 C 249.011719 121.824219 250.078125 122.839844 251.117188 123.878906 Z M 251.117188 123.878906 " fill-opacity="1" fill-rule="nonzero"/></g></g></g><g clip-path="url(#8427fde59a)"><g clip-path="url(#0a9555682d)"><g clip-path="url(#ba9aa7b7ed)"><path fill="#233dff" d="M 114.992188 114.992188 C 73.976562 156.003906 73.976562 222.445312 114.992188 263.457031 C 156.003906 304.472656 222.445312 304.472656 263.457031 263.457031 C 304.472656 222.445312 304.472656 156.003906 263.457031 114.992188 C 222.445312 73.976562 156.003906 73.976562 114.992188 114.992188 Z M 248.613281 248.613281 C 215.800781 281.421875 162.648438 281.421875 129.835938 248.613281 C 97.027344 215.800781 97.027344 162.648438 129.835938 129.835938 C 162.648438 97.027344 215.800781 97.027344 248.613281 129.835938 C 281.421875 162.648438 281.421875 215.800781 248.613281 248.613281 Z M 248.613281 248.613281 " fill-opacity="1" fill-rule="nonzero"/></g></g></g><g clip-path="url(#b1f63adc11)"><path fill="#f4f6fc" d="M 188.96875 85.628906 C 245.992188 85.628906 292.21875 131.855469 292.21875 188.878906 C 292.21875 245.90625 245.992188 292.132812 188.96875 292.132812 C 131.945312 292.132812 85.71875 245.90625 85.71875 188.878906 C 85.71875 131.855469 131.945312 85.628906 188.96875 85.628906 Z M 198.359375 104.917969 L 198.355469 113.789062 C 198.355469 118.972656 194.152344 123.175781 188.96875 123.175781 C 183.785156 123.175781 179.582031 118.972656 179.582031 113.789062 L 179.585938 104.917969 C 140.425781 109.246094 109.332031 140.339844 105.003906 179.496094 L 113.875 179.496094 C 119.058594 179.496094 123.261719 183.695312 123.261719 188.878906 C 123.261719 194.066406 119.058594 198.265625 113.875 198.265625 L 105.007812 198.273438 C 109.335938 237.429688 140.429688 268.515625 179.585938 272.84375 L 179.582031 263.972656 C 179.582031 258.789062 183.785156 254.585938 188.96875 254.585938 C 194.152344 254.585938 198.355469 258.789062 198.355469 263.972656 L 198.359375 272.84375 C 237.511719 268.511719 268.597656 237.425781 272.929688 198.273438 L 264.058594 198.265625 C 258.875 198.265625 254.671875 194.066406 254.671875 188.878906 C 254.671875 183.695312 258.875 179.496094 264.058594 179.496094 L 272.929688 179.496094 C 268.605469 140.339844 237.515625 109.25 198.359375 104.917969 Z M 232.378906 134.617188 C 236.425781 137.855469 237.082031 143.765625 233.84375 147.8125 L 206.457031 182.039062 C 207.285156 184.160156 207.742188 186.464844 207.742188 188.878906 C 207.742188 199.25 199.335938 207.652344 188.96875 207.652344 C 178.601562 207.652344 170.195312 199.25 170.195312 188.878906 C 170.195312 188.480469 170.207031 188.078125 170.234375 187.683594 L 155.601562 177.917969 C 151.289062 175.042969 150.125 169.214844 153 164.902344 C 155.875 160.585938 161.703125 159.421875 166.015625 162.296875 L 180.644531 172.050781 C 183.152344 170.804688 185.980469 170.109375 188.96875 170.109375 C 189.929688 170.109375 190.875 170.179688 191.800781 170.320312 L 219.183594 136.085938 C 222.421875 132.035156 228.332031 131.378906 232.378906 134.617188 Z M 232.378906 134.617188 " fill-opacity="1" fill-rule="nonzero"/></g></svg>