<svg xmlns="http://www.w3.org/2000/svg" xmlns:xlink="http://www.w3.org/1999/xlink" width="500" zoomAndPan="magnify" viewBox="0 0 375 374.999991" height="500" preserveAspectRatio="xMidYMid meet" version="1.0"><defs><clipPath id="5b4ce7917d"><path d="M 158 162 L 341 162 L 341 344 L 158 344 Z M 158 162 " clip-rule="nonzero"/></clipPath><clipPath id="fc4ba3f2f3"><path d="M 250.265625 405.429688 L 158.519531 313.683594 L 310.195312 162.007812 L 401.941406 253.753906 Z M 250.265625 405.429688 " clip-rule="nonzero"/></clipPath><clipPath id="e9570f79d4"><path d="M 250.265625 405.429688 L 27.527344 182.691406 L 179.203125 31.015625 L 401.941406 253.753906 Z M 250.265625 405.429688 " clip-rule="nonzero"/></clipPath><clipPath id="4a8cb4d04d"><path d="M 34 31 L 217 31 L 217 213 L 34 213 Z M 34 31 " clip-rule="nonzero"/></clipPath><clipPath id="442d863c60"><path d="M 124.691406 -30.480469 L 216.4375 61.265625 L 64.765625 212.941406 L -26.984375 121.191406 Z M 124.691406 -30.480469 " clip-rule="nonzero"/></clipPath><clipPath id="8122827f3a"><path d="M 124.691406 -30.480469 L 347.429688 192.257812 L 195.753906 343.929688 L -26.984375 121.191406 Z M 124.691406 -30.480469 " clip-rule="nonzero"/></clipPath><clipPath id="9e03dab03e"><path d="M 2 4 L 372 4 L 372 375 L 2 375 Z M 2 4 " clip-rule="nonzero"/></clipPath><clipPath id="e1505ebf90"><path d="M 104.085938 -93.058594 L 467.894531 270.75 L 270.613281 468.03125 L -93.195312 104.226562 Z M 104.085938 -93.058594 " clip-rule="nonzero"/></clipPath><clipPath id="e45501a90d"><path d="M 103.691406 -93.453125 L 468.558594 271.414062 L 271.273438 468.695312 L -93.59375 103.828125 Z M 103.691406 -93.453125 " clip-rule="nonzero"/></clipPath><clipPath id="f939c8e3ca"><path d="M 102 102 L 274 102 L 274 274 L 102 274 Z M 102 102 " clip-rule="nonzero"/></clipPath><clipPath id="fc6b88763d"><path d="M 104.085938 -93.058594 L 467.894531 270.75 L 270.613281 468.03125 L -93.195312 104.226562 Z M 104.085938 -93.058594 " clip-rule="nonzero"/></clipPath><clipPath id="9ce098bdf4"><path d="M 103.691406 -93.453125 L 468.558594 271.414062 L 271.273438 468.695312 L -93.59375 103.828125 Z M 103.691406 -93.453125 " clip-rule="nonzero"/></clipPath><clipPath id="def208b07e"><path d="M 8 13 L 363 13 L 363 369 L 8 369 Z M 8 13 " clip-rule="nonzero"/></clipPath><clipPath id="e7d491028f"><path d="M 105.648438 -80.269531 L 455.136719 269.21875 L 265.808594 458.546875 L -83.679688 109.058594 Z M 105.648438 -80.269531 " clip-rule="nonzero"/></clipPath><clipPath id="a0ad049355"><path d="M 105.265625 -80.652344 L 455.816406 269.898438 L 266.488281 459.226562 L -84.0625 108.675781 Z M 105.265625 -80.652344 " clip-rule="nonzero"/></clipPath><clipPath id="57c5f2ff28"><path d="M 103 107 L 269 107 L 269 272 L 103 272 Z M 103 107 " clip-rule="nonzero"/></clipPath><clipPath id="7efaf2b025"><path d="M 105.648438 -80.269531 L 455.136719 269.21875 L 265.808594 458.546875 L -83.679688 109.058594 Z M 105.648438 -80.269531 " clip-rule="nonzero"/></clipPath><clipPath id="2f2b4abd11"><path d="M 105.265625 -80.652344 L 455.816406 269.898438 L 266.488281 459.226562 L -84.0625 108.675781 Z M 105.265625 -80.652344 " clip-rule="nonzero"/></clipPath><clipPath id="d066a91a66"><path d="M 60 64 L 312 64 L 312 316 L 60 316 Z M 60 64 " clip-rule="nonzero"/></clipPath><clipPath id="e9e914b97d"><path d="M 186.171875 12.003906 L 363.832031 189.664062 L 186.171875 367.324219 L 8.511719 189.664062 Z M 186.171875 12.003906 " clip-rule="nonzero"/></clipPath><clipPath id="30f80ebf2b"><path d="M 186.171875 12.003906 L 363.832031 189.664062 L 186.171875 367.324219 L 8.511719 189.664062 Z M 186.171875 12.003906 " clip-rule="nonzero"/></clipPath><clipPath id="97c3f69d83"><path d="M 115 115 L 260 115 L 260 260 L 115 260 Z M 115 115 " clip-rule="nonzero"/></clipPath><clipPath id="b759c00119"><path d="M 187.496094 85.832031 L 289.320312 187.65625 L 187.496094 289.476562 L 85.675781 187.65625 Z M 187.496094 85.832031 " clip-rule="nonzero"/></clipPath><clipPath id="ebf79b5f56"><path d="M 187.496094 85.832031 L 289.320312 187.65625 L 187.496094 289.476562 L 85.675781 187.65625 Z M 187.496094 85.832031 " clip-rule="nonzero"/></clipPath><clipPath id="08be0d6a72"><path d="M 97 97 L 278 97 L 278 278 L 97 278 Z M 97 97 " clip-rule="nonzero"/></clipPath><clipPath id="8120bdc1d3"><path d="M 187.5 60.261719 L 314.777344 187.539062 L 187.5 314.820312 L 60.21875 187.539062 Z M 187.5 60.261719 " clip-rule="nonzero"/></clipPath><clipPath id="e8c6ce5544"><path d="M 187.5 60.261719 L 314.777344 187.539062 L 187.5 314.820312 L 60.21875 187.539062 Z M 187.5 60.261719 " clip-rule="nonzero"/></clipPath><clipPath id="a7badea615"><path d="M 80 84 L 291 84 L 291 295 L 80 295 Z M 80 84 " clip-rule="nonzero"/></clipPath><clipPath id="3cd201e5ff"><path d="M 185.773438 40.757812 L 334.265625 189.25 L 185.773438 337.742188 L 37.28125 189.25 Z M 185.773438 40.757812 " clip-rule="nonzero"/></clipPath><clipPath id="215cebc6ba"><path d="M 185.773438 40.757812 L 334.265625 189.25 L 185.773438 337.742188 L 37.28125 189.25 Z M 185.773438 40.757812 " clip-rule="nonzero"/></clipPath><clipPath id="14d0d56836"><path d="M 128.808594 128.488281 L 242.808594 128.488281 L 242.808594 249.988281 L 128.808594 249.988281 Z M 128.808594 128.488281 " clip-rule="nonzero"/></clipPath></defs><g clip-path="url(#5b4ce7917d)"><g clip-path="url(#fc4ba3f2f3)"><g clip-path="url(#e9570f79d4)"><path fill="#f4f6fc" d="M 139.003906 294.167969 C 189.578125 344.738281 264.222656 356.472656 326.121094 329.570312 C 353.023438 267.667969 341.292969 193.023438 290.71875 142.453125 C 240.148438 91.878906 165.503906 80.148438 103.605469 107.050781 C 76.699219 168.953125 88.382812 243.546875 139.003906 294.167969 Z M 265.433594 167.738281 C 293.351562 195.652344 293.351562 240.964844 265.433594 268.882812 C 237.519531 296.796875 192.207031 296.796875 164.289062 268.882812 C 136.375 240.964844 136.375 195.652344 164.289062 167.738281 C 192.207031 139.824219 237.519531 139.824219 265.433594 167.738281 Z M 184.519531 248.652344 C 201.257812 265.394531 228.464844 265.394531 245.207031 248.652344 C 261.945312 231.914062 261.945312 204.707031 245.207031 187.96875 C 228.464844 171.226562 201.257812 171.226562 184.519531 187.96875 C 167.78125 204.707031 167.78125 231.914062 184.519531 248.652344 Z M 184.519531 248.652344 " fill-opacity="1" fill-rule="nonzero"/></g></g></g><g clip-path="url(#4a8cb4d04d)"><g clip-path="url(#442d863c60)"><g clip-path="url(#8122827f3a)"><path fill="#f4f6fc" d="M 235.953125 80.78125 C 185.382812 30.207031 110.738281 18.476562 48.835938 45.378906 C 21.933594 107.28125 33.664062 181.921875 84.238281 232.496094 C 134.808594 283.066406 209.453125 294.800781 271.351562 267.894531 C 298.257812 205.996094 286.574219 131.402344 235.953125 80.78125 Z M 109.523438 207.210938 C 81.609375 179.292969 81.609375 133.980469 109.523438 106.066406 C 137.4375 78.148438 182.75 78.148438 210.667969 106.066406 C 238.582031 133.980469 238.582031 179.292969 210.667969 207.210938 C 182.75 235.125 137.4375 235.125 109.523438 207.210938 Z M 190.4375 126.292969 C 173.699219 109.554688 146.492188 109.554688 129.753906 126.292969 C 113.011719 143.035156 113.011719 170.242188 129.753906 186.980469 C 146.492188 203.71875 173.699219 203.71875 190.4375 186.980469 C 207.175781 170.242188 207.175781 143.035156 190.4375 126.292969 Z M 190.4375 126.292969 " fill-opacity="1" fill-rule="nonzero"/></g></g></g><g clip-path="url(#9e03dab03e)"><g clip-path="url(#e1505ebf90)"><g clip-path="url(#e45501a90d)"><path fill="#233dff" d="M 91.269531 288.152344 C 30.101562 226.984375 0.433594 136.289062 3.089844 18.585938 L 3.355469 6.878906 L 14.984375 5.5625 C 21.863281 4.78125 184.5625 -12.324219 288.648438 91.757812 C 349.972656 153.082031 377.273438 243.21875 369.804688 359.667969 L 369.101562 370.65625 L 358.1875 372.101562 C 351.589844 372.980469 195.460938 392.34375 91.269531 288.152344 Z M 29.746094 31.398438 C 29.472656 135.527344 56.523438 215.484375 110.230469 269.191406 C 190.082031 349.042969 307.496094 348.703125 343.664062 346.464844 C 348.199219 243.648438 323.335938 164.371094 269.683594 110.71875 C 189.90625 30.941406 67.820312 29.652344 29.746094 31.398438 Z M 29.746094 31.398438 " fill-opacity="1" fill-rule="nonzero"/></g></g></g><g clip-path="url(#f939c8e3ca)"><g clip-path="url(#fc6b88763d)"><g clip-path="url(#9ce098bdf4)"><path fill="#233dff" d="M 248.195312 127.117188 C 214.757812 93.679688 160.554688 93.683594 127.121094 127.117188 C 93.6875 160.550781 93.683594 214.753906 127.117188 248.191406 C 160.554688 281.625 214.757812 281.621094 248.191406 248.1875 C 281.625 214.753906 281.628906 160.550781 248.195312 127.117188 Z M 162.25 213.058594 C 148.214844 199.027344 148.214844 176.277344 162.25 162.246094 C 176.28125 148.214844 199.03125 148.214844 213.0625 162.246094 C 227.09375 176.277344 227.09375 199.027344 213.0625 213.058594 C 199.027344 227.089844 176.28125 227.09375 162.25 213.058594 Z M 162.25 213.058594 " fill-opacity="1" fill-rule="nonzero"/></g></g></g><g clip-path="url(#def208b07e)"><g clip-path="url(#e7d491028f)"><g clip-path="url(#a0ad049355)"><path fill="#233dff" d="M 93.335938 285.90625 C 34.582031 227.152344 6.082031 140.03125 8.632812 26.972656 L 8.886719 15.726562 L 20.058594 14.460938 C 26.664062 13.710938 182.949219 -2.71875 282.929688 97.257812 C 341.832031 156.164062 368.058594 242.746094 360.886719 354.605469 L 360.207031 365.15625 L 349.726562 366.546875 C 343.390625 367.390625 193.417969 385.988281 93.335938 285.90625 Z M 34.238281 39.28125 C 33.972656 139.300781 59.957031 216.105469 111.546875 267.695312 C 188.25 344.398438 301.035156 344.070312 335.773438 341.921875 C 340.128906 243.15625 316.246094 167.007812 264.714844 115.472656 C 188.082031 38.839844 70.808594 37.601562 34.238281 39.28125 Z M 34.238281 39.28125 " fill-opacity="1" fill-rule="nonzero"/></g></g></g><g clip-path="url(#57c5f2ff28)"><g clip-path="url(#7efaf2b025)"><g clip-path="url(#2f2b4abd11)"><path fill="#233dff" d="M 244.070312 131.222656 C 211.953125 99.105469 159.886719 99.105469 127.769531 131.222656 C 95.65625 163.335938 95.652344 215.40625 127.769531 247.519531 C 159.886719 279.636719 211.953125 279.632812 244.070312 247.519531 C 276.183594 215.40625 276.1875 163.335938 244.070312 131.222656 Z M 161.515625 213.777344 C 148.035156 200.296875 148.035156 178.445312 161.515625 164.964844 C 174.992188 151.488281 196.847656 151.488281 210.324219 164.96875 C 223.800781 178.445312 223.800781 200.296875 210.324219 213.773438 C 196.84375 227.253906 174.992188 227.253906 161.515625 213.777344 Z M 161.515625 213.777344 " fill-opacity="1" fill-rule="nonzero"/></g></g></g><g clip-path="url(#d066a91a66)"><g clip-path="url(#e9e914b97d)"><g clip-path="url(#30f80ebf2b)"><path fill="#233dff" d="M 274.980469 100.8125 C 225.914062 51.746094 146.429688 51.746094 97.363281 100.8125 C 48.292969 149.882812 48.292969 229.367188 97.363281 278.433594 C 146.429688 327.5 225.914062 327.5 274.980469 278.433594 C 324.046875 229.367188 324.046875 149.882812 274.980469 100.8125 Z M 115.125 260.671875 C 75.871094 221.417969 75.871094 157.832031 115.125 118.578125 C 154.378906 79.324219 217.964844 79.324219 257.21875 118.578125 C 296.472656 157.832031 296.472656 221.417969 257.21875 260.671875 C 217.964844 299.925781 154.378906 299.925781 115.125 260.671875 Z M 115.125 260.671875 " fill-opacity="1" fill-rule="nonzero"/></g></g></g><g clip-path="url(#97c3f69d83)"><g clip-path="url(#b759c00119)"><g clip-path="url(#ebf79b5f56)"><path fill="#ffffff" d="M 238.332031 136.664062 C 210.253906 108.589844 164.738281 108.589844 136.664062 136.664062 C 108.589844 164.738281 108.589844 210.253906 136.664062 238.332031 C 164.738281 266.40625 210.253906 266.40625 238.332031 238.332031 C 266.40625 210.253906 266.40625 164.738281 238.332031 136.664062 Z M 180.308594 220.976562 L 180.308594 187.496094 C 180.308594 185.585938 181.066406 183.761719 182.414062 182.414062 L 207.832031 156.996094 C 210.636719 154.191406 215.191406 154.191406 217.996094 156.996094 C 220.804688 159.804688 220.804688 164.359375 217.996094 167.164062 L 194.683594 190.476562 L 194.683594 220.976562 C 194.683594 224.941406 191.460938 228.164062 187.496094 228.164062 C 183.53125 228.164062 180.308594 224.941406 180.308594 220.976562 Z M 180.308594 220.976562 " fill-opacity="1" fill-rule="nonzero"/></g></g></g><g clip-path="url(#08be0d6a72)"><g clip-path="url(#8120bdc1d3)"><g clip-path="url(#e8c6ce5544)"><path fill="#050a30" d="M 251.117188 251.117188 C 250.078125 252.160156 249.011719 253.175781 247.917969 254.164062 C 246.828125 255.152344 245.714844 256.113281 244.574219 257.046875 C 243.4375 257.980469 242.277344 258.886719 241.09375 259.765625 C 239.910156 260.640625 238.707031 261.488281 237.484375 262.308594 C 236.261719 263.125 235.015625 263.914062 233.753906 264.667969 C 232.492188 265.425781 231.210938 266.152344 229.910156 266.847656 C 228.613281 267.539062 227.296875 268.203125 225.964844 268.832031 C 224.636719 269.460938 223.289062 270.058594 221.929688 270.621094 C 220.570312 271.183594 219.195312 271.714844 217.808594 272.210938 C 216.421875 272.707031 215.027344 273.167969 213.617188 273.597656 C 212.207031 274.023438 210.789062 274.414062 209.359375 274.773438 C 207.933594 275.132812 206.496094 275.453125 205.050781 275.742188 C 203.609375 276.027344 202.15625 276.28125 200.699219 276.496094 C 199.246094 276.710938 197.785156 276.890625 196.316406 277.035156 C 194.851562 277.179688 193.382812 277.289062 191.914062 277.363281 C 190.441406 277.433594 188.972656 277.46875 187.5 277.46875 C 186.027344 277.46875 184.554688 277.433594 183.085938 277.363281 C 181.613281 277.289062 180.144531 277.179688 178.679688 277.035156 C 177.214844 276.890625 175.753906 276.710938 174.296875 276.496094 C 172.839844 276.28125 171.390625 276.027344 169.945312 275.742188 C 168.503906 275.453125 167.066406 275.132812 165.636719 274.773438 C 164.210938 274.414062 162.792969 274.023438 161.382812 273.597656 C 159.972656 273.167969 158.574219 272.707031 157.1875 272.210938 C 155.800781 271.714844 154.429688 271.183594 153.070312 270.621094 C 151.707031 270.058594 150.363281 269.460938 149.03125 268.832031 C 147.699219 268.203125 146.386719 267.539062 145.085938 266.847656 C 143.789062 266.152344 142.507812 265.425781 141.246094 264.667969 C 139.980469 263.914062 138.738281 263.125 137.515625 262.308594 C 136.289062 261.488281 135.085938 260.640625 133.902344 259.765625 C 132.722656 258.886719 131.5625 257.980469 130.421875 257.046875 C 129.285156 256.113281 128.167969 255.152344 127.078125 254.164062 C 125.988281 253.175781 124.921875 252.160156 123.878906 251.117188 C 122.839844 250.078125 121.824219 249.011719 120.835938 247.917969 C 119.847656 246.828125 118.886719 245.714844 117.949219 244.574219 C 117.015625 243.4375 116.109375 242.277344 115.234375 241.09375 C 114.355469 239.910156 113.507812 238.707031 112.691406 237.484375 C 111.875 236.261719 111.085938 235.015625 110.328125 233.753906 C 109.570312 232.492188 108.847656 231.210938 108.152344 229.910156 C 107.457031 228.613281 106.796875 227.296875 106.167969 225.964844 C 105.539062 224.636719 104.941406 223.289062 104.378906 221.929688 C 103.8125 220.570312 103.285156 219.195312 102.789062 217.808594 C 102.292969 216.421875 101.832031 215.023438 101.402344 213.617188 C 100.976562 212.207031 100.582031 210.789062 100.226562 209.359375 C 99.867188 207.933594 99.542969 206.496094 99.257812 205.050781 C 98.96875 203.609375 98.71875 202.15625 98.503906 200.699219 C 98.285156 199.246094 98.105469 197.785156 97.960938 196.316406 C 97.816406 194.851562 97.710938 193.382812 97.636719 191.914062 C 97.566406 190.441406 97.527344 188.972656 97.527344 187.5 C 97.527344 186.027344 97.566406 184.554688 97.636719 183.085938 C 97.710938 181.613281 97.816406 180.144531 97.960938 178.679688 C 98.105469 177.214844 98.285156 175.753906 98.503906 174.296875 C 98.71875 172.839844 98.96875 171.390625 99.257812 169.945312 C 99.542969 168.503906 99.867188 167.066406 100.226562 165.636719 C 100.582031 164.210938 100.976562 162.792969 101.402344 161.382812 C 101.832031 159.972656 102.292969 158.574219 102.789062 157.1875 C 103.285156 155.800781 103.8125 154.429688 104.378906 153.070312 C 104.941406 151.707031 105.539062 150.363281 106.167969 149.03125 C 106.796875 147.699219 107.457031 146.386719 108.152344 145.085938 C 108.847656 143.789062 109.570312 142.507812 110.328125 141.246094 C 111.085938 139.980469 111.875 138.738281 112.691406 137.515625 C 113.507812 136.289062 114.355469 135.085938 115.234375 133.902344 C 116.109375 132.722656 117.015625 131.5625 117.949219 130.421875 C 118.886719 129.285156 119.847656 128.167969 120.835938 127.078125 C 121.824219 125.988281 122.839844 124.921875 123.878906 123.878906 C 124.921875 122.839844 125.988281 121.824219 127.078125 120.835938 C 128.167969 119.847656 129.285156 118.886719 130.421875 117.949219 C 131.5625 117.015625 132.722656 116.109375 133.902344 115.234375 C 135.085938 114.355469 136.289062 113.507812 137.515625 112.691406 C 138.738281 111.875 139.980469 111.085938 141.246094 110.328125 C 142.507812 109.570312 143.789062 108.847656 145.085938 108.152344 C 146.386719 107.457031 147.699219 106.796875 149.03125 106.167969 C 150.363281 105.539062 151.707031 104.941406 153.070312 104.378906 C 154.429688 103.8125 155.800781 103.285156 157.1875 102.789062 C 158.574219 102.292969 159.972656 101.832031 161.382812 101.402344 C 162.792969 100.976562 164.210938 100.582031 165.636719 100.226562 C 167.066406 99.867188 168.503906 99.542969 169.945312 99.257812 C 171.390625 98.96875 172.839844 98.71875 174.296875 98.503906 C 175.753906 98.285156 177.214844 98.105469 178.679688 97.960938 C 180.144531 97.816406 181.613281 97.710938 183.085938 97.636719 C 184.554688 97.566406 186.027344 97.527344 187.5 97.527344 C 188.972656 97.527344 190.441406 97.566406 191.914062 97.636719 C 193.382812 97.710938 194.851562 97.816406 196.316406 97.960938 C 197.785156 98.105469 199.246094 98.285156 200.699219 98.503906 C 202.15625 98.71875 203.609375 98.96875 205.050781 99.257812 C 206.496094 99.542969 207.933594 99.867188 209.359375 100.226562 C 210.789062 100.582031 212.207031 100.976562 213.617188 101.402344 C 215.027344 101.832031 216.421875 102.292969 217.808594 102.789062 C 219.195312 103.285156 220.570312 103.8125 221.929688 104.378906 C 223.289062 104.941406 224.636719 105.539062 225.964844 106.167969 C 227.296875 106.796875 228.613281 107.457031 229.910156 108.152344 C 231.210938 108.847656 232.492188 109.570312 233.753906 110.328125 C 235.015625 111.085938 236.261719 111.875 237.484375 112.691406 C 238.707031 113.507812 239.910156 114.355469 241.09375 115.234375 C 242.277344 116.109375 243.4375 117.015625 244.574219 117.949219 C 245.714844 118.886719 246.828125 119.847656 247.917969 120.835938 C 249.011719 121.824219 250.078125 122.839844 251.117188 123.878906 C 252.160156 124.921875 253.175781 125.988281 254.164062 127.078125 C 255.152344 128.167969 256.113281 129.285156 257.046875 130.421875 C 257.980469 131.5625 258.886719 132.722656 259.765625 133.902344 C 260.640625 135.085938 261.488281 136.289062 262.308594 137.515625 C 263.125 138.738281 263.914062 139.980469 264.667969 141.246094 C 265.425781 142.507812 266.152344 143.789062 266.847656 145.085938 C 267.539062 146.386719 268.203125 147.699219 268.832031 149.03125 C 269.460938 150.363281 270.058594 151.707031 270.621094 153.070312 C 271.183594 154.429688 271.714844 155.800781 272.210938 157.1875 C 272.707031 158.574219 273.167969 159.972656 273.597656 161.382812 C 274.023438 162.792969 274.414062 164.210938 274.773438 165.636719 C 275.132812 167.066406 275.453125 168.503906 275.742188 169.945312 C 276.027344 171.390625 276.28125 172.839844 276.496094 174.296875 C 276.710938 175.753906 276.890625 177.214844 277.035156 178.679688 C 277.179688 180.144531 277.289062 181.613281 277.363281 183.085938 C 277.433594 184.554688 277.46875 186.027344 277.46875 187.5 C 277.46875 188.972656 277.433594 190.441406 277.363281 191.914062 C 277.289062 193.382812 277.179688 194.851562 277.035156 196.316406 C 276.890625 197.785156 276.710938 199.246094 276.496094 200.699219 C 276.28125 202.15625 276.027344 203.609375 275.742188 205.050781 C 275.453125 206.496094 275.132812 207.933594 274.773438 209.359375 C 274.414062 210.789062 274.023438 212.207031 273.597656 213.617188 C 273.167969 215.023438 272.707031 216.421875 272.210938 217.808594 C 271.714844 219.195312 271.183594 220.570312 270.621094 221.929688 C 270.058594 223.289062 269.460938 224.636719 268.832031 225.964844 C 268.203125 227.296875 267.539062 228.613281 266.847656 229.910156 C 266.152344 231.210938 265.425781 232.492188 264.667969 233.753906 C 263.914062 235.015625 263.125 236.261719 262.308594 237.484375 C 261.488281 238.707031 260.640625 239.910156 259.765625 241.09375 C 258.886719 242.277344 257.980469 243.4375 257.046875 244.574219 C 256.113281 245.714844 255.152344 246.828125 254.164062 247.917969 C 253.175781 249.011719 252.160156 250.078125 251.117188 251.117188 Z M 251.117188 251.117188 " fill-opacity="1" fill-rule="nonzero"/></g></g></g><g clip-path="url(#a7badea615)"><g clip-path="url(#3cd201e5ff)"><g clip-path="url(#215cebc6ba)"><path fill="#233dff" d="M 260.003906 114.992188 C 218.992188 73.976562 152.550781 73.976562 111.539062 114.992188 C 70.523438 156.003906 70.523438 222.445312 111.539062 263.457031 C 152.550781 304.472656 218.992188 304.472656 260.003906 263.457031 C 301.019531 222.445312 301.019531 156.003906 260.003906 114.992188 Z M 126.386719 248.613281 C 93.574219 215.800781 93.574219 162.648438 126.386719 129.835938 C 159.195312 97.027344 212.347656 97.027344 245.160156 129.835938 C 277.96875 162.648438 277.96875 215.800781 245.160156 248.613281 C 212.347656 281.421875 159.195312 281.421875 126.386719 248.613281 Z M 126.386719 248.613281 " fill-opacity="1" fill-rule="nonzero"/></g></g></g><g clip-path="url(#14d0d56836)"><path fill="#f4f6fc" d="M 185.515625 85.589844 C 242.539062 85.589844 288.765625 131.816406 288.765625 188.839844 C 288.765625 245.863281 242.539062 292.089844 185.515625 292.089844 C 128.492188 292.089844 82.265625 245.863281 82.265625 188.839844 C 82.265625 131.816406 128.492188 85.589844 185.515625 85.589844 Z M 194.910156 104.878906 L 194.902344 113.746094 C 194.902344 118.933594 190.699219 123.132812 185.515625 123.132812 C 180.332031 123.132812 176.128906 118.933594 176.128906 113.746094 L 176.132812 104.875 C 136.972656 109.203125 105.878906 140.296875 101.554688 179.457031 L 110.425781 179.453125 C 115.609375 179.453125 119.808594 183.65625 119.808594 188.839844 C 119.808594 194.023438 115.609375 198.226562 110.425781 198.226562 L 101.554688 198.234375 C 105.886719 237.386719 136.976562 268.476562 176.132812 272.800781 L 176.128906 263.929688 C 176.128906 258.746094 180.332031 254.546875 185.515625 254.546875 C 190.699219 254.546875 194.902344 258.746094 194.902344 263.929688 L 194.910156 272.800781 C 234.058594 268.46875 265.148438 237.382812 269.476562 198.234375 L 260.609375 198.226562 C 255.425781 198.226562 251.222656 194.023438 251.222656 188.839844 C 251.222656 183.65625 255.425781 179.453125 260.609375 179.453125 L 269.480469 179.457031 C 265.152344 140.300781 234.0625 109.207031 194.910156 104.878906 Z M 228.925781 134.578125 C 232.972656 137.816406 233.628906 143.722656 230.390625 147.769531 L 203.003906 182 C 203.832031 184.117188 204.289062 186.425781 204.289062 188.839844 C 204.289062 199.207031 195.882812 207.613281 185.515625 207.613281 C 175.148438 207.613281 166.742188 199.207031 166.742188 188.839844 C 166.742188 188.4375 166.753906 188.039062 166.78125 187.640625 L 152.148438 177.875 C 147.835938 175 146.671875 169.171875 149.546875 164.859375 C 152.421875 160.546875 158.25 159.382812 162.5625 162.257812 L 177.191406 172.007812 C 179.699219 170.765625 182.527344 170.066406 185.515625 170.066406 C 186.476562 170.066406 187.421875 170.140625 188.347656 170.277344 L 215.730469 136.042969 C 218.96875 131.996094 224.878906 131.339844 228.925781 134.578125 Z M 228.925781 134.578125 " fill-opacity="1" fill-rule="nonzero"/></g></svg>