<svg xmlns="http://www.w3.org/2000/svg" xmlns:xlink="http://www.w3.org/1999/xlink" width="500" zoomAndPan="magnify" viewBox="0 0 375 374.999991" height="500" preserveAspectRatio="xMidYMid meet" version="1.0"><defs><clipPath id="e2e678bba0"><path d="M 17 17 L 358 17 L 358 358 L 17 358 Z M 17 17 " clip-rule="nonzero"/></clipPath><clipPath id="7fa57b9c0b"><path d="M -89.746094 244.785156 L 244.890625 -89.851562 L 464.976562 130.234375 L 130.339844 464.871094 Z M -89.746094 244.785156 " clip-rule="nonzero"/></clipPath><clipPath id="5c0ee189ce"><path d="M -89.746094 244.785156 L 244.890625 -89.851562 L 464.976562 130.234375 L 130.339844 464.871094 Z M -89.746094 244.785156 " clip-rule="nonzero"/></clipPath><clipPath id="55a46aa57f"><path d="M 13 12 L 362 12 L 362 362 L 13 362 Z M 13 12 " clip-rule="nonzero"/></clipPath><clipPath id="79c74de3e4"><path d="M -89.746094 244.785156 L 244.890625 -89.851562 L 464.976562 130.234375 L 130.339844 464.871094 Z M -89.746094 244.785156 " clip-rule="nonzero"/></clipPath><clipPath id="bab2b280b3"><path d="M -89.746094 244.785156 L 244.890625 -89.851562 L 464.976562 130.234375 L 130.339844 464.871094 Z M -89.746094 244.785156 " clip-rule="nonzero"/></clipPath><clipPath id="b85f06cf14"><path d="M 70 70 L 305 70 L 305 305 L 70 305 Z M 70 70 " clip-rule="nonzero"/></clipPath><clipPath id="a5ed7f3b32"><path d="M -89.746094 244.785156 L 244.890625 -89.851562 L 464.976562 130.234375 L 130.339844 464.871094 Z M -89.746094 244.785156 " clip-rule="nonzero"/></clipPath><clipPath id="35ad0824af"><path d="M -89.746094 244.785156 L 244.890625 -89.851562 L 464.976562 130.234375 L 130.339844 464.871094 Z M -89.746094 244.785156 " clip-rule="nonzero"/></clipPath><clipPath id="e6c2758835"><path d="M 66 66 L 309 66 L 309 309 L 66 309 Z M 66 66 " clip-rule="nonzero"/></clipPath><clipPath id="290b88155e"><path d="M -89.746094 244.785156 L 244.890625 -89.851562 L 464.976562 130.234375 L 130.339844 464.871094 Z M -89.746094 244.785156 " clip-rule="nonzero"/></clipPath><clipPath id="762530cdf1"><path d="M -89.746094 244.785156 L 244.890625 -89.851562 L 464.976562 130.234375 L 130.339844 464.871094 Z M -89.746094 244.785156 " clip-rule="nonzero"/></clipPath><clipPath id="66bf3bfb7d"><path d="M 131 131 L 244 131 L 244 244 L 131 244 Z M 131 131 " clip-rule="nonzero"/></clipPath><clipPath id="4b43e2609c"><path d="M -89.746094 244.785156 L 244.890625 -89.851562 L 464.976562 130.234375 L 130.339844 464.871094 Z M -89.746094 244.785156 " clip-rule="nonzero"/></clipPath><clipPath id="04a5707e65"><path d="M -89.746094 244.785156 L 244.890625 -89.851562 L 464.976562 130.234375 L 130.339844 464.871094 Z M -89.746094 244.785156 " clip-rule="nonzero"/></clipPath><clipPath id="8b17f89b15"><path d="M 163 111 L 238 111 L 238 186 L 163 186 Z M 163 111 " clip-rule="nonzero"/></clipPath><clipPath id="d0b2424f6b"><path d="M -89.746094 244.785156 L 244.890625 -89.851562 L 464.976562 130.234375 L 130.339844 464.871094 Z M -89.746094 244.785156 " clip-rule="nonzero"/></clipPath><clipPath id="5aa21f6ebd"><path d="M -89.746094 244.785156 L 244.890625 -89.851562 L 464.976562 130.234375 L 130.339844 464.871094 Z M -89.746094 244.785156 " clip-rule="nonzero"/></clipPath><clipPath id="26862ab39d"><path d="M 35 35 L 340 35 L 340 340 L 35 340 Z M 35 35 " clip-rule="nonzero"/></clipPath><clipPath id="46f6726947"><path d="M -27.003906 187.496094 L 187.25 -26.757812 L 401.5 187.496094 L 187.25 401.75 Z M -27.003906 187.496094 " clip-rule="nonzero"/></clipPath><clipPath id="235fb29850"><path d="M -27.003906 187.496094 L 187.25 -26.757812 L 401.5 187.496094 L 187.25 401.75 Z M -27.003906 187.496094 " clip-rule="nonzero"/></clipPath><clipPath id="31cb1f857d"><path d="M 45.117188 45.117188 L 330 45.117188 L 330 330 L 45.117188 330 Z M 45.117188 45.117188 " clip-rule="nonzero"/></clipPath></defs><g clip-path="url(#e2e678bba0)"><g clip-path="url(#7fa57b9c0b)"><g clip-path="url(#5c0ee189ce)"><path fill="#233dff" d="M 351.335938 23.566406 C 351.335938 23.566406 384.722656 203.648438 294.230469 294.136719 C 203.742188 384.625 23.65625 351.246094 23.65625 351.246094 C 23.65625 351.246094 -9.722656 171.160156 80.765625 80.671875 C 171.257812 -9.816406 351.335938 23.566406 351.335938 23.566406 " fill-opacity="1" fill-rule="nonzero"/></g></g></g><g clip-path="url(#55a46aa57f)"><g clip-path="url(#79c74de3e4)"><g clip-path="url(#bab2b280b3)"><path fill="#050a30" d="M 351.335938 23.566406 L 346.851562 24.398438 L 346.871094 24.507812 C 347.332031 27.023438 355.261719 72.078125 352.019531 127.296875 C 350.402344 154.90625 345.988281 185.046875 336.542969 213.644531 C 327.097656 242.25 312.644531 269.277344 291.007812 290.914062 C 269.027344 312.898438 241.480469 327.464844 212.375 336.898438 C 168.722656 351.054688 121.644531 353.574219 85.546875 352.476562 C 67.496094 351.933594 52.1875 350.5 41.417969 349.203125 C 36.027344 348.554688 31.777344 347.945312 28.878906 347.492188 C 27.433594 347.269531 26.324219 347.085938 25.582031 346.957031 C 25.210938 346.894531 24.929688 346.84375 24.746094 346.8125 L 24.546875 346.777344 L 24.484375 346.765625 L 23.65625 351.246094 L 28.136719 350.414062 L 28.117188 350.304688 C 27.65625 347.785156 19.730469 302.730469 22.972656 247.507812 C 24.589844 219.898438 29 189.765625 38.445312 161.164062 C 47.890625 132.558594 62.34375 105.53125 83.988281 83.894531 C 105.960938 61.914062 133.507812 47.34375 162.621094 37.910156 C 206.273438 23.75 253.347656 21.238281 289.449219 22.332031 C 307.5 22.875 322.800781 24.308594 333.574219 25.605469 C 338.960938 26.253906 343.214844 26.871094 346.109375 27.320312 C 347.554688 27.542969 348.664062 27.730469 349.40625 27.855469 C 349.777344 27.917969 350.058594 27.964844 350.242188 28 L 350.445312 28.039062 L 350.5 28.050781 L 351.335938 23.566406 L 346.851562 24.398438 L 351.335938 23.566406 L 352.164062 19.085938 C 351.945312 19.050781 306.640625 10.644531 249.742188 13.632812 C 221.289062 15.132812 189.925781 19.480469 159.8125 29.238281 C 129.707031 38.996094 100.804688 54.1875 77.542969 77.449219 C 54.277344 100.714844 39.089844 129.613281 29.332031 159.71875 C 14.703125 204.890625 12.214844 252.875 13.308594 289.628906 C 14.417969 326.382812 19.144531 351.910156 19.175781 352.074219 C 19.519531 353.929688 20.972656 355.382812 22.828125 355.722656 C 23.046875 355.761719 68.347656 364.164062 125.246094 361.175781 C 153.703125 359.671875 185.066406 355.324219 215.183594 345.570312 C 245.285156 335.808594 274.183594 320.621094 297.453125 297.359375 C 320.710938 274.09375 335.902344 245.191406 345.664062 215.089844 C 360.289062 169.914062 362.777344 121.933594 361.683594 85.179688 C 360.570312 48.425781 355.84375 22.898438 355.8125 22.738281 C 355.472656 20.886719 354.019531 19.433594 352.164062 19.085938 L 351.335938 23.566406 " fill-opacity="1" fill-rule="nonzero"/></g></g></g><g clip-path="url(#b85f06cf14)"><g clip-path="url(#a5ed7f3b32)"><g clip-path="url(#35ad0824af)"><path fill="#233dff" d="M 269.976562 104.925781 C 315.527344 150.480469 315.535156 224.335938 269.984375 269.890625 C 224.425781 315.445312 150.570312 315.441406 105.015625 269.886719 C 59.46875 224.335938 59.457031 150.476562 105.011719 104.921875 C 150.566406 59.367188 224.425781 59.378906 269.976562 104.925781 " fill-opacity="1" fill-rule="nonzero"/></g></g></g><g clip-path="url(#e6c2758835)"><g clip-path="url(#290b88155e)"><g clip-path="url(#762530cdf1)"><path fill="#050a30" d="M 269.976562 104.925781 L 266.753906 108.148438 C 288.644531 130.046875 299.578125 158.707031 299.585938 187.414062 C 299.582031 216.109375 288.652344 244.769531 266.761719 266.667969 C 244.859375 288.5625 216.199219 299.492188 187.5 299.5 C 158.792969 299.488281 130.132812 288.558594 108.238281 266.664062 C 86.34375 244.769531 75.414062 216.109375 75.402344 187.40625 C 75.40625 158.703125 86.335938 130.042969 108.234375 108.144531 C 130.132812 86.246094 158.792969 75.316406 187.492188 75.316406 C 216.199219 75.324219 244.855469 86.257812 266.753906 108.148438 L 273.195312 101.707031 C 249.542969 78.050781 218.496094 66.199219 187.496094 66.199219 C 156.488281 66.195312 125.441406 78.039062 101.789062 101.699219 C 78.125 125.355469 66.28125 156.402344 66.289062 187.40625 C 66.285156 218.410156 78.140625 249.457031 101.792969 273.109375 C 125.449219 296.761719 156.492188 308.617188 187.5 308.613281 C 218.5 308.621094 249.546875 296.769531 273.207031 273.113281 C 296.859375 249.457031 308.707031 218.414062 308.703125 187.410156 C 308.703125 156.40625 296.851562 125.359375 273.195312 101.707031 L 269.976562 104.925781 " fill-opacity="1" fill-rule="nonzero"/></g></g></g><g clip-path="url(#66bf3bfb7d)"><g clip-path="url(#4b43e2609c)"><g clip-path="url(#04a5707e65)"><path fill="#050a30" d="M 226.820312 148.082031 C 248.539062 169.796875 248.539062 205.011719 226.820312 226.730469 C 205.109375 248.441406 169.890625 248.445312 148.175781 226.730469 C 126.449219 205.003906 126.460938 169.792969 148.175781 148.082031 C 169.890625 126.367188 205.097656 126.355469 226.820312 148.082031 " fill-opacity="1" fill-rule="nonzero"/></g></g></g><g clip-path="url(#8b17f89b15)"><g clip-path="url(#d0b2424f6b)"><g clip-path="url(#5aa21f6ebd)"><path fill="#233dff" d="M 226.648438 121.933594 C 241.097656 136.382812 241.105469 159.789062 226.65625 174.234375 C 212.203125 188.6875 188.785156 188.691406 174.339844 174.246094 C 159.886719 159.796875 159.882812 136.371094 174.339844 121.917969 C 188.785156 107.46875 212.199219 107.484375 226.648438 121.933594 " fill-opacity="1" fill-rule="nonzero"/></g></g></g><g clip-path="url(#26862ab39d)"><g clip-path="url(#46f6726947)"><g clip-path="url(#235fb29850)"><path fill="#050a30" d="M 294.746094 80.246094 C 296.503906 82 298.214844 83.796875 299.882812 85.636719 C 301.546875 87.476562 303.167969 89.355469 304.742188 91.273438 C 306.320312 93.195312 307.84375 95.148438 309.324219 97.144531 C 310.800781 99.136719 312.230469 101.167969 313.609375 103.230469 C 314.988281 105.292969 316.316406 107.390625 317.59375 109.519531 C 318.871094 111.648438 320.09375 113.808594 321.261719 115.996094 C 322.433594 118.1875 323.546875 120.402344 324.609375 122.648438 C 325.671875 124.890625 326.675781 127.160156 327.625 129.453125 C 328.578125 131.746094 329.46875 134.0625 330.304688 136.398438 C 331.140625 138.734375 331.921875 141.09375 332.640625 143.46875 C 333.363281 145.84375 334.023438 148.234375 334.625 150.640625 C 335.230469 153.050781 335.773438 155.472656 336.257812 157.90625 C 336.742188 160.339844 337.167969 162.785156 337.53125 165.242188 C 337.894531 167.695312 338.199219 170.160156 338.441406 172.628906 C 338.683594 175.101562 338.867188 177.574219 338.988281 180.054688 C 339.113281 182.535156 339.171875 185.015625 339.171875 187.496094 C 339.171875 189.980469 339.113281 192.460938 338.988281 194.9375 C 338.867188 197.417969 338.683594 199.894531 338.441406 202.363281 C 338.199219 204.832031 337.894531 207.296875 337.53125 209.753906 C 337.167969 212.207031 336.742188 214.652344 336.257812 217.085938 C 335.773438 219.523438 335.230469 221.941406 334.625 224.351562 C 334.023438 226.757812 333.363281 229.152344 332.640625 231.527344 C 331.921875 233.902344 331.140625 236.257812 330.304688 238.59375 C 329.46875 240.933594 328.578125 243.246094 327.625 245.539062 C 326.675781 247.832031 325.671875 250.101562 324.609375 252.347656 C 323.546875 254.589844 322.433594 256.808594 321.261719 258.996094 C 320.09375 261.183594 318.871094 263.34375 317.59375 265.472656 C 316.316406 267.601562 314.988281 269.699219 313.609375 271.761719 C 312.230469 273.828125 310.800781 275.855469 309.324219 277.851562 C 307.84375 279.84375 306.320312 281.800781 304.742188 283.71875 C 303.167969 285.636719 301.546875 287.515625 299.882812 289.355469 C 298.214844 291.195312 296.503906 292.992188 294.746094 294.746094 C 292.992188 296.503906 291.195312 298.214844 289.355469 299.882812 C 287.515625 301.546875 285.636719 303.167969 283.71875 304.742188 C 281.800781 306.320312 279.84375 307.84375 277.851562 309.324219 C 275.855469 310.800781 273.828125 312.230469 271.761719 313.609375 C 269.699219 314.988281 267.601562 316.316406 265.472656 317.59375 C 263.34375 318.871094 261.183594 320.09375 258.996094 321.261719 C 256.808594 322.433594 254.589844 323.546875 252.347656 324.609375 C 250.101562 325.671875 247.832031 326.675781 245.539062 327.625 C 243.246094 328.578125 240.933594 329.46875 238.59375 330.304688 C 236.257812 331.140625 233.902344 331.921875 231.527344 332.640625 C 229.152344 333.363281 226.757812 334.023438 224.351562 334.625 C 221.941406 335.230469 219.523438 335.773438 217.085938 336.257812 C 214.652344 336.742188 212.207031 337.167969 209.753906 337.53125 C 207.296875 337.894531 204.832031 338.199219 202.363281 338.441406 C 199.894531 338.683594 197.417969 338.867188 194.9375 338.988281 C 192.460938 339.113281 189.980469 339.171875 187.496094 339.171875 C 185.015625 339.171875 182.535156 339.113281 180.054688 338.988281 C 177.574219 338.867188 175.101562 338.683594 172.628906 338.441406 C 170.160156 338.199219 167.695312 337.894531 165.242188 337.53125 C 162.785156 337.167969 160.339844 336.742188 157.90625 336.257812 C 155.472656 335.773438 153.050781 335.230469 150.640625 334.625 C 148.234375 334.023438 145.84375 333.363281 143.46875 332.640625 C 141.09375 331.921875 138.734375 331.140625 136.398438 330.304688 C 134.0625 329.46875 131.746094 328.578125 129.453125 327.625 C 127.160156 326.675781 124.890625 325.671875 122.648438 324.609375 C 120.402344 323.546875 118.1875 322.433594 115.996094 321.261719 C 113.808594 320.09375 111.648438 318.871094 109.519531 317.59375 C 107.390625 316.316406 105.292969 314.988281 103.230469 313.609375 C 101.167969 312.230469 99.136719 310.800781 97.144531 309.324219 C 95.148438 307.84375 93.195312 306.320312 91.273438 304.742188 C 89.355469 303.167969 87.476562 301.546875 85.636719 299.882812 C 83.796875 298.214844 82 296.503906 80.246094 294.746094 C 78.492188 292.992188 76.78125 291.195312 75.113281 289.355469 C 73.445312 287.515625 71.824219 285.636719 70.25 283.71875 C 68.675781 281.800781 67.148438 279.84375 65.667969 277.851562 C 64.191406 275.855469 62.761719 273.828125 61.382812 271.761719 C 60.003906 269.699219 58.675781 267.601562 57.398438 265.472656 C 56.125 263.34375 54.902344 261.183594 53.730469 258.996094 C 52.558594 256.808594 51.445312 254.589844 50.382812 252.347656 C 49.320312 250.101562 48.316406 247.832031 47.367188 245.539062 C 46.417969 243.246094 45.523438 240.933594 44.6875 238.59375 C 43.851562 236.257812 43.074219 233.902344 42.351562 231.527344 C 41.632812 229.152344 40.96875 226.757812 40.367188 224.351562 C 39.761719 221.941406 39.21875 219.523438 38.734375 217.085938 C 38.25 214.652344 37.828125 212.207031 37.460938 209.753906 C 37.097656 207.296875 36.792969 204.832031 36.550781 202.363281 C 36.308594 199.894531 36.125 197.417969 36.003906 194.9375 C 35.882812 192.460938 35.820312 189.980469 35.820312 187.496094 C 35.820312 185.015625 35.882812 182.535156 36.003906 180.054688 C 36.125 177.574219 36.308594 175.101562 36.550781 172.628906 C 36.792969 170.160156 37.097656 167.695312 37.460938 165.242188 C 37.828125 162.785156 38.25 160.339844 38.734375 157.90625 C 39.21875 155.472656 39.761719 153.050781 40.367188 150.640625 C 40.96875 148.234375 41.632812 145.84375 42.351562 143.46875 C 43.074219 141.09375 43.851562 138.734375 44.6875 136.398438 C 45.523438 134.0625 46.417969 131.746094 47.367188 129.453125 C 48.316406 127.160156 49.320312 124.890625 50.382812 122.648438 C 51.445312 120.402344 52.558594 118.1875 53.730469 115.996094 C 54.902344 113.808594 56.125 111.648438 57.398438 109.519531 C 58.675781 107.390625 60.003906 105.292969 61.382812 103.230469 C 62.761719 101.167969 64.191406 99.136719 65.667969 97.144531 C 67.148438 95.148438 68.675781 93.195312 70.25 91.273438 C 71.824219 89.355469 73.445312 87.476562 75.113281 85.636719 C 76.78125 83.796875 78.492188 82 80.246094 80.246094 C 82 78.492188 83.796875 76.78125 85.636719 75.113281 C 87.476562 73.445312 89.355469 71.824219 91.273438 70.25 C 93.195312 68.675781 95.148438 67.148438 97.144531 65.667969 C 99.136719 64.191406 101.167969 62.761719 103.230469 61.382812 C 105.292969 60.003906 107.390625 58.675781 109.519531 57.398438 C 111.648438 56.125 113.808594 54.902344 115.996094 53.730469 C 118.1875 52.558594 120.402344 51.445312 122.648438 50.382812 C 124.890625 49.320312 127.160156 48.316406 129.453125 47.367188 C 131.746094 46.417969 134.0625 45.523438 136.398438 44.6875 C 138.734375 43.851562 141.09375 43.074219 143.46875 42.351562 C 145.84375 41.632812 148.234375 40.96875 150.640625 40.367188 C 153.050781 39.761719 155.472656 39.21875 157.90625 38.734375 C 160.339844 38.25 162.785156 37.828125 165.242188 37.460938 C 167.695312 37.097656 170.160156 36.792969 172.628906 36.550781 C 175.101562 36.308594 177.574219 36.125 180.054688 36.003906 C 182.535156 35.882812 185.015625 35.820312 187.496094 35.820312 C 189.980469 35.820312 192.460938 35.882812 194.9375 36.003906 C 197.417969 36.125 199.894531 36.308594 202.363281 36.550781 C 204.832031 36.792969 207.296875 37.097656 209.753906 37.460938 C 212.207031 37.828125 214.652344 38.25 217.085938 38.734375 C 219.523438 39.21875 221.941406 39.761719 224.351562 40.367188 C 226.757812 40.96875 229.152344 41.632812 231.527344 42.351562 C 233.902344 43.074219 236.257812 43.851562 238.59375 44.6875 C 240.933594 45.523438 243.246094 46.417969 245.539062 47.367188 C 247.832031 48.316406 250.101562 49.320312 252.347656 50.382812 C 254.589844 51.445312 256.808594 52.558594 258.996094 53.730469 C 261.183594 54.902344 263.34375 56.125 265.472656 57.398438 C 267.601562 58.675781 269.699219 60.003906 271.761719 61.382812 C 273.828125 62.761719 275.855469 64.191406 277.851562 65.667969 C 279.84375 67.148438 281.800781 68.675781 283.71875 70.25 C 285.636719 71.824219 287.515625 73.445312 289.355469 75.113281 C 291.195312 76.78125 292.992188 78.492188 294.746094 80.246094 Z M 294.746094 80.246094 " fill-opacity="1" fill-rule="nonzero"/></g></g></g><g clip-path="url(#31cb1f857d)"><path fill="#e2eaff" d="M 187.496094 45.117188 C 108.859375 45.117188 45.117188 108.859375 45.117188 187.496094 C 45.117188 266.128906 108.859375 329.871094 187.496094 329.871094 C 266.128906 329.871094 329.871094 266.128906 329.871094 187.496094 C 329.871094 108.859375 266.128906 45.117188 187.496094 45.117188 Z M 224.3125 244.445312 L 177.429688 197.558594 C 174.75 194.882812 173.257812 191.265625 173.257812 187.496094 L 173.257812 116.304688 C 173.257812 108.445312 179.636719 102.066406 187.496094 102.066406 C 195.355469 102.066406 201.730469 108.445312 201.730469 116.304688 L 201.730469 181.601562 L 244.445312 224.3125 C 249.996094 229.867188 249.996094 238.890625 244.445312 244.445312 C 238.890625 249.996094 229.867188 249.996094 224.3125 244.445312 Z M 224.3125 244.445312 " fill-opacity="1" fill-rule="nonzero"/></g></svg>