<svg xmlns="http://www.w3.org/2000/svg" xmlns:xlink="http://www.w3.org/1999/xlink" width="500" zoomAndPan="magnify" viewBox="0 0 375 374.999991" height="500" preserveAspectRatio="xMidYMid meet" version="1.0"><defs><clipPath id="f658f6c168"><path d="M 75 0 L 300 0 C 341.421875 0 375 33.578125 375 75 L 375 300 C 375 341.421875 341.421875 375 300 375 L 75 375 C 33.578125 375 0 341.421875 0 300 L 0 75 C 0 33.578125 33.578125 0 75 0 Z M 75 0 " clip-rule="nonzero"/></clipPath><clipPath id="18ad5fbc10"><path d="M 31.03125 102.929688 L 135.28125 102.929688 L 135.28125 275.429688 L 31.03125 275.429688 Z M 31.03125 102.929688 " clip-rule="nonzero"/></clipPath><clipPath id="8a75f65688"><path d="M 239.714844 101.355469 L 345.464844 101.355469 L 345.464844 276.855469 L 239.714844 276.855469 Z M 239.714844 101.355469 " clip-rule="nonzero"/></clipPath><clipPath id="1a28b2e9ec"><path d="M 0.578125 86.25 L 374.078125 86.25 L 374.078125 288.75 L 0.578125 288.75 Z M 0.578125 86.25 " clip-rule="nonzero"/></clipPath><clipPath id="558cd4bf94"><path d="M 17.941406 97.429688 L 356.941406 97.429688 L 356.941406 281 L 17.941406 281 Z M 17.941406 97.429688 " clip-rule="nonzero"/></clipPath><clipPath id="9ed4ed482c"><path d="M 86.25 86.25 L 288.75 86.25 L 288.75 288.75 L 86.25 288.75 Z M 86.25 86.25 " clip-rule="nonzero"/></clipPath><clipPath id="99737e988f"><path d="M 114.515625 113 L 259.265625 113 L 259.265625 257.75 L 114.515625 257.75 Z M 114.515625 113 " clip-rule="nonzero"/></clipPath><clipPath id="230e81ee2f"><path d="M 102.414062 102.867188 L 271.914062 102.867188 L 271.914062 272.367188 L 102.414062 272.367188 Z M 102.414062 102.867188 " clip-rule="nonzero"/></clipPath><clipPath id="d431377e5f"><path d="M 101.289062 96.058594 L 273.039062 96.058594 L 273.039062 279.058594 L 101.289062 279.058594 Z M 101.289062 96.058594 " clip-rule="nonzero"/></clipPath></defs><g clip-path="url(#f658f6c168)"><rect x="-37.5" width="450" fill="#233dff" y="-37.499999" height="449.999989" fill-opacity="1"/></g><g clip-path="url(#18ad5fbc10)"><path fill="#f4f6ff" d="M 157.664062 102.933594 C 100.101562 102.933594 50.945312 138.734375 31.03125 189.273438 C 50.945312 239.8125 100.101562 275.613281 157.664062 275.613281 C 215.222656 275.613281 264.378906 239.8125 284.296875 189.273438 C 264.378906 138.734375 215.28125 102.933594 157.664062 102.933594 Z M 157.664062 246.832031 C 125.890625 246.832031 100.101562 221.046875 100.101562 189.273438 C 100.101562 157.5 125.890625 131.710938 157.664062 131.710938 C 189.4375 131.710938 215.222656 157.5 215.222656 189.273438 C 215.222656 221.046875 189.4375 246.832031 157.664062 246.832031 Z M 157.664062 154.738281 C 138.609375 154.738281 123.125 170.21875 123.125 189.273438 C 123.125 208.324219 138.609375 223.808594 157.664062 223.808594 C 176.714844 223.808594 192.199219 208.324219 192.199219 189.273438 C 192.199219 170.21875 176.714844 154.738281 157.664062 154.738281 Z M 157.664062 154.738281 " fill-opacity="1" fill-rule="nonzero"/></g><g clip-path="url(#8a75f65688)"><path fill="#f4f6ff" d="M 217.003906 276.855469 C 275.394531 276.855469 325.261719 240.535156 345.464844 189.269531 C 325.261719 138.003906 275.394531 101.683594 217.003906 101.683594 C 158.613281 101.683594 108.746094 138.003906 88.542969 189.269531 C 108.746094 240.535156 158.554688 276.855469 217.003906 276.855469 Z M 217.003906 130.878906 C 249.234375 130.878906 275.394531 157.039062 275.394531 189.269531 C 275.394531 221.5 249.234375 247.660156 217.003906 247.660156 C 184.773438 247.660156 158.613281 221.5 158.613281 189.269531 C 158.613281 157.039062 184.773438 130.878906 217.003906 130.878906 Z M 217.003906 224.304688 C 236.332031 224.304688 252.039062 208.597656 252.039062 189.269531 C 252.039062 169.941406 236.332031 154.234375 217.003906 154.234375 C 197.675781 154.234375 181.96875 169.941406 181.96875 189.269531 C 181.96875 208.597656 197.675781 224.304688 217.003906 224.304688 Z M 217.003906 224.304688 " fill-opacity="1" fill-rule="nonzero"/></g><g clip-path="url(#1a28b2e9ec)"><path fill="#050a30" d="M 189.773438 288.613281 C 126.945312 288.613281 65.128906 257.273438 6.042969 195.460938 L 0.167969 189.3125 L 5.464844 182.660156 C 8.59375 178.730469 83.371094 86.386719 190.277344 86.386719 C 253.265625 86.386719 313.582031 118.65625 369.550781 182.296875 L 374.828125 188.300781 L 369.96875 194.648438 C 367.03125 198.488281 296.792969 288.613281 189.773438 288.613281 Z M 26.316406 188.351562 C 79.652344 241.96875 134.605469 269.140625 189.773438 269.140625 C 271.792969 269.140625 331.917969 208.664062 349.34375 188.941406 C 298.867188 133.808594 245.382812 105.863281 190.277344 105.863281 C 108.332031 105.863281 44.972656 167.902344 26.316406 188.351562 Z M 26.316406 188.351562 " fill-opacity="1" fill-rule="nonzero"/></g><path fill="#050a30" d="M 187.660156 125.320312 C 153.316406 125.320312 125.480469 153.160156 125.480469 187.5 C 125.480469 221.839844 153.316406 249.679688 187.660156 249.679688 C 222.003906 249.679688 249.839844 221.839844 249.839844 187.5 C 249.839844 153.160156 222.003906 125.320312 187.660156 125.320312 Z M 187.660156 213.597656 C 173.246094 213.597656 161.5625 201.914062 161.5625 187.5 C 161.5625 173.085938 173.246094 161.402344 187.660156 161.402344 C 202.074219 161.402344 213.753906 173.085938 213.753906 187.5 C 213.753906 201.914062 202.074219 213.597656 187.660156 213.597656 Z M 187.660156 213.597656 " fill-opacity="1" fill-rule="nonzero"/><g clip-path="url(#558cd4bf94)"><path fill="#050a30" d="M 189.5625 280.992188 C 132.570312 280.992188 76.496094 252.558594 22.902344 196.488281 L 17.570312 190.910156 L 22.375 184.878906 C 25.214844 181.3125 93.042969 97.546875 190.019531 97.546875 C 247.15625 97.546875 301.867188 126.820312 352.636719 184.546875 L 357.425781 189.996094 L 353.019531 195.753906 C 350.355469 199.234375 286.640625 280.992188 189.5625 280.992188 Z M 41.289062 190.042969 C 89.671875 238.679688 139.519531 263.324219 189.5625 263.324219 C 263.964844 263.324219 318.503906 208.46875 334.308594 190.574219 C 288.523438 140.566406 240.007812 115.214844 190.019531 115.214844 C 115.6875 115.214844 58.210938 171.492188 41.289062 190.042969 Z M 41.289062 190.042969 " fill-opacity="1" fill-rule="nonzero"/></g><path fill="#050a30" d="M 187.644531 132.863281 C 156.496094 132.863281 131.242188 158.117188 131.242188 189.269531 C 131.242188 220.417969 156.496094 245.671875 187.644531 245.671875 C 218.796875 245.671875 244.046875 220.417969 244.046875 189.269531 C 244.046875 158.117188 218.796875 132.863281 187.644531 132.863281 Z M 187.644531 212.941406 C 174.570312 212.941406 163.972656 202.34375 163.972656 189.269531 C 163.972656 176.195312 174.570312 165.597656 187.644531 165.597656 C 200.71875 165.597656 211.316406 176.195312 211.316406 189.269531 C 211.316406 202.34375 200.71875 212.941406 187.644531 212.941406 Z M 187.644531 212.941406 " fill-opacity="1" fill-rule="nonzero"/><g clip-path="url(#9ed4ed482c)"><path fill="#050a30" d="M 187.5 86.25 C 131.558594 86.25 86.25 131.558594 86.25 187.5 C 86.25 243.441406 131.558594 288.75 187.5 288.75 C 243.441406 288.75 288.75 243.441406 288.75 187.5 C 288.75 131.558594 243.441406 86.25 187.5 86.25 Z M 187.5 268.5 C 142.746094 268.5 106.5 232.253906 106.5 187.5 C 106.5 142.746094 142.746094 106.5 187.5 106.5 C 232.253906 106.5 268.5 142.746094 268.5 187.5 C 268.5 232.253906 232.253906 268.5 187.5 268.5 Z M 187.5 268.5 " fill-opacity="1" fill-rule="nonzero"/></g><g clip-path="url(#99737e988f)"><path fill="#f4f6ff" d="M 259.570312 185.527344 C 259.570312 186.714844 259.539062 187.902344 259.480469 189.085938 C 259.425781 190.273438 259.335938 191.457031 259.21875 192.636719 C 259.105469 193.820312 258.957031 194.996094 258.785156 196.171875 C 258.609375 197.34375 258.40625 198.511719 258.175781 199.679688 C 257.945312 200.84375 257.683594 202 257.394531 203.152344 C 257.109375 204.300781 256.792969 205.445312 256.445312 206.582031 C 256.101562 207.71875 255.730469 208.84375 255.328125 209.960938 C 254.929688 211.078125 254.503906 212.1875 254.050781 213.285156 C 253.59375 214.378906 253.113281 215.464844 252.605469 216.539062 C 252.097656 217.609375 251.566406 218.671875 251.003906 219.71875 C 250.445312 220.765625 249.863281 221.796875 249.25 222.816406 C 248.640625 223.832031 248.007812 224.835938 247.347656 225.824219 C 246.6875 226.808594 246.003906 227.78125 245.296875 228.734375 C 244.589844 229.6875 243.859375 230.621094 243.105469 231.539062 C 242.355469 232.457031 241.578125 233.355469 240.78125 234.234375 C 239.984375 235.113281 239.167969 235.972656 238.328125 236.8125 C 237.488281 237.652344 236.628906 238.46875 235.75 239.269531 C 234.871094 240.066406 233.972656 240.839844 233.054688 241.59375 C 232.136719 242.347656 231.199219 243.074219 230.246094 243.78125 C 229.292969 244.488281 228.324219 245.171875 227.335938 245.832031 C 226.347656 246.492188 225.347656 247.125 224.328125 247.738281 C 223.3125 248.347656 222.277344 248.933594 221.230469 249.492188 C 220.183594 250.050781 219.125 250.585938 218.050781 251.09375 C 216.980469 251.601562 215.894531 252.082031 214.796875 252.535156 C 213.699219 252.988281 212.59375 253.417969 211.476562 253.816406 C 210.359375 254.214844 209.230469 254.589844 208.097656 254.933594 C 206.960938 255.277344 205.816406 255.59375 204.664062 255.882812 C 203.515625 256.171875 202.355469 256.429688 201.191406 256.660156 C 200.027344 256.894531 198.859375 257.097656 197.683594 257.269531 C 196.511719 257.445312 195.332031 257.589844 194.152344 257.707031 C 192.96875 257.824219 191.785156 257.910156 190.601562 257.96875 C 189.414062 258.027344 188.230469 258.054688 187.042969 258.054688 C 185.855469 258.054688 184.667969 258.027344 183.484375 257.96875 C 182.296875 257.910156 181.113281 257.824219 179.933594 257.707031 C 178.753906 257.589844 177.574219 257.445312 176.402344 257.269531 C 175.226562 257.097656 174.058594 256.894531 172.894531 256.660156 C 171.730469 256.429688 170.570312 256.171875 169.417969 255.882812 C 168.269531 255.59375 167.125 255.277344 165.988281 254.933594 C 164.851562 254.589844 163.726562 254.214844 162.609375 253.816406 C 161.492188 253.417969 160.382812 252.988281 159.289062 252.535156 C 158.191406 252.082031 157.105469 251.601562 156.03125 251.09375 C 154.960938 250.585938 153.898438 250.050781 152.851562 249.492188 C 151.804688 248.933594 150.773438 248.347656 149.757812 247.738281 C 148.738281 247.125 147.734375 246.492188 146.75 245.832031 C 145.761719 245.171875 144.792969 244.488281 143.839844 243.78125 C 142.882812 243.074219 141.949219 242.347656 141.03125 241.59375 C 140.113281 240.839844 139.214844 240.066406 138.335938 239.269531 C 137.457031 238.46875 136.597656 237.652344 135.757812 236.8125 C 134.917969 235.972656 134.101562 235.113281 133.304688 234.234375 C 132.507812 233.355469 131.730469 232.457031 130.976562 231.539062 C 130.226562 230.621094 129.496094 229.6875 128.789062 228.734375 C 128.082031 227.78125 127.398438 226.808594 126.738281 225.824219 C 126.078125 224.835938 125.445312 223.832031 124.832031 222.816406 C 124.222656 221.796875 123.636719 220.765625 123.078125 219.71875 C 122.519531 218.671875 121.984375 217.609375 121.476562 216.539062 C 120.972656 215.464844 120.488281 214.378906 120.035156 213.285156 C 119.582031 212.1875 119.15625 211.078125 118.753906 209.960938 C 118.355469 208.84375 117.984375 207.71875 117.636719 206.582031 C 117.292969 205.445312 116.976562 204.300781 116.6875 203.152344 C 116.398438 202 116.140625 200.84375 115.910156 199.679688 C 115.675781 198.511719 115.472656 197.34375 115.300781 196.171875 C 115.125 194.996094 114.980469 193.820312 114.863281 192.636719 C 114.746094 191.457031 114.660156 190.273438 114.601562 189.085938 C 114.542969 187.902344 114.515625 186.714844 114.515625 185.527344 C 114.515625 184.339844 114.542969 183.15625 114.601562 181.96875 C 114.660156 180.785156 114.746094 179.601562 114.863281 178.417969 C 114.980469 177.238281 115.125 176.058594 115.300781 174.886719 C 115.472656 173.710938 115.675781 172.542969 115.910156 171.378906 C 116.140625 170.214844 116.398438 169.058594 116.6875 167.90625 C 116.976562 166.753906 117.292969 165.609375 117.636719 164.476562 C 117.984375 163.339844 118.355469 162.210938 118.753906 161.09375 C 119.15625 159.976562 119.582031 158.871094 120.035156 157.773438 C 120.488281 156.675781 120.972656 155.59375 121.476562 154.519531 C 121.984375 153.445312 122.519531 152.386719 123.078125 151.339844 C 123.636719 150.292969 124.222656 149.261719 124.832031 148.242188 C 125.445312 147.222656 126.078125 146.222656 126.738281 145.234375 C 127.398438 144.246094 128.082031 143.277344 128.789062 142.324219 C 129.496094 141.371094 130.226562 140.433594 130.976562 139.515625 C 131.730469 138.601562 132.507812 137.703125 133.304688 136.820312 C 134.101562 135.941406 134.917969 135.082031 135.757812 134.242188 C 136.597656 133.40625 137.457031 132.585938 138.335938 131.789062 C 139.214844 130.992188 140.113281 130.21875 141.03125 129.464844 C 141.949219 128.710938 142.882812 127.980469 143.839844 127.273438 C 144.792969 126.566406 145.761719 125.882812 146.75 125.222656 C 147.734375 124.566406 148.738281 123.929688 149.757812 123.320312 C 150.773438 122.710938 151.804688 122.125 152.851562 121.566406 C 153.898438 121.003906 154.960938 120.472656 156.03125 119.964844 C 157.105469 119.457031 158.191406 118.976562 159.289062 118.523438 C 160.382812 118.066406 161.492188 117.640625 162.609375 117.242188 C 163.726562 116.839844 164.851562 116.46875 165.988281 116.125 C 167.125 115.78125 168.269531 115.464844 169.417969 115.175781 C 170.570312 114.886719 171.730469 114.625 172.894531 114.394531 C 174.058594 114.164062 175.226562 113.960938 176.402344 113.785156 C 177.574219 113.613281 178.753906 113.464844 179.933594 113.351562 C 181.113281 113.234375 182.296875 113.148438 183.484375 113.089844 C 184.667969 113.03125 185.855469 113 187.042969 113 C 188.230469 113 189.414062 113.03125 190.601562 113.089844 C 191.785156 113.148438 192.96875 113.234375 194.152344 113.351562 C 195.332031 113.464844 196.511719 113.613281 197.683594 113.785156 C 198.859375 113.960938 200.027344 114.164062 201.191406 114.394531 C 202.355469 114.625 203.515625 114.886719 204.664062 115.175781 C 205.816406 115.464844 206.960938 115.78125 208.097656 116.125 C 209.230469 116.46875 210.359375 116.839844 211.476562 117.242188 C 212.59375 117.640625 213.699219 118.066406 214.796875 118.523438 C 215.894531 118.976562 216.980469 119.457031 218.050781 119.964844 C 219.125 120.472656 220.183594 121.003906 221.230469 121.566406 C 222.277344 122.125 223.3125 122.710938 224.328125 123.320312 C 225.347656 123.929688 226.347656 124.566406 227.335938 125.222656 C 228.324219 125.882812 229.292969 126.566406 230.246094 127.273438 C 231.199219 127.980469 232.136719 128.710938 233.054688 129.464844 C 233.972656 130.21875 234.871094 130.992188 235.75 131.789062 C 236.628906 132.585938 237.488281 133.40625 238.328125 134.242188 C 239.167969 135.082031 239.984375 135.941406 240.78125 136.820312 C 241.578125 137.703125 242.355469 138.601562 243.105469 139.515625 C 243.859375 140.433594 244.589844 141.371094 245.296875 142.324219 C 246.003906 143.277344 246.6875 144.246094 247.347656 145.234375 C 248.007812 146.222656 248.640625 147.222656 249.25 148.242188 C 249.863281 149.261719 250.445312 150.292969 251.003906 151.339844 C 251.566406 152.386719 252.097656 153.445312 252.605469 154.519531 C 253.113281 155.59375 253.59375 156.675781 254.050781 157.773438 C 254.503906 158.871094 254.929688 159.976562 255.328125 161.09375 C 255.730469 162.210938 256.101562 163.339844 256.445312 164.476562 C 256.792969 165.609375 257.109375 166.753906 257.394531 167.90625 C 257.683594 169.058594 257.945312 170.214844 258.175781 171.378906 C 258.40625 172.542969 258.609375 173.710938 258.785156 174.886719 C 258.957031 176.058594 259.105469 177.238281 259.21875 178.417969 C 259.335938 179.601562 259.425781 180.785156 259.480469 181.96875 C 259.539062 183.15625 259.570312 184.339844 259.570312 185.527344 Z M 259.570312 185.527344 " fill-opacity="1" fill-rule="nonzero"/></g><g clip-path="url(#230e81ee2f)"><path fill="#050a30" d="M 187.046875 102.867188 C 140.285156 102.867188 102.414062 140.738281 102.414062 187.5 C 102.414062 234.257812 140.285156 272.132812 187.046875 272.132812 C 233.804688 272.132812 271.679688 234.257812 271.679688 187.5 C 271.679688 140.738281 233.804688 102.867188 187.046875 102.867188 Z M 187.046875 255.207031 C 149.636719 255.207031 119.339844 224.90625 119.339844 187.5 C 119.339844 150.089844 149.636719 119.792969 187.046875 119.792969 C 224.453125 119.792969 254.75 150.089844 254.75 187.5 C 254.75 224.90625 224.453125 255.207031 187.046875 255.207031 Z M 187.046875 255.207031 " fill-opacity="1" fill-rule="nonzero"/></g><g clip-path="url(#d431377e5f)"><path fill="#233dff" d="M 186.691406 31.457031 C 272.570312 31.457031 342.1875 101.074219 342.1875 186.953125 C 342.1875 272.828125 272.570312 342.445312 186.691406 342.445312 C 100.8125 342.445312 31.195312 272.828125 31.195312 186.953125 C 31.195312 101.074219 100.8125 31.457031 186.691406 31.457031 Z M 200.835938 60.507812 L 200.828125 73.863281 C 200.828125 81.671875 194.5 88 186.691406 88 C 178.882812 88 172.554688 81.671875 172.554688 73.863281 L 172.558594 60.503906 C 113.585938 67.023438 66.761719 113.847656 60.246094 172.820312 L 73.605469 172.816406 C 81.410156 172.816406 87.742188 179.144531 87.742188 186.953125 C 87.742188 194.757812 81.410156 201.085938 73.605469 201.085938 L 60.246094 201.097656 C 66.769531 260.0625 113.589844 306.882812 172.558594 313.398438 L 172.554688 300.039062 C 172.554688 292.230469 178.882812 285.902344 186.691406 285.902344 C 194.5 285.902344 200.828125 292.230469 200.828125 300.039062 L 200.835938 313.398438 C 259.800781 306.875 306.613281 260.058594 313.136719 201.097656 L 299.777344 201.085938 C 291.972656 201.085938 285.644531 194.757812 285.644531 186.953125 C 285.644531 179.144531 291.972656 172.816406 299.777344 172.816406 L 313.140625 172.820312 C 306.621094 113.851562 259.804688 67.027344 200.835938 60.507812 Z M 252.066406 105.234375 C 258.164062 110.109375 259.152344 119.007812 254.273438 125.101562 L 213.027344 176.648438 C 214.277344 179.839844 214.964844 183.316406 214.964844 186.953125 C 214.964844 202.566406 202.304688 215.222656 186.691406 215.222656 C 171.078125 215.222656 158.421875 202.566406 158.421875 186.953125 C 158.421875 186.347656 158.4375 185.746094 158.476562 185.148438 L 136.441406 170.441406 C 129.945312 166.109375 128.191406 157.335938 132.523438 150.839844 C 136.851562 144.34375 145.628906 142.585938 152.125 146.917969 L 174.152344 161.605469 C 177.933594 159.730469 182.1875 158.679688 186.691406 158.679688 C 188.140625 158.679688 189.566406 158.789062 190.957031 159 L 232.195312 107.441406 C 237.074219 101.34375 245.96875 100.355469 252.066406 105.234375 Z M 252.066406 105.234375 " fill-opacity="1" fill-rule="nonzero"/></g></svg>