<svg xmlns="http://www.w3.org/2000/svg" xmlns:xlink="http://www.w3.org/1999/xlink" width="500" zoomAndPan="magnify" viewBox="0 0 375 374.999991" height="500" preserveAspectRatio="xMidYMid meet" version="1.0"><defs><clipPath id="a574861ec5"><path d="M 31.03125 102.929688 L 135.28125 102.929688 L 135.28125 275.429688 L 31.03125 275.429688 Z M 31.03125 102.929688 " clip-rule="nonzero"/></clipPath><clipPath id="1cc62caec0"><path d="M 239.714844 101.355469 L 345.464844 101.355469 L 345.464844 276.855469 L 239.714844 276.855469 Z M 239.714844 101.355469 " clip-rule="nonzero"/></clipPath><clipPath id="8f6b6c10b8"><path d="M 0.578125 86.25 L 374.078125 86.25 L 374.078125 288.75 L 0.578125 288.75 Z M 0.578125 86.25 " clip-rule="nonzero"/></clipPath><clipPath id="6c25c00ead"><path d="M 17.941406 97.429688 L 356.941406 97.429688 L 356.941406 281 L 17.941406 281 Z M 17.941406 97.429688 " clip-rule="nonzero"/></clipPath><clipPath id="9a839c9084"><path d="M 96.6875 98.050781 L 278.9375 98.050781 L 278.9375 280.300781 L 96.6875 280.300781 Z M 96.6875 98.050781 " clip-rule="nonzero"/></clipPath><clipPath id="88a8040ab8"><path d="M 122.152344 122.152344 L 252.652344 122.152344 L 252.652344 252.652344 L 122.152344 252.652344 Z M 122.152344 122.152344 " clip-rule="nonzero"/></clipPath><clipPath id="57181385bc"><path d="M 111.25 113.023438 L 263.5 113.023438 L 263.5 265.273438 L 111.25 265.273438 Z M 111.25 113.023438 " clip-rule="nonzero"/></clipPath><clipPath id="8980692a36"><path d="M 110.234375 106.890625 L 264.734375 106.890625 L 264.734375 271.890625 L 110.234375 271.890625 Z M 110.234375 106.890625 " clip-rule="nonzero"/></clipPath></defs><g clip-path="url(#a574861ec5)"><path fill="#233dff" d="M 157.664062 102.933594 C 100.101562 102.933594 50.945312 138.734375 31.03125 189.273438 C 50.945312 239.8125 100.101562 275.613281 157.664062 275.613281 C 215.222656 275.613281 264.378906 239.8125 284.296875 189.273438 C 264.378906 138.734375 215.28125 102.933594 157.664062 102.933594 Z M 157.664062 246.832031 C 125.890625 246.832031 100.101562 221.046875 100.101562 189.273438 C 100.101562 157.5 125.890625 131.710938 157.664062 131.710938 C 189.4375 131.710938 215.222656 157.5 215.222656 189.273438 C 215.222656 221.046875 189.4375 246.832031 157.664062 246.832031 Z M 157.664062 154.738281 C 138.609375 154.738281 123.125 170.21875 123.125 189.273438 C 123.125 208.324219 138.609375 223.808594 157.664062 223.808594 C 176.714844 223.808594 192.199219 208.324219 192.199219 189.273438 C 192.199219 170.21875 176.714844 154.738281 157.664062 154.738281 Z M 157.664062 154.738281 " fill-opacity="1" fill-rule="nonzero"/></g><g clip-path="url(#1cc62caec0)"><path fill="#233dff" d="M 217.003906 276.855469 C 275.394531 276.855469 325.261719 240.535156 345.464844 189.269531 C 325.261719 138.003906 275.394531 101.683594 217.003906 101.683594 C 158.613281 101.683594 108.746094 138.003906 88.542969 189.269531 C 108.746094 240.535156 158.554688 276.855469 217.003906 276.855469 Z M 217.003906 130.878906 C 249.234375 130.878906 275.394531 157.039062 275.394531 189.269531 C 275.394531 221.5 249.234375 247.660156 217.003906 247.660156 C 184.773438 247.660156 158.613281 221.5 158.613281 189.269531 C 158.613281 157.039062 184.773438 130.878906 217.003906 130.878906 Z M 217.003906 224.304688 C 236.332031 224.304688 252.039062 208.597656 252.039062 189.269531 C 252.039062 169.941406 236.332031 154.234375 217.003906 154.234375 C 197.675781 154.234375 181.96875 169.941406 181.96875 189.269531 C 181.96875 208.597656 197.675781 224.304688 217.003906 224.304688 Z M 217.003906 224.304688 " fill-opacity="1" fill-rule="nonzero"/></g><g clip-path="url(#8f6b6c10b8)"><path fill="#f4f6ff" d="M 189.773438 288.613281 C 126.945312 288.613281 65.128906 257.273438 6.042969 195.460938 L 0.167969 189.3125 L 5.464844 182.660156 C 8.59375 178.730469 83.371094 86.386719 190.277344 86.386719 C 253.265625 86.386719 313.582031 118.65625 369.550781 182.296875 L 374.828125 188.300781 L 369.96875 194.648438 C 367.03125 198.488281 296.792969 288.613281 189.773438 288.613281 Z M 26.316406 188.351562 C 79.652344 241.96875 134.605469 269.140625 189.773438 269.140625 C 271.792969 269.140625 331.917969 208.664062 349.34375 188.941406 C 298.867188 133.808594 245.382812 105.863281 190.277344 105.863281 C 108.332031 105.863281 44.972656 167.902344 26.316406 188.351562 Z M 26.316406 188.351562 " fill-opacity="1" fill-rule="nonzero"/></g><path fill="#f4f6ff" d="M 187.660156 125.320312 C 153.316406 125.320312 125.480469 153.160156 125.480469 187.5 C 125.480469 221.839844 153.316406 249.679688 187.660156 249.679688 C 222.003906 249.679688 249.839844 221.839844 249.839844 187.5 C 249.839844 153.160156 222.003906 125.320312 187.660156 125.320312 Z M 187.660156 213.597656 C 173.246094 213.597656 161.5625 201.914062 161.5625 187.5 C 161.5625 173.085938 173.246094 161.402344 187.660156 161.402344 C 202.074219 161.402344 213.753906 173.085938 213.753906 187.5 C 213.753906 201.914062 202.074219 213.597656 187.660156 213.597656 Z M 187.660156 213.597656 " fill-opacity="1" fill-rule="nonzero"/><g clip-path="url(#6c25c00ead)"><path fill="#f4f6ff" d="M 189.5625 280.992188 C 132.570312 280.992188 76.496094 252.558594 22.902344 196.488281 L 17.570312 190.910156 L 22.375 184.878906 C 25.214844 181.3125 93.042969 97.546875 190.019531 97.546875 C 247.15625 97.546875 301.867188 126.820312 352.636719 184.546875 L 357.425781 189.996094 L 353.019531 195.753906 C 350.355469 199.234375 286.640625 280.992188 189.5625 280.992188 Z M 41.289062 190.042969 C 89.671875 238.679688 139.519531 263.324219 189.5625 263.324219 C 263.964844 263.324219 318.503906 208.46875 334.308594 190.574219 C 288.523438 140.566406 240.007812 115.214844 190.019531 115.214844 C 115.6875 115.214844 58.210938 171.492188 41.289062 190.042969 Z M 41.289062 190.042969 " fill-opacity="1" fill-rule="nonzero"/></g><path fill="#f4f6ff" d="M 187.644531 132.863281 C 156.496094 132.863281 131.242188 158.117188 131.242188 189.269531 C 131.242188 220.417969 156.496094 245.671875 187.644531 245.671875 C 218.796875 245.671875 244.046875 220.417969 244.046875 189.269531 C 244.046875 158.117188 218.796875 132.863281 187.644531 132.863281 Z M 187.644531 212.941406 C 174.570312 212.941406 163.972656 202.34375 163.972656 189.269531 C 163.972656 176.195312 174.570312 165.597656 187.644531 165.597656 C 200.71875 165.597656 211.316406 176.195312 211.316406 189.269531 C 211.316406 202.34375 200.71875 212.941406 187.644531 212.941406 Z M 187.644531 212.941406 " fill-opacity="1" fill-rule="nonzero"/><g clip-path="url(#9a839c9084)"><path fill="#f4f6ff" d="M 187.90625 98.050781 C 137.507812 98.050781 96.6875 138.871094 96.6875 189.269531 C 96.6875 239.667969 137.507812 280.488281 187.90625 280.488281 C 238.304688 280.488281 279.125 239.667969 279.125 189.269531 C 279.125 138.871094 238.304688 98.050781 187.90625 98.050781 Z M 187.90625 262.246094 C 147.589844 262.246094 114.933594 229.589844 114.933594 189.269531 C 114.933594 148.953125 147.589844 116.296875 187.90625 116.296875 C 228.226562 116.296875 260.882812 148.953125 260.882812 189.269531 C 260.882812 229.589844 228.226562 262.246094 187.90625 262.246094 Z M 187.90625 262.246094 " fill-opacity="1" fill-rule="nonzero"/></g><g clip-path="url(#88a8040ab8)"><path fill="#f4f6ff" d="M 252.839844 187.496094 C 252.839844 188.566406 252.816406 189.636719 252.761719 190.703125 C 252.710938 191.773438 252.632812 192.835938 252.527344 193.902344 C 252.421875 194.964844 252.289062 196.027344 252.132812 197.085938 C 251.976562 198.144531 251.792969 199.195312 251.585938 200.246094 C 251.375 201.292969 251.140625 202.335938 250.882812 203.375 C 250.621094 204.410156 250.335938 205.441406 250.027344 206.464844 C 249.71875 207.488281 249.382812 208.503906 249.019531 209.511719 C 248.660156 210.519531 248.277344 211.515625 247.867188 212.503906 C 247.457031 213.492188 247.023438 214.46875 246.566406 215.433594 C 246.109375 216.402344 245.628906 217.355469 245.125 218.300781 C 244.621094 219.242188 244.09375 220.171875 243.542969 221.089844 C 242.996094 222.007812 242.421875 222.910156 241.828125 223.800781 C 241.234375 224.691406 240.617188 225.5625 239.980469 226.421875 C 239.34375 227.28125 238.6875 228.125 238.007812 228.949219 C 237.332031 229.777344 236.632812 230.585938 235.914062 231.378906 C 235.195312 232.171875 234.457031 232.945312 233.703125 233.703125 C 232.945312 234.457031 232.171875 235.195312 231.378906 235.914062 C 230.585938 236.632812 229.777344 237.332031 228.949219 238.007812 C 228.125 238.6875 227.28125 239.34375 226.421875 239.980469 C 225.5625 240.617188 224.6875 241.234375 223.800781 241.828125 C 222.910156 242.421875 222.007812 242.996094 221.089844 243.542969 C 220.171875 244.09375 219.242188 244.621094 218.300781 245.125 C 217.355469 245.628906 216.402344 246.109375 215.433594 246.566406 C 214.46875 247.023438 213.492188 247.457031 212.503906 247.867188 C 211.515625 248.277344 210.519531 248.660156 209.511719 249.019531 C 208.503906 249.382812 207.488281 249.71875 206.464844 250.027344 C 205.441406 250.335938 204.410156 250.621094 203.375 250.882812 C 202.335938 251.140625 201.292969 251.375 200.246094 251.585938 C 199.195312 251.792969 198.144531 251.976562 197.085938 252.132812 C 196.027344 252.289062 194.964844 252.421875 193.902344 252.527344 C 192.835938 252.632812 191.773438 252.710938 190.703125 252.761719 C 189.636719 252.816406 188.566406 252.839844 187.496094 252.839844 C 186.429688 252.839844 185.359375 252.816406 184.289062 252.761719 C 183.222656 252.710938 182.15625 252.632812 181.09375 252.527344 C 180.027344 252.421875 178.96875 252.289062 177.910156 252.132812 C 176.851562 251.976562 175.796875 251.792969 174.75 251.585938 C 173.699219 251.375 172.65625 251.140625 171.621094 250.882812 C 170.582031 250.621094 169.550781 250.335938 168.527344 250.027344 C 167.503906 249.71875 166.492188 249.382812 165.484375 249.019531 C 164.476562 248.660156 163.480469 248.277344 162.492188 247.867188 C 161.503906 247.457031 160.527344 247.023438 159.558594 246.566406 C 158.59375 246.109375 157.636719 245.628906 156.695312 245.125 C 155.75 244.621094 154.820312 244.09375 153.902344 243.542969 C 152.988281 242.996094 152.082031 242.421875 151.195312 241.828125 C 150.304688 241.234375 149.429688 240.617188 148.570312 239.980469 C 147.714844 239.34375 146.871094 238.6875 146.042969 238.007812 C 145.21875 237.332031 144.40625 236.632812 143.613281 235.914062 C 142.824219 235.195312 142.046875 234.457031 141.292969 233.703125 C 140.535156 232.945312 139.800781 232.171875 139.082031 231.378906 C 138.363281 230.585938 137.664062 229.777344 136.984375 228.949219 C 136.308594 228.125 135.648438 227.28125 135.011719 226.421875 C 134.375 225.5625 133.761719 224.691406 133.164062 223.800781 C 132.570312 222.910156 132 222.007812 131.449219 221.089844 C 130.898438 220.171875 130.375 219.242188 129.871094 218.300781 C 129.363281 217.355469 128.882812 216.402344 128.425781 215.433594 C 127.96875 214.46875 127.535156 213.492188 127.128906 212.503906 C 126.71875 211.515625 126.332031 210.519531 125.972656 209.511719 C 125.613281 208.503906 125.277344 207.488281 124.96875 206.464844 C 124.65625 205.441406 124.371094 204.410156 124.113281 203.375 C 123.851562 202.335938 123.617188 201.292969 123.410156 200.246094 C 123.199219 199.195312 123.019531 198.144531 122.859375 197.085938 C 122.703125 196.027344 122.574219 194.964844 122.46875 193.902344 C 122.363281 192.835938 122.285156 191.773438 122.230469 190.703125 C 122.179688 189.636719 122.152344 188.566406 122.152344 187.496094 C 122.152344 186.429688 122.179688 185.359375 122.230469 184.289062 C 122.285156 183.222656 122.363281 182.15625 122.46875 181.09375 C 122.574219 180.027344 122.703125 178.96875 122.859375 177.910156 C 123.019531 176.851562 123.199219 175.796875 123.410156 174.75 C 123.617188 173.699219 123.851562 172.65625 124.113281 171.621094 C 124.371094 170.582031 124.65625 169.550781 124.96875 168.527344 C 125.277344 167.503906 125.613281 166.492188 125.972656 165.484375 C 126.332031 164.476562 126.71875 163.480469 127.128906 162.492188 C 127.535156 161.503906 127.96875 160.527344 128.425781 159.558594 C 128.882812 158.59375 129.363281 157.636719 129.871094 156.695312 C 130.375 155.75 130.898438 154.820312 131.449219 153.902344 C 132 152.988281 132.570312 152.082031 133.164062 151.195312 C 133.761719 150.304688 134.375 149.429688 135.011719 148.570312 C 135.648438 147.714844 136.308594 146.871094 136.984375 146.042969 C 137.664062 145.21875 138.363281 144.40625 139.082031 143.613281 C 139.800781 142.824219 140.535156 142.046875 141.292969 141.292969 C 142.046875 140.535156 142.824219 139.800781 143.613281 139.082031 C 144.40625 138.363281 145.21875 137.664062 146.042969 136.984375 C 146.871094 136.308594 147.714844 135.648438 148.570312 135.011719 C 149.429688 134.375 150.304688 133.761719 151.195312 133.164062 C 152.082031 132.570312 152.988281 132 153.902344 131.449219 C 154.820312 130.898438 155.75 130.375 156.695312 129.871094 C 157.636719 129.363281 158.59375 128.882812 159.558594 128.425781 C 160.527344 127.96875 161.503906 127.535156 162.492188 127.128906 C 163.480469 126.71875 164.476562 126.332031 165.484375 125.972656 C 166.492188 125.613281 167.503906 125.277344 168.527344 124.96875 C 169.550781 124.65625 170.582031 124.371094 171.621094 124.113281 C 172.65625 123.851562 173.699219 123.617188 174.75 123.410156 C 175.796875 123.199219 176.851562 123.019531 177.910156 122.859375 C 178.96875 122.703125 180.027344 122.574219 181.09375 122.46875 C 182.15625 122.363281 183.222656 122.285156 184.289062 122.230469 C 185.359375 122.179688 186.429688 122.152344 187.496094 122.152344 C 188.566406 122.152344 189.636719 122.179688 190.703125 122.230469 C 191.773438 122.285156 192.835938 122.363281 193.902344 122.46875 C 194.964844 122.574219 196.027344 122.703125 197.085938 122.859375 C 198.144531 123.019531 199.195312 123.199219 200.246094 123.410156 C 201.292969 123.617188 202.335938 123.851562 203.375 124.113281 C 204.410156 124.371094 205.441406 124.65625 206.464844 124.96875 C 207.488281 125.277344 208.503906 125.613281 209.511719 125.972656 C 210.519531 126.332031 211.515625 126.71875 212.503906 127.128906 C 213.492188 127.535156 214.46875 127.96875 215.433594 128.425781 C 216.402344 128.882812 217.355469 129.363281 218.300781 129.871094 C 219.242188 130.375 220.171875 130.898438 221.089844 131.449219 C 222.007812 132 222.910156 132.570312 223.800781 133.164062 C 224.6875 133.761719 225.5625 134.375 226.421875 135.011719 C 227.28125 135.648438 228.125 136.308594 228.949219 136.984375 C 229.777344 137.664062 230.585938 138.363281 231.378906 139.082031 C 232.171875 139.800781 232.945312 140.535156 233.703125 141.292969 C 234.457031 142.046875 235.195312 142.824219 235.914062 143.613281 C 236.632812 144.40625 237.332031 145.21875 238.007812 146.042969 C 238.6875 146.871094 239.34375 147.714844 239.980469 148.570312 C 240.617188 149.429688 241.234375 150.304688 241.828125 151.195312 C 242.421875 152.082031 242.996094 152.988281 243.542969 153.902344 C 244.09375 154.820312 244.621094 155.75 245.125 156.695312 C 245.628906 157.636719 246.109375 158.59375 246.566406 159.558594 C 247.023438 160.527344 247.457031 161.503906 247.867188 162.492188 C 248.277344 163.480469 248.660156 164.476562 249.019531 165.484375 C 249.382812 166.492188 249.71875 167.503906 250.027344 168.527344 C 250.335938 169.550781 250.621094 170.582031 250.882812 171.621094 C 251.140625 172.65625 251.375 173.699219 251.585938 174.75 C 251.792969 175.796875 251.976562 176.851562 252.132812 177.910156 C 252.289062 178.96875 252.421875 180.027344 252.527344 181.09375 C 252.632812 182.15625 252.710938 183.222656 252.761719 184.289062 C 252.816406 185.359375 252.839844 186.429688 252.839844 187.496094 Z M 252.839844 187.496094 " fill-opacity="1" fill-rule="nonzero"/></g><g clip-path="url(#57181385bc)"><path fill="#f4f6ff" d="M 187.496094 113.023438 C 145.371094 113.023438 111.25 147.144531 111.25 189.269531 C 111.25 231.398438 145.371094 265.519531 187.496094 265.519531 C 229.625 265.519531 263.746094 231.398438 263.746094 189.269531 C 263.746094 147.144531 229.625 113.023438 187.496094 113.023438 Z M 187.496094 250.269531 C 153.796875 250.269531 126.5 222.972656 126.5 189.269531 C 126.5 155.570312 153.796875 128.273438 187.496094 128.273438 C 221.199219 128.273438 248.496094 155.570312 248.496094 189.269531 C 248.496094 222.972656 221.199219 250.269531 187.496094 250.269531 Z M 187.496094 250.269531 " fill-opacity="1" fill-rule="nonzero"/></g><g clip-path="url(#8980692a36)"><path fill="#233dff" d="M 187.179688 48.6875 C 264.550781 48.6875 327.273438 111.40625 327.273438 188.777344 C 327.273438 266.148438 264.550781 328.871094 187.179688 328.871094 C 109.808594 328.871094 47.089844 266.148438 47.089844 188.777344 C 47.089844 111.40625 109.808594 48.6875 187.179688 48.6875 Z M 199.925781 74.859375 L 199.914062 86.894531 C 199.914062 93.925781 194.214844 99.628906 187.179688 99.628906 C 180.148438 99.628906 174.445312 93.925781 174.445312 86.894531 L 174.449219 74.855469 C 121.316406 80.726562 79.128906 122.914062 73.257812 176.046875 L 85.296875 176.042969 C 92.328125 176.042969 98.03125 181.746094 98.03125 188.777344 C 98.03125 195.8125 92.328125 201.515625 85.296875 201.515625 L 73.261719 201.523438 C 79.136719 254.648438 121.320312 296.828125 174.449219 302.699219 L 174.445312 290.664062 C 174.445312 283.628906 180.148438 277.929688 187.179688 277.929688 C 194.214844 277.929688 199.914062 283.628906 199.914062 290.664062 L 199.925781 302.699219 C 253.046875 296.824219 295.222656 254.644531 301.101562 201.523438 L 289.066406 201.515625 C 282.03125 201.515625 276.328125 195.8125 276.328125 188.777344 C 276.328125 181.746094 282.03125 176.042969 289.066406 176.042969 L 301.101562 176.046875 C 295.230469 122.917969 253.050781 80.734375 199.925781 74.859375 Z M 246.078125 115.15625 C 251.570312 119.550781 252.460938 127.5625 248.066406 133.054688 L 210.90625 179.496094 C 212.03125 182.371094 212.652344 185.503906 212.652344 188.777344 C 212.652344 202.84375 201.246094 214.25 187.179688 214.25 C 173.113281 214.25 161.707031 202.84375 161.707031 188.777344 C 161.707031 188.234375 161.726562 187.691406 161.761719 187.152344 L 141.910156 173.902344 C 136.054688 170.003906 134.476562 162.09375 138.375 156.242188 C 142.277344 150.390625 150.183594 148.808594 156.039062 152.710938 L 175.882812 165.941406 C 179.289062 164.253906 183.125 163.308594 187.179688 163.308594 C 188.484375 163.308594 189.769531 163.40625 191.019531 163.59375 L 228.175781 117.144531 C 232.570312 111.652344 240.585938 110.761719 246.078125 115.15625 Z M 246.078125 115.15625 " fill-opacity="1" fill-rule="nonzero"/></g></svg>