<svg xmlns="http://www.w3.org/2000/svg" xmlns:xlink="http://www.w3.org/1999/xlink" width="500" zoomAndPan="magnify" viewBox="0 0 375 374.999991" height="500" preserveAspectRatio="xMidYMid meet" version="1.0"><defs><clipPath id="98c25982bc"><path d="M 0 59.660156 L 375 59.660156 L 375 315.410156 L 0 315.410156 Z M 0 59.660156 " clip-rule="nonzero"/></clipPath><clipPath id="19ae05bc3e"><path d="M 28.277344 78.9375 L 347 78.9375 L 347 295.6875 L 28.277344 295.6875 Z M 28.277344 78.9375 " clip-rule="nonzero"/></clipPath><clipPath id="6bd12882e2"><path d="M 67.273438 67.273438 L 308.023438 67.273438 L 308.023438 308.023438 L 67.273438 308.023438 Z M 67.273438 67.273438 " clip-rule="nonzero"/></clipPath><clipPath id="62890ef502"><path d="M 63.726562 63.726562 L 311.226562 63.726562 L 311.226562 311.226562 L 63.726562 311.226562 Z M 63.726562 63.726562 " clip-rule="nonzero"/></clipPath><clipPath id="1d7275629a"><path d="M 59.660156 59.660156 L 315.410156 59.660156 L 315.410156 315.410156 L 59.660156 315.410156 Z M 59.660156 59.660156 " clip-rule="nonzero"/></clipPath></defs><g clip-path="url(#98c25982bc)"><path fill="#233dff" d="M 187.5 59.660156 C 102.273438 59.660156 29.488281 112.671875 0 187.5 C 29.488281 262.328125 102.273438 315.339844 187.5 315.339844 C 272.726562 315.339844 345.511719 262.328125 375 187.5 C 345.511719 112.671875 272.8125 59.660156 187.5 59.660156 Z M 187.5 272.726562 C 140.453125 272.726562 102.273438 234.542969 102.273438 187.5 C 102.273438 140.453125 140.453125 102.273438 187.5 102.273438 C 234.546875 102.273438 272.726562 140.453125 272.726562 187.5 C 272.726562 234.542969 234.546875 272.726562 187.5 272.726562 Z M 187.5 136.363281 C 159.289062 136.363281 136.363281 159.289062 136.363281 187.5 C 136.363281 215.707031 159.289062 238.636719 187.5 238.636719 C 215.710938 238.636719 238.636719 215.707031 238.636719 187.5 C 238.636719 159.289062 215.710938 136.363281 187.5 136.363281 Z M 187.5 136.363281 " fill-opacity="1" fill-rule="nonzero"/></g><g clip-path="url(#19ae05bc3e)"><path fill="#ffffff" d="M 187.5 78.9375 C 115.128906 78.9375 53.324219 123.953125 28.28125 187.496094 C 53.324219 251.035156 115.128906 296.050781 187.5 296.050781 C 259.871094 296.050781 321.675781 251.035156 346.714844 187.496094 C 321.675781 123.953125 259.941406 78.9375 187.5 78.9375 Z M 187.5 259.867188 C 147.550781 259.867188 115.128906 227.445312 115.128906 187.496094 C 115.128906 147.546875 147.550781 115.125 187.5 115.125 C 227.449219 115.125 259.871094 147.546875 259.871094 187.496094 C 259.871094 227.445312 227.449219 259.867188 187.5 259.867188 Z M 187.5 144.074219 C 163.542969 144.074219 144.078125 163.539062 144.078125 187.496094 C 144.078125 211.449219 163.542969 230.917969 187.5 230.917969 C 211.453125 230.917969 230.921875 211.449219 230.921875 187.496094 C 230.921875 163.539062 211.453125 144.074219 187.5 144.074219 Z M 187.5 144.074219 " fill-opacity="1" fill-rule="nonzero"/></g><g clip-path="url(#6bd12882e2)"><path fill="#ffffff" d="M 308.023438 187.648438 C 308.023438 189.621094 307.976562 191.589844 307.878906 193.554688 C 307.78125 195.523438 307.636719 197.488281 307.445312 199.449219 C 307.25 201.410156 307.011719 203.363281 306.722656 205.3125 C 306.433594 207.261719 306.09375 209.199219 305.710938 211.132812 C 305.328125 213.066406 304.894531 214.988281 304.417969 216.898438 C 303.9375 218.808594 303.414062 220.707031 302.839844 222.59375 C 302.269531 224.476562 301.652344 226.347656 300.988281 228.203125 C 300.324219 230.058594 299.613281 231.894531 298.859375 233.714844 C 298.105469 235.535156 297.308594 237.335938 296.46875 239.117188 C 295.625 240.898438 294.738281 242.65625 293.808594 244.394531 C 292.882812 246.132812 291.910156 247.84375 290.898438 249.535156 C 289.886719 251.222656 288.832031 252.886719 287.738281 254.527344 C 286.644531 256.164062 285.507812 257.773438 284.335938 259.355469 C 283.160156 260.9375 281.949219 262.492188 280.699219 264.015625 C 279.449219 265.539062 278.164062 267.027344 276.839844 268.488281 C 275.519531 269.949219 274.160156 271.375 272.765625 272.765625 C 271.375 274.160156 269.949219 275.519531 268.488281 276.839844 C 267.027344 278.164062 265.539062 279.449219 264.015625 280.699219 C 262.492188 281.949219 260.9375 283.160156 259.355469 284.335938 C 257.773438 285.507812 256.164062 286.644531 254.527344 287.738281 C 252.886719 288.832031 251.222656 289.886719 249.535156 290.898438 C 247.84375 291.910156 246.132812 292.882812 244.394531 293.808594 C 242.65625 294.738281 240.898438 295.625 239.117188 296.46875 C 237.335938 297.308594 235.535156 298.105469 233.714844 298.859375 C 231.894531 299.613281 230.058594 300.324219 228.203125 300.988281 C 226.347656 301.652344 224.476562 302.269531 222.59375 302.839844 C 220.707031 303.414062 218.808594 303.9375 216.898438 304.417969 C 214.988281 304.894531 213.066406 305.328125 211.132812 305.710938 C 209.199219 306.09375 207.261719 306.433594 205.3125 306.722656 C 203.363281 307.011719 201.410156 307.25 199.449219 307.445312 C 197.488281 307.636719 195.523438 307.78125 193.554688 307.878906 C 191.589844 307.976562 189.621094 308.023438 187.648438 308.023438 C 185.679688 308.023438 183.710938 307.976562 181.742188 307.878906 C 179.773438 307.78125 177.8125 307.636719 175.851562 307.445312 C 173.890625 307.25 171.933594 307.011719 169.988281 306.722656 C 168.039062 306.433594 166.097656 306.09375 164.164062 305.710938 C 162.234375 305.328125 160.3125 304.894531 158.402344 304.417969 C 156.488281 303.9375 154.589844 303.414062 152.707031 302.839844 C 150.820312 302.269531 148.949219 301.652344 147.097656 300.988281 C 145.242188 300.324219 143.402344 299.613281 141.582031 298.859375 C 139.761719 298.105469 137.964844 297.308594 136.183594 296.46875 C 134.402344 295.625 132.640625 294.738281 130.90625 293.808594 C 129.167969 292.882812 127.453125 291.910156 125.765625 290.898438 C 124.074219 289.886719 122.410156 288.832031 120.773438 287.738281 C 119.132812 286.644531 117.523438 285.507812 115.941406 284.335938 C 114.359375 283.160156 112.808594 281.949219 111.285156 280.699219 C 109.761719 279.449219 108.269531 278.164062 106.808594 276.839844 C 105.351562 275.519531 103.925781 274.160156 102.53125 272.765625 C 101.136719 271.375 99.78125 269.949219 98.457031 268.488281 C 97.132812 267.027344 95.847656 265.539062 94.597656 264.015625 C 93.347656 262.492188 92.136719 260.9375 90.964844 259.355469 C 89.789062 257.773438 88.65625 256.164062 87.5625 254.527344 C 86.464844 252.886719 85.414062 251.222656 84.398438 249.535156 C 83.386719 247.84375 82.417969 246.132812 81.488281 244.394531 C 80.558594 242.65625 79.671875 240.898438 78.832031 239.117188 C 77.988281 237.335938 77.191406 235.535156 76.4375 233.714844 C 75.683594 231.894531 74.972656 230.058594 74.3125 228.203125 C 73.648438 226.347656 73.03125 224.476562 72.457031 222.59375 C 71.886719 220.707031 71.359375 218.808594 70.882812 216.898438 C 70.402344 214.988281 69.972656 213.066406 69.585938 211.132812 C 69.203125 209.199219 68.867188 207.261719 68.578125 205.3125 C 68.289062 203.363281 68.046875 201.410156 67.855469 199.449219 C 67.660156 197.488281 67.515625 195.523438 67.417969 193.554688 C 67.324219 191.589844 67.273438 189.621094 67.273438 187.648438 C 67.273438 185.679688 67.324219 183.710938 67.417969 181.742188 C 67.515625 179.773438 67.660156 177.8125 67.855469 175.851562 C 68.046875 173.890625 68.289062 171.933594 68.578125 169.988281 C 68.867188 168.039062 69.203125 166.097656 69.585938 164.164062 C 69.972656 162.234375 70.402344 160.3125 70.882812 158.402344 C 71.359375 156.488281 71.886719 154.589844 72.457031 152.707031 C 73.03125 150.820312 73.648438 148.949219 74.3125 147.097656 C 74.972656 145.242188 75.683594 143.402344 76.4375 141.582031 C 77.191406 139.761719 77.988281 137.964844 78.832031 136.183594 C 79.671875 134.402344 80.558594 132.640625 81.488281 130.90625 C 82.417969 129.167969 83.386719 127.453125 84.398438 125.765625 C 85.414062 124.074219 86.464844 122.410156 87.5625 120.773438 C 88.65625 119.132812 89.789062 117.523438 90.964844 115.941406 C 92.136719 114.359375 93.347656 112.808594 94.597656 111.285156 C 95.847656 109.761719 97.132812 108.269531 98.457031 106.808594 C 99.78125 105.351562 101.136719 103.925781 102.53125 102.53125 C 103.925781 101.136719 105.351562 99.78125 106.808594 98.457031 C 108.269531 97.132812 109.761719 95.847656 111.285156 94.597656 C 112.808594 93.347656 114.359375 92.136719 115.941406 90.964844 C 117.523438 89.789062 119.132812 88.65625 120.773438 87.5625 C 122.410156 86.464844 124.074219 85.414062 125.765625 84.398438 C 127.453125 83.386719 129.167969 82.417969 130.90625 81.488281 C 132.640625 80.558594 134.402344 79.671875 136.183594 78.832031 C 137.964844 77.988281 139.761719 77.191406 141.582031 76.4375 C 143.402344 75.683594 145.242188 74.972656 147.097656 74.3125 C 148.949219 73.648438 150.820312 73.03125 152.707031 72.457031 C 154.589844 71.886719 156.488281 71.359375 158.402344 70.882812 C 160.3125 70.402344 162.234375 69.972656 164.164062 69.585938 C 166.097656 69.203125 168.039062 68.867188 169.988281 68.578125 C 171.933594 68.289062 173.890625 68.046875 175.851562 67.855469 C 177.8125 67.660156 179.773438 67.515625 181.742188 67.417969 C 183.710938 67.324219 185.679688 67.273438 187.648438 67.273438 C 189.621094 67.273438 191.589844 67.324219 193.554688 67.417969 C 195.523438 67.515625 197.488281 67.660156 199.449219 67.855469 C 201.410156 68.046875 203.363281 68.289062 205.3125 68.578125 C 207.261719 68.867188 209.199219 69.203125 211.132812 69.585938 C 213.066406 69.972656 214.988281 70.402344 216.898438 70.882812 C 218.808594 71.359375 220.707031 71.886719 222.59375 72.457031 C 224.476562 73.03125 226.347656 73.648438 228.203125 74.3125 C 230.058594 74.972656 231.894531 75.683594 233.714844 76.4375 C 235.535156 77.191406 237.335938 77.988281 239.117188 78.832031 C 240.898438 79.671875 242.65625 80.558594 244.394531 81.488281 C 246.132812 82.417969 247.84375 83.386719 249.535156 84.398438 C 251.222656 85.414062 252.886719 86.464844 254.527344 87.5625 C 256.164062 88.65625 257.773438 89.789062 259.355469 90.964844 C 260.9375 92.136719 262.492188 93.347656 264.015625 94.597656 C 265.539062 95.847656 267.027344 97.132812 268.488281 98.457031 C 269.949219 99.78125 271.375 101.136719 272.765625 102.53125 C 274.160156 103.925781 275.519531 105.351562 276.839844 106.808594 C 278.164062 108.269531 279.449219 109.761719 280.699219 111.285156 C 281.949219 112.808594 283.160156 114.359375 284.335938 115.941406 C 285.507812 117.523438 286.644531 119.132812 287.738281 120.773438 C 288.832031 122.410156 289.886719 124.074219 290.898438 125.765625 C 291.910156 127.453125 292.882812 129.167969 293.808594 130.90625 C 294.738281 132.640625 295.625 134.402344 296.46875 136.183594 C 297.308594 137.964844 298.105469 139.761719 298.859375 141.582031 C 299.613281 143.402344 300.324219 145.242188 300.988281 147.097656 C 301.652344 148.949219 302.269531 150.820312 302.839844 152.707031 C 303.414062 154.589844 303.9375 156.488281 304.417969 158.402344 C 304.894531 160.3125 305.328125 162.234375 305.710938 164.164062 C 306.09375 166.097656 306.433594 168.039062 306.722656 169.988281 C 307.011719 171.933594 307.25 173.890625 307.445312 175.851562 C 307.636719 177.8125 307.78125 179.773438 307.878906 181.742188 C 307.976562 183.710938 308.023438 185.679688 308.023438 187.648438 Z M 308.023438 187.648438 " fill-opacity="1" fill-rule="nonzero"/></g><g clip-path="url(#62890ef502)"><path fill="#050a30" d="M 187.496094 63.726562 C 119.140625 63.726562 63.726562 119.140625 63.726562 187.496094 C 63.726562 255.851562 119.140625 311.261719 187.496094 311.261719 C 255.851562 311.261719 311.261719 255.851562 311.261719 187.496094 C 311.261719 119.140625 255.851562 63.726562 187.496094 63.726562 Z M 219.5 237.003906 L 178.746094 196.246094 C 176.417969 193.917969 175.117188 190.777344 175.117188 187.496094 L 175.117188 125.613281 C 175.117188 118.78125 180.664062 113.234375 187.496094 113.234375 C 194.328125 113.234375 199.871094 118.78125 199.871094 125.613281 L 199.871094 182.371094 L 237.003906 219.5 C 241.828125 224.328125 241.828125 232.175781 237.003906 237.003906 C 232.175781 241.828125 224.328125 241.828125 219.5 237.003906 Z M 219.5 237.003906 " fill-opacity="1" fill-rule="nonzero"/></g><g clip-path="url(#1d7275629a)"><path fill="#233dff" d="M 187.5 59.660156 C 116.867188 59.660156 59.660156 116.867188 59.660156 187.5 C 59.660156 258.128906 116.867188 315.339844 187.5 315.339844 C 258.128906 315.339844 315.339844 258.128906 315.339844 187.5 C 315.339844 116.867188 258.128906 59.660156 187.5 59.660156 Z M 187.5 289.769531 C 130.992188 289.769531 85.226562 244.003906 85.226562 187.5 C 85.226562 130.992188 130.992188 85.226562 187.5 85.226562 C 244.003906 85.226562 289.769531 130.992188 289.769531 187.5 C 289.769531 244.003906 244.003906 289.769531 187.5 289.769531 Z M 187.5 289.769531 " fill-opacity="1" fill-rule="nonzero"/></g></svg>