<svg xmlns="http://www.w3.org/2000/svg" xmlns:xlink="http://www.w3.org/1999/xlink" width="500" zoomAndPan="magnify" viewBox="0 0 375 374.999991" height="500" preserveAspectRatio="xMidYMid meet" version="1.0"><defs><clipPath id="1ed65858fa"><path d="M 0 59.660156 L 375 59.660156 L 375 315.625 L 0 315.625 Z M 0 59.660156 " clip-rule="nonzero"/></clipPath><clipPath id="d7bb1bccf1"><path d="M 13.378906 68.78125 L 361.695312 68.78125 L 361.695312 306.566406 L 13.378906 306.566406 Z M 13.378906 68.78125 " clip-rule="nonzero"/></clipPath><clipPath id="c088ef244e"><path d="M 72.652344 72.652344 L 302.441406 72.652344 L 302.441406 302.441406 L 72.652344 302.441406 Z M 72.652344 72.652344 " clip-rule="nonzero"/></clipPath><clipPath id="0b1250d260"><path d="M 59.660156 59.660156 L 315.625 59.660156 L 315.625 315.625 L 59.660156 315.625 Z M 59.660156 59.660156 " clip-rule="nonzero"/></clipPath><clipPath id="6167e3f3cf"><path d="M 251.160156 70.933594 L 304.242188 70.933594 L 304.242188 304.355469 L 251.160156 304.355469 Z M 251.160156 70.933594 " clip-rule="nonzero"/></clipPath><clipPath id="df95753d84"><path d="M 70.933594 70.933594 L 169.101562 70.933594 L 169.101562 290.539062 L 70.933594 290.539062 Z M 70.933594 70.933594 " clip-rule="nonzero"/></clipPath><clipPath id="c2849efcec"><path d="M 70.933594 70.933594 L 304.355469 70.933594 L 304.355469 100.019531 L 70.933594 100.019531 Z M 70.933594 70.933594 " clip-rule="nonzero"/></clipPath><clipPath id="59d62d4bdb"><path d="M 135.402344 96.746094 L 251.75 96.746094 L 251.75 275.632812 L 135.402344 275.632812 Z M 135.402344 96.746094 " clip-rule="nonzero"/></clipPath><clipPath id="49d305f9a7"><path d="M 70.636719 275.425781 L 304.0625 275.425781 L 304.0625 294.332031 L 70.636719 294.332031 Z M 70.636719 275.425781 " clip-rule="nonzero"/></clipPath><clipPath id="e5925d54d7"><path d="M 70.636719 274.972656 L 304.0625 274.972656 L 304.0625 304.058594 L 70.636719 304.058594 Z M 70.636719 274.972656 " clip-rule="nonzero"/></clipPath></defs><g clip-path="url(#1ed65858fa)"><path fill="#050a30" d="M 187.496094 59.660156 C 102.273438 59.660156 29.488281 112.671875 0 187.5 C 29.488281 262.328125 102.273438 315.339844 187.496094 315.339844 C 272.722656 315.339844 345.507812 262.328125 374.996094 187.5 C 345.507812 112.671875 272.808594 59.660156 187.496094 59.660156 Z M 187.496094 272.726562 C 140.453125 272.726562 102.273438 234.542969 102.273438 187.5 C 102.273438 140.457031 140.453125 102.273438 187.496094 102.273438 C 234.542969 102.273438 272.722656 140.457031 272.722656 187.5 C 272.722656 234.542969 234.542969 272.726562 187.496094 272.726562 Z M 187.496094 136.363281 C 159.289062 136.363281 136.363281 159.289062 136.363281 187.5 C 136.363281 215.710938 159.289062 238.636719 187.496094 238.636719 C 215.707031 238.636719 238.632812 215.710938 238.632812 187.5 C 238.632812 159.289062 215.707031 136.363281 187.496094 136.363281 Z M 187.496094 136.363281 " fill-opacity="1" fill-rule="nonzero"/></g><g clip-path="url(#d7bb1bccf1)"><path fill="#233dff" d="M 187.496094 68.78125 C 108.351562 68.78125 40.761719 118.007812 13.378906 187.5 C 40.761719 256.988281 108.351562 306.214844 187.496094 306.214844 C 266.640625 306.214844 334.230469 256.988281 361.617188 187.5 C 334.230469 118.007812 266.722656 68.78125 187.496094 68.78125 Z M 187.496094 266.644531 C 143.808594 266.644531 108.351562 231.1875 108.351562 187.5 C 108.351562 143.808594 143.808594 108.351562 187.496094 108.351562 C 231.183594 108.351562 266.640625 143.808594 266.640625 187.5 C 266.640625 231.1875 231.183594 266.644531 187.496094 266.644531 Z M 187.496094 140.011719 C 161.300781 140.011719 140.011719 161.300781 140.011719 187.5 C 140.011719 213.695312 161.300781 234.984375 187.496094 234.984375 C 213.695312 234.984375 234.984375 213.695312 234.984375 187.5 C 234.984375 161.300781 213.695312 140.011719 187.496094 140.011719 Z M 187.496094 140.011719 " fill-opacity="1" fill-rule="nonzero"/></g><g clip-path="url(#c088ef244e)"><path fill="#050a30" d="M 302.335938 187.496094 C 302.335938 189.375 302.292969 191.253906 302.199219 193.128906 C 302.105469 195.007812 301.96875 196.882812 301.785156 198.75 C 301.601562 200.621094 301.371094 202.488281 301.09375 204.347656 C 300.820312 206.207031 300.496094 208.054688 300.132812 209.898438 C 299.765625 211.742188 299.351562 213.578125 298.894531 215.398438 C 298.4375 217.222656 297.9375 219.035156 297.394531 220.832031 C 296.847656 222.628906 296.257812 224.414062 295.625 226.183594 C 294.992188 227.953125 294.316406 229.707031 293.597656 231.445312 C 292.875 233.179688 292.113281 234.898438 291.3125 236.597656 C 290.507812 238.296875 289.664062 239.972656 288.777344 241.632812 C 287.890625 243.289062 286.964844 244.925781 286 246.535156 C 285.03125 248.148438 284.027344 249.734375 282.984375 251.296875 C 281.9375 252.859375 280.855469 254.398438 279.738281 255.90625 C 278.617188 257.417969 277.460938 258.898438 276.269531 260.351562 C 275.078125 261.804688 273.851562 263.226562 272.589844 264.617188 C 271.324219 266.011719 270.03125 267.371094 268.703125 268.703125 C 267.371094 270.03125 266.011719 271.324219 264.617188 272.589844 C 263.226562 273.851562 261.804688 275.078125 260.351562 276.269531 C 258.898438 277.460938 257.417969 278.617188 255.90625 279.738281 C 254.398438 280.855469 252.859375 281.9375 251.296875 282.984375 C 249.734375 284.027344 248.148438 285.03125 246.535156 286 C 244.925781 286.964844 243.289062 287.890625 241.632812 288.777344 C 239.972656 289.664062 238.296875 290.507812 236.597656 291.3125 C 234.898438 292.117188 233.179688 292.875 231.445312 293.597656 C 229.707031 294.316406 227.953125 294.992188 226.183594 295.625 C 224.414062 296.257812 222.628906 296.847656 220.832031 297.394531 C 219.035156 297.9375 217.222656 298.4375 215.398438 298.894531 C 213.578125 299.351562 211.742188 299.765625 209.898438 300.132812 C 208.054688 300.496094 206.207031 300.820312 204.347656 301.09375 C 202.488281 301.371094 200.621094 301.601562 198.75 301.785156 C 196.882812 301.96875 195.007812 302.105469 193.128906 302.199219 C 191.253906 302.292969 189.375 302.335938 187.496094 302.335938 C 185.617188 302.335938 183.738281 302.292969 181.859375 302.199219 C 179.984375 302.105469 178.109375 301.96875 176.238281 301.785156 C 174.367188 301.601562 172.503906 301.371094 170.644531 301.09375 C 168.785156 300.820312 166.933594 300.496094 165.089844 300.132812 C 163.246094 299.765625 161.414062 299.351562 159.589844 298.894531 C 157.765625 298.4375 155.957031 297.9375 154.15625 297.394531 C 152.359375 296.847656 150.574219 296.257812 148.804688 295.625 C 147.035156 294.992188 145.285156 294.316406 143.546875 293.597656 C 141.808594 292.875 140.09375 292.117188 138.394531 291.3125 C 136.695312 290.507812 135.015625 289.664062 133.359375 288.777344 C 131.703125 287.890625 130.066406 286.964844 128.453125 286 C 126.84375 285.03125 125.253906 284.027344 123.691406 282.984375 C 122.128906 281.9375 120.59375 280.855469 119.082031 279.738281 C 117.574219 278.617188 116.09375 277.460938 114.640625 276.269531 C 113.1875 275.078125 111.765625 273.851562 110.371094 272.589844 C 108.980469 271.324219 107.617188 270.03125 106.289062 268.703125 C 104.960938 267.371094 103.664062 266.011719 102.402344 264.617188 C 101.140625 263.226562 99.914062 261.804688 98.71875 260.351562 C 97.527344 258.898438 96.371094 257.417969 95.253906 255.90625 C 94.132812 254.398438 93.050781 252.859375 92.007812 251.296875 C 90.960938 249.734375 89.957031 248.148438 88.992188 246.535156 C 88.023438 244.925781 87.097656 243.289062 86.214844 241.632812 C 85.328125 239.972656 84.480469 238.296875 83.679688 236.597656 C 82.875 234.898438 82.113281 233.179688 81.394531 231.445312 C 80.675781 229.707031 80 227.953125 79.367188 226.183594 C 78.734375 224.414062 78.144531 222.628906 77.597656 220.832031 C 77.050781 219.035156 76.550781 217.222656 76.09375 215.398438 C 75.636719 213.578125 75.226562 211.742188 74.859375 209.898438 C 74.492188 208.054688 74.171875 206.207031 73.894531 204.347656 C 73.621094 202.488281 73.390625 200.621094 73.207031 198.75 C 73.019531 196.882812 72.882812 195.007812 72.789062 193.128906 C 72.699219 191.253906 72.652344 189.375 72.652344 187.496094 C 72.652344 185.617188 72.699219 183.738281 72.789062 181.859375 C 72.882812 179.984375 73.019531 178.109375 73.207031 176.238281 C 73.390625 174.367188 73.621094 172.503906 73.894531 170.644531 C 74.171875 168.785156 74.492188 166.933594 74.859375 165.089844 C 75.226562 163.246094 75.636719 161.414062 76.09375 159.589844 C 76.550781 157.765625 77.050781 155.957031 77.597656 154.15625 C 78.144531 152.359375 78.734375 150.574219 79.367188 148.804688 C 80 147.035156 80.675781 145.285156 81.394531 143.546875 C 82.113281 141.808594 82.875 140.09375 83.679688 138.394531 C 84.480469 136.695312 85.328125 135.015625 86.214844 133.359375 C 87.097656 131.703125 88.023438 130.066406 88.992188 128.453125 C 89.957031 126.84375 90.960938 125.253906 92.007812 123.691406 C 93.050781 122.128906 94.132812 120.59375 95.253906 119.082031 C 96.371094 117.574219 97.527344 116.09375 98.71875 114.640625 C 99.914062 113.1875 101.140625 111.765625 102.402344 110.371094 C 103.664062 108.980469 104.960938 107.617188 106.289062 106.289062 C 107.617188 104.960938 108.980469 103.664062 110.371094 102.402344 C 111.765625 101.140625 113.1875 99.914062 114.640625 98.71875 C 116.09375 97.527344 117.574219 96.371094 119.082031 95.253906 C 120.59375 94.132812 122.128906 93.050781 123.691406 92.007812 C 125.253906 90.960938 126.84375 89.957031 128.453125 88.992188 C 130.066406 88.023438 131.703125 87.097656 133.359375 86.214844 C 135.015625 85.328125 136.695312 84.480469 138.394531 83.679688 C 140.09375 82.875 141.808594 82.113281 143.546875 81.394531 C 145.285156 80.675781 147.035156 80 148.804688 79.367188 C 150.574219 78.734375 152.359375 78.144531 154.15625 77.597656 C 155.957031 77.050781 157.765625 76.550781 159.589844 76.09375 C 161.414062 75.636719 163.246094 75.226562 165.089844 74.859375 C 166.933594 74.492188 168.785156 74.171875 170.644531 73.894531 C 172.503906 73.621094 174.367188 73.390625 176.238281 73.207031 C 178.109375 73.019531 179.984375 72.882812 181.859375 72.789062 C 183.738281 72.699219 185.617188 72.652344 187.496094 72.652344 C 189.375 72.652344 191.253906 72.699219 193.128906 72.789062 C 195.007812 72.882812 196.882812 73.019531 198.75 73.207031 C 200.621094 73.390625 202.488281 73.621094 204.347656 73.894531 C 206.207031 74.171875 208.054688 74.492188 209.898438 74.859375 C 211.742188 75.226562 213.578125 75.636719 215.398438 76.09375 C 217.222656 76.550781 219.035156 77.050781 220.832031 77.597656 C 222.628906 78.144531 224.414062 78.734375 226.183594 79.367188 C 227.953125 80 229.707031 80.675781 231.445312 81.394531 C 233.179688 82.113281 234.898438 82.875 236.597656 83.679688 C 238.296875 84.480469 239.972656 85.328125 241.632812 86.214844 C 243.289062 87.097656 244.925781 88.023438 246.535156 88.992188 C 248.148438 89.957031 249.734375 90.960938 251.296875 92.007812 C 252.859375 93.050781 254.398438 94.132812 255.90625 95.253906 C 257.417969 96.371094 258.898438 97.527344 260.351562 98.71875 C 261.804688 99.914062 263.226562 101.140625 264.617188 102.402344 C 266.011719 103.664062 267.371094 104.960938 268.703125 106.289062 C 270.03125 107.617188 271.324219 108.980469 272.589844 110.371094 C 273.851562 111.765625 275.078125 113.1875 276.269531 114.640625 C 277.460938 116.09375 278.617188 117.574219 279.738281 119.082031 C 280.855469 120.59375 281.9375 122.128906 282.984375 123.691406 C 284.027344 125.253906 285.03125 126.84375 286 128.453125 C 286.964844 130.066406 287.890625 131.703125 288.777344 133.359375 C 289.664062 135.015625 290.507812 136.695312 291.3125 138.394531 C 292.113281 140.09375 292.875 141.808594 293.597656 143.546875 C 294.316406 145.285156 294.992188 147.035156 295.625 148.804688 C 296.257812 150.574219 296.847656 152.359375 297.394531 154.15625 C 297.9375 155.957031 298.4375 157.765625 298.894531 159.589844 C 299.351562 161.414062 299.765625 163.246094 300.132812 165.089844 C 300.496094 166.933594 300.820312 168.785156 301.09375 170.644531 C 301.371094 172.503906 301.601562 174.367188 301.785156 176.238281 C 301.96875 178.109375 302.105469 179.984375 302.199219 181.859375 C 302.292969 183.738281 302.335938 185.617188 302.335938 187.496094 Z M 302.335938 187.496094 " fill-opacity="1" fill-rule="nonzero"/></g><g clip-path="url(#0b1250d260)"><path fill="#050a30" d="M 187.5 59.660156 C 116.867188 59.660156 59.660156 116.867188 59.660156 187.5 C 59.660156 258.132812 116.867188 315.339844 187.5 315.339844 C 258.132812 315.339844 315.339844 258.132812 315.339844 187.5 C 315.339844 116.867188 258.132812 59.660156 187.5 59.660156 Z M 187.5 289.773438 C 130.996094 289.773438 85.226562 244.003906 85.226562 187.5 C 85.226562 130.996094 130.996094 85.226562 187.5 85.226562 C 244.003906 85.226562 289.773438 130.996094 289.773438 187.5 C 289.773438 244.003906 244.003906 289.773438 187.5 289.773438 Z M 187.5 289.773438 " fill-opacity="1" fill-rule="nonzero"/></g><g clip-path="url(#6167e3f3cf)"><path fill="#e2eaff" d="M 304.0625 187.496094 C 304.0625 189.40625 304.015625 191.3125 303.921875 193.214844 C 303.828125 195.121094 303.6875 197.023438 303.5 198.921875 C 303.3125 200.820312 303.078125 202.714844 302.800781 204.601562 C 302.519531 206.488281 302.195312 208.367188 301.820312 210.238281 C 301.449219 212.109375 301.03125 213.96875 300.566406 215.820312 C 300.105469 217.671875 299.59375 219.507812 299.042969 221.332031 C 298.488281 223.160156 297.890625 224.96875 297.246094 226.765625 C 296.605469 228.5625 295.917969 230.339844 295.1875 232.105469 C 294.457031 233.867188 293.683594 235.609375 292.871094 237.335938 C 292.054688 239.058594 291.195312 240.761719 290.296875 242.445312 C 289.398438 244.128906 288.457031 245.785156 287.476562 247.421875 C 286.496094 249.058594 285.476562 250.671875 284.417969 252.257812 C 283.355469 253.84375 282.257812 255.402344 281.121094 256.933594 C 279.984375 258.464844 278.8125 259.96875 277.601562 261.445312 C 276.390625 262.917969 275.144531 264.363281 273.863281 265.777344 C 272.585938 267.191406 271.269531 268.570312 269.921875 269.921875 C 268.570312 271.269531 267.191406 272.585938 265.777344 273.863281 C 264.363281 275.144531 262.917969 276.390625 261.445312 277.601562 C 259.96875 278.8125 258.464844 279.984375 256.933594 281.121094 C 255.402344 282.257812 253.84375 283.355469 252.257812 284.417969 C 250.671875 285.476562 249.058594 286.496094 247.421875 287.476562 C 245.785156 288.457031 244.128906 289.398438 242.445312 290.296875 C 240.761719 291.195312 239.058594 292.054688 237.335938 292.871094 C 235.609375 293.683594 233.867188 294.457031 232.105469 295.1875 C 230.339844 295.917969 228.5625 296.605469 226.765625 297.246094 C 224.96875 297.890625 223.160156 298.488281 221.332031 299.042969 C 219.507812 299.59375 217.671875 300.105469 215.820312 300.566406 C 213.96875 301.03125 212.109375 301.449219 210.238281 301.820312 C 208.367188 302.191406 206.488281 302.519531 204.601562 302.800781 C 202.714844 303.078125 200.820312 303.3125 198.921875 303.5 C 197.023438 303.6875 195.121094 303.828125 193.214844 303.921875 C 191.3125 304.015625 189.40625 304.0625 187.496094 304.0625 C 185.589844 304.0625 183.683594 304.015625 181.777344 303.921875 C 179.871094 303.828125 177.96875 303.6875 176.070312 303.5 C 174.171875 303.3125 172.28125 303.078125 170.394531 302.800781 C 168.507812 302.519531 166.628906 302.191406 164.757812 301.820312 C 162.886719 301.449219 161.023438 301.03125 159.175781 300.566406 C 157.324219 300.105469 155.484375 299.59375 153.660156 299.042969 C 151.835938 298.488281 150.023438 297.890625 148.226562 297.246094 C 146.429688 296.605469 144.652344 295.917969 142.890625 295.1875 C 141.128906 294.457031 139.382812 293.683594 137.660156 292.871094 C 135.933594 292.054688 134.230469 291.195312 132.550781 290.296875 C 130.867188 289.398438 129.207031 288.457031 127.570312 287.476562 C 125.933594 286.496094 124.324219 285.476562 122.738281 284.417969 C 121.152344 283.355469 119.59375 282.257812 118.058594 281.121094 C 116.527344 279.984375 115.023438 278.8125 113.550781 277.601562 C 112.074219 276.390625 110.632812 275.144531 109.21875 273.863281 C 107.804688 272.585938 106.421875 271.269531 105.074219 269.921875 C 103.726562 268.570312 102.410156 267.191406 101.128906 265.777344 C 99.847656 264.363281 98.601562 262.917969 97.390625 261.445312 C 96.179688 259.96875 95.007812 258.464844 93.871094 256.933594 C 92.734375 255.402344 91.636719 253.84375 90.578125 252.257812 C 89.519531 250.671875 88.496094 249.058594 87.515625 247.421875 C 86.535156 245.785156 85.597656 244.128906 84.695312 242.445312 C 83.796875 240.761719 82.941406 239.058594 82.125 237.335938 C 81.308594 235.609375 80.535156 233.867188 79.804688 232.105469 C 79.074219 230.339844 78.390625 228.5625 77.746094 226.765625 C 77.105469 224.96875 76.507812 223.160156 75.953125 221.332031 C 75.398438 219.507812 74.890625 217.671875 74.425781 215.820312 C 73.960938 213.96875 73.542969 212.109375 73.171875 210.238281 C 72.800781 208.367188 72.472656 206.488281 72.195312 204.601562 C 71.914062 202.714844 71.679688 200.820312 71.496094 198.921875 C 71.308594 197.023438 71.167969 195.121094 71.074219 193.214844 C 70.980469 191.3125 70.933594 189.40625 70.933594 187.496094 C 70.933594 185.589844 70.980469 183.683594 71.074219 181.777344 C 71.167969 179.871094 71.308594 177.96875 71.496094 176.070312 C 71.679688 174.171875 71.914062 172.28125 72.195312 170.394531 C 72.472656 168.507812 72.800781 166.628906 73.171875 164.757812 C 73.542969 162.886719 73.960938 161.023438 74.425781 159.175781 C 74.890625 157.324219 75.398438 155.484375 75.953125 153.660156 C 76.507812 151.835938 77.105469 150.023438 77.746094 148.226562 C 78.390625 146.429688 79.074219 144.652344 79.804688 142.890625 C 80.535156 141.128906 81.308594 139.382812 82.125 137.660156 C 82.941406 135.933594 83.796875 134.230469 84.695312 132.550781 C 85.597656 130.867188 86.535156 129.207031 87.515625 127.570312 C 88.496094 125.933594 89.519531 124.324219 90.578125 122.738281 C 91.636719 121.152344 92.734375 119.59375 93.871094 118.058594 C 95.007812 116.527344 96.179688 115.023438 97.390625 113.550781 C 98.601562 112.074219 99.847656 110.628906 101.128906 109.21875 C 102.410156 107.804688 103.726562 106.421875 105.074219 105.074219 C 106.421875 103.726562 107.804688 102.410156 109.21875 101.128906 C 110.632812 99.847656 112.074219 98.601562 113.550781 97.390625 C 115.023438 96.179688 116.527344 95.007812 118.058594 93.871094 C 119.59375 92.734375 121.152344 91.636719 122.738281 90.578125 C 124.324219 89.519531 125.933594 88.496094 127.570312 87.515625 C 129.207031 86.535156 130.867188 85.597656 132.550781 84.695312 C 134.230469 83.796875 135.933594 82.941406 137.660156 82.125 C 139.382812 81.308594 141.128906 80.535156 142.890625 79.804688 C 144.652344 79.074219 146.429688 78.390625 148.226562 77.746094 C 150.023438 77.105469 151.835938 76.507812 153.660156 75.953125 C 155.484375 75.398438 157.324219 74.890625 159.175781 74.425781 C 161.023438 73.960938 162.886719 73.542969 164.757812 73.171875 C 166.628906 72.800781 168.507812 72.472656 170.394531 72.195312 C 172.28125 71.914062 174.171875 71.679688 176.070312 71.496094 C 177.96875 71.308594 179.871094 71.167969 181.777344 71.074219 C 183.683594 70.980469 185.589844 70.933594 187.496094 70.933594 C 189.40625 70.933594 191.3125 70.980469 193.214844 71.074219 C 195.121094 71.167969 197.023438 71.308594 198.921875 71.496094 C 200.820312 71.679688 202.714844 71.914062 204.601562 72.195312 C 206.488281 72.472656 208.367188 72.800781 210.238281 73.171875 C 212.109375 73.542969 213.96875 73.960938 215.820312 74.425781 C 217.671875 74.890625 219.507812 75.398438 221.332031 75.953125 C 223.160156 76.507812 224.96875 77.105469 226.765625 77.746094 C 228.5625 78.390625 230.339844 79.074219 232.105469 79.804688 C 233.867188 80.535156 235.609375 81.308594 237.335938 82.125 C 239.058594 82.941406 240.761719 83.796875 242.445312 84.695312 C 244.128906 85.597656 245.785156 86.535156 247.421875 87.515625 C 249.058594 88.496094 250.671875 89.519531 252.257812 90.578125 C 253.84375 91.636719 255.402344 92.734375 256.933594 93.871094 C 258.464844 95.007812 259.96875 96.179688 261.445312 97.390625 C 262.917969 98.601562 264.363281 99.847656 265.777344 101.128906 C 267.191406 102.410156 268.570312 103.726562 269.921875 105.074219 C 271.269531 106.421875 272.585938 107.804688 273.863281 109.21875 C 275.144531 110.628906 276.390625 112.074219 277.601562 113.550781 C 278.8125 115.023438 279.984375 116.527344 281.121094 118.058594 C 282.257812 119.59375 283.355469 121.152344 284.417969 122.738281 C 285.476562 124.324219 286.496094 125.933594 287.476562 127.570312 C 288.457031 129.207031 289.398438 130.867188 290.296875 132.550781 C 291.195312 134.230469 292.054688 135.933594 292.871094 137.660156 C 293.683594 139.382812 294.457031 141.128906 295.1875 142.890625 C 295.917969 144.652344 296.605469 146.429688 297.246094 148.226562 C 297.890625 150.023438 298.488281 151.835938 299.042969 153.660156 C 299.59375 155.484375 300.105469 157.324219 300.566406 159.175781 C 301.03125 161.023438 301.449219 162.886719 301.820312 164.757812 C 302.195312 166.628906 302.519531 168.507812 302.800781 170.394531 C 303.078125 172.28125 303.3125 174.171875 303.5 176.070312 C 303.6875 177.96875 303.828125 179.871094 303.921875 181.777344 C 304.015625 183.683594 304.0625 185.589844 304.0625 187.496094 Z M 304.0625 187.496094 " fill-opacity="1" fill-rule="nonzero"/></g><g clip-path="url(#df95753d84)"><path fill="#e2eaff" d="M 304.0625 187.496094 C 304.0625 189.40625 304.015625 191.3125 303.921875 193.214844 C 303.828125 195.121094 303.6875 197.023438 303.5 198.921875 C 303.3125 200.820312 303.078125 202.714844 302.800781 204.601562 C 302.519531 206.488281 302.191406 208.367188 301.820312 210.238281 C 301.449219 212.109375 301.03125 213.96875 300.566406 215.820312 C 300.105469 217.671875 299.59375 219.507812 299.042969 221.332031 C 298.488281 223.160156 297.890625 224.96875 297.246094 226.765625 C 296.605469 228.5625 295.917969 230.339844 295.1875 232.105469 C 294.457031 233.867188 293.683594 235.609375 292.871094 237.335938 C 292.054688 239.058594 291.195312 240.761719 290.296875 242.445312 C 289.398438 244.128906 288.457031 245.785156 287.476562 247.421875 C 286.496094 249.058594 285.476562 250.671875 284.417969 252.257812 C 283.355469 253.84375 282.257812 255.402344 281.121094 256.933594 C 279.984375 258.464844 278.8125 259.96875 277.601562 261.445312 C 276.390625 262.917969 275.144531 264.363281 273.863281 265.777344 C 272.585938 267.191406 271.269531 268.570312 269.921875 269.921875 C 268.570312 271.269531 267.191406 272.585938 265.777344 273.863281 C 264.363281 275.144531 262.917969 276.390625 261.445312 277.601562 C 259.96875 278.8125 258.464844 279.984375 256.933594 281.121094 C 255.402344 282.257812 253.84375 283.355469 252.257812 284.417969 C 250.671875 285.476562 249.058594 286.496094 247.421875 287.476562 C 245.785156 288.457031 244.128906 289.398438 242.445312 290.296875 C 240.761719 291.195312 239.058594 292.054688 237.335938 292.871094 C 235.609375 293.683594 233.867188 294.457031 232.105469 295.1875 C 230.339844 295.917969 228.5625 296.605469 226.765625 297.246094 C 224.96875 297.890625 223.160156 298.488281 221.332031 299.042969 C 219.507812 299.59375 217.671875 300.105469 215.820312 300.566406 C 213.96875 301.03125 212.109375 301.449219 210.238281 301.820312 C 208.367188 302.191406 206.488281 302.519531 204.601562 302.800781 C 202.714844 303.078125 200.820312 303.3125 198.921875 303.5 C 197.023438 303.6875 195.121094 303.828125 193.214844 303.921875 C 191.3125 304.015625 189.40625 304.0625 187.496094 304.0625 C 185.589844 304.0625 183.683594 304.015625 181.777344 303.921875 C 179.871094 303.828125 177.96875 303.6875 176.070312 303.5 C 174.171875 303.3125 172.28125 303.078125 170.394531 302.800781 C 168.507812 302.519531 166.628906 302.191406 164.757812 301.820312 C 162.886719 301.449219 161.023438 301.03125 159.175781 300.566406 C 157.324219 300.105469 155.484375 299.59375 153.660156 299.042969 C 151.835938 298.488281 150.023438 297.890625 148.226562 297.246094 C 146.429688 296.605469 144.652344 295.917969 142.890625 295.1875 C 141.128906 294.457031 139.382812 293.683594 137.660156 292.871094 C 135.933594 292.054688 134.230469 291.195312 132.550781 290.296875 C 130.867188 289.398438 129.207031 288.457031 127.570312 287.476562 C 125.933594 286.496094 124.324219 285.476562 122.738281 284.417969 C 121.152344 283.355469 119.59375 282.257812 118.058594 281.121094 C 116.527344 279.984375 115.023438 278.8125 113.550781 277.601562 C 112.074219 276.390625 110.628906 275.144531 109.21875 273.863281 C 107.804688 272.585938 106.421875 271.269531 105.074219 269.921875 C 103.726562 268.570312 102.410156 267.191406 101.128906 265.777344 C 99.847656 264.363281 98.601562 262.917969 97.390625 261.445312 C 96.179688 259.96875 95.007812 258.464844 93.871094 256.933594 C 92.734375 255.402344 91.636719 253.84375 90.578125 252.257812 C 89.519531 250.671875 88.496094 249.058594 87.515625 247.421875 C 86.535156 245.785156 85.597656 244.128906 84.695312 242.445312 C 83.796875 240.761719 82.941406 239.058594 82.125 237.335938 C 81.308594 235.609375 80.535156 233.867188 79.804688 232.105469 C 79.074219 230.339844 78.390625 228.5625 77.746094 226.765625 C 77.105469 224.96875 76.507812 223.160156 75.953125 221.332031 C 75.398438 219.507812 74.890625 217.671875 74.425781 215.820312 C 73.960938 213.96875 73.542969 212.109375 73.171875 210.238281 C 72.800781 208.367188 72.472656 206.488281 72.195312 204.601562 C 71.914062 202.714844 71.679688 200.820312 71.496094 198.921875 C 71.308594 197.023438 71.167969 195.121094 71.074219 193.214844 C 70.980469 191.3125 70.933594 189.40625 70.933594 187.496094 C 70.933594 185.589844 70.980469 183.683594 71.074219 181.777344 C 71.167969 179.871094 71.308594 177.96875 71.496094 176.070312 C 71.679688 174.171875 71.914062 172.28125 72.195312 170.394531 C 72.472656 168.507812 72.800781 166.628906 73.171875 164.757812 C 73.542969 162.886719 73.960938 161.023438 74.425781 159.175781 C 74.890625 157.324219 75.398438 155.484375 75.953125 153.660156 C 76.507812 151.835938 77.105469 150.023438 77.746094 148.226562 C 78.390625 146.429688 79.074219 144.652344 79.804688 142.890625 C 80.535156 141.128906 81.308594 139.382812 82.125 137.660156 C 82.941406 135.933594 83.796875 134.230469 84.695312 132.550781 C 85.597656 130.867188 86.535156 129.207031 87.515625 127.570312 C 88.496094 125.933594 89.519531 124.324219 90.578125 122.738281 C 91.636719 121.152344 92.734375 119.59375 93.871094 118.058594 C 95.007812 116.527344 96.179688 115.023438 97.390625 113.550781 C 98.601562 112.074219 99.847656 110.628906 101.128906 109.21875 C 102.410156 107.804688 103.726562 106.421875 105.074219 105.074219 C 106.421875 103.726562 107.804688 102.410156 109.21875 101.128906 C 110.628906 99.847656 112.074219 98.601562 113.550781 97.390625 C 115.023438 96.179688 116.527344 95.007812 118.058594 93.871094 C 119.59375 92.734375 121.152344 91.636719 122.738281 90.578125 C 124.324219 89.519531 125.933594 88.496094 127.570312 87.515625 C 129.207031 86.535156 130.867188 85.597656 132.550781 84.695312 C 134.230469 83.796875 135.933594 82.941406 137.660156 82.125 C 139.382812 81.308594 141.128906 80.535156 142.890625 79.804688 C 144.652344 79.074219 146.429688 78.390625 148.226562 77.746094 C 150.023438 77.105469 151.835938 76.507812 153.660156 75.953125 C 155.484375 75.398438 157.324219 74.890625 159.175781 74.425781 C 161.023438 73.960938 162.886719 73.542969 164.757812 73.171875 C 166.628906 72.800781 168.507812 72.472656 170.394531 72.195312 C 172.28125 71.914062 174.171875 71.679688 176.070312 71.496094 C 177.96875 71.308594 179.871094 71.167969 181.777344 71.074219 C 183.683594 70.980469 185.589844 70.933594 187.496094 70.933594 C 189.40625 70.933594 191.3125 70.980469 193.214844 71.074219 C 195.121094 71.167969 197.023438 71.308594 198.921875 71.496094 C 200.820312 71.679688 202.714844 71.914062 204.601562 72.195312 C 206.488281 72.472656 208.367188 72.800781 210.238281 73.171875 C 212.109375 73.542969 213.96875 73.960938 215.820312 74.425781 C 217.671875 74.890625 219.507812 75.398438 221.332031 75.953125 C 223.160156 76.507812 224.96875 77.105469 226.765625 77.746094 C 228.5625 78.390625 230.339844 79.074219 232.105469 79.804688 C 233.867188 80.535156 235.609375 81.308594 237.335938 82.125 C 239.058594 82.941406 240.761719 83.796875 242.445312 84.695312 C 244.128906 85.597656 245.785156 86.535156 247.421875 87.515625 C 249.058594 88.496094 250.671875 89.519531 252.257812 90.578125 C 253.84375 91.636719 255.402344 92.734375 256.933594 93.871094 C 258.464844 95.007812 259.96875 96.179688 261.445312 97.390625 C 262.917969 98.601562 264.363281 99.847656 265.777344 101.128906 C 267.191406 102.410156 268.570312 103.726562 269.921875 105.074219 C 271.269531 106.421875 272.585938 107.804688 273.863281 109.21875 C 275.144531 110.628906 276.390625 112.074219 277.601562 113.550781 C 278.8125 115.023438 279.984375 116.527344 281.121094 118.058594 C 282.257812 119.59375 283.355469 121.152344 284.417969 122.738281 C 285.476562 124.324219 286.496094 125.933594 287.476562 127.570312 C 288.457031 129.207031 289.398438 130.867188 290.296875 132.550781 C 291.195312 134.230469 292.054688 135.933594 292.871094 137.660156 C 293.683594 139.382812 294.457031 141.128906 295.1875 142.890625 C 295.917969 144.652344 296.605469 146.429688 297.246094 148.226562 C 297.890625 150.023438 298.488281 151.835938 299.042969 153.660156 C 299.59375 155.484375 300.105469 157.324219 300.566406 159.175781 C 301.03125 161.023438 301.449219 162.886719 301.820312 164.757812 C 302.195312 166.628906 302.519531 168.507812 302.800781 170.394531 C 303.078125 172.28125 303.3125 174.171875 303.5 176.070312 C 303.6875 177.96875 303.828125 179.871094 303.921875 181.777344 C 304.015625 183.683594 304.0625 185.589844 304.0625 187.496094 Z M 304.0625 187.496094 " fill-opacity="1" fill-rule="nonzero"/></g><g clip-path="url(#c2849efcec)"><path fill="#e2eaff" d="M 304.0625 187.496094 C 304.0625 189.40625 304.015625 191.3125 303.921875 193.214844 C 303.828125 195.121094 303.6875 197.023438 303.5 198.921875 C 303.3125 200.820312 303.078125 202.714844 302.800781 204.601562 C 302.519531 206.488281 302.191406 208.367188 301.820312 210.238281 C 301.449219 212.109375 301.03125 213.96875 300.566406 215.820312 C 300.105469 217.671875 299.59375 219.507812 299.042969 221.332031 C 298.488281 223.160156 297.890625 224.96875 297.246094 226.765625 C 296.605469 228.5625 295.917969 230.339844 295.1875 232.105469 C 294.457031 233.867188 293.683594 235.609375 292.871094 237.335938 C 292.054688 239.058594 291.195312 240.761719 290.296875 242.445312 C 289.398438 244.128906 288.457031 245.785156 287.476562 247.421875 C 286.496094 249.058594 285.476562 250.671875 284.417969 252.257812 C 283.355469 253.84375 282.257812 255.402344 281.121094 256.933594 C 279.984375 258.464844 278.8125 259.96875 277.601562 261.445312 C 276.390625 262.917969 275.144531 264.363281 273.863281 265.777344 C 272.585938 267.191406 271.269531 268.570312 269.921875 269.921875 C 268.570312 271.269531 267.191406 272.585938 265.777344 273.863281 C 264.363281 275.144531 262.917969 276.390625 261.445312 277.601562 C 259.96875 278.8125 258.464844 279.984375 256.933594 281.121094 C 255.402344 282.257812 253.84375 283.355469 252.257812 284.417969 C 250.671875 285.476562 249.058594 286.496094 247.421875 287.476562 C 245.785156 288.457031 244.128906 289.398438 242.445312 290.296875 C 240.761719 291.195312 239.058594 292.054688 237.335938 292.871094 C 235.609375 293.683594 233.867188 294.457031 232.105469 295.1875 C 230.339844 295.917969 228.5625 296.605469 226.765625 297.246094 C 224.96875 297.890625 223.160156 298.488281 221.332031 299.042969 C 219.507812 299.59375 217.671875 300.105469 215.820312 300.566406 C 213.96875 301.03125 212.109375 301.449219 210.238281 301.820312 C 208.367188 302.191406 206.488281 302.519531 204.601562 302.800781 C 202.714844 303.078125 200.820312 303.3125 198.921875 303.5 C 197.023438 303.6875 195.121094 303.828125 193.214844 303.921875 C 191.3125 304.015625 189.40625 304.0625 187.496094 304.0625 C 185.589844 304.0625 183.683594 304.015625 181.777344 303.921875 C 179.871094 303.828125 177.96875 303.6875 176.070312 303.5 C 174.171875 303.3125 172.28125 303.078125 170.394531 302.800781 C 168.507812 302.519531 166.628906 302.191406 164.757812 301.820312 C 162.886719 301.449219 161.023438 301.03125 159.175781 300.566406 C 157.324219 300.105469 155.484375 299.59375 153.660156 299.042969 C 151.835938 298.488281 150.023438 297.890625 148.226562 297.246094 C 146.429688 296.605469 144.652344 295.917969 142.890625 295.1875 C 141.128906 294.457031 139.382812 293.683594 137.660156 292.871094 C 135.933594 292.054688 134.230469 291.195312 132.550781 290.296875 C 130.867188 289.398438 129.207031 288.457031 127.570312 287.476562 C 125.933594 286.496094 124.324219 285.476562 122.738281 284.417969 C 121.152344 283.355469 119.59375 282.257812 118.058594 281.121094 C 116.527344 279.984375 115.023438 278.8125 113.550781 277.601562 C 112.074219 276.390625 110.628906 275.144531 109.21875 273.863281 C 107.804688 272.585938 106.421875 271.269531 105.074219 269.921875 C 103.726562 268.570312 102.410156 267.191406 101.128906 265.777344 C 99.847656 264.363281 98.601562 262.917969 97.390625 261.445312 C 96.179688 259.96875 95.007812 258.464844 93.871094 256.933594 C 92.734375 255.402344 91.636719 253.84375 90.578125 252.257812 C 89.519531 250.671875 88.496094 249.058594 87.515625 247.421875 C 86.535156 245.785156 85.597656 244.128906 84.695312 242.445312 C 83.796875 240.761719 82.941406 239.058594 82.125 237.335938 C 81.308594 235.609375 80.535156 233.867188 79.804688 232.105469 C 79.074219 230.339844 78.390625 228.5625 77.746094 226.765625 C 77.105469 224.96875 76.507812 223.160156 75.953125 221.332031 C 75.398438 219.507812 74.890625 217.671875 74.425781 215.820312 C 73.960938 213.96875 73.542969 212.109375 73.171875 210.238281 C 72.800781 208.367188 72.472656 206.488281 72.195312 204.601562 C 71.914062 202.714844 71.679688 200.820312 71.496094 198.921875 C 71.308594 197.023438 71.167969 195.121094 71.074219 193.214844 C 70.980469 191.3125 70.933594 189.40625 70.933594 187.496094 C 70.933594 185.589844 70.980469 183.683594 71.074219 181.777344 C 71.167969 179.871094 71.308594 177.96875 71.496094 176.070312 C 71.679688 174.171875 71.914062 172.28125 72.195312 170.394531 C 72.472656 168.507812 72.800781 166.628906 73.171875 164.757812 C 73.542969 162.886719 73.960938 161.023438 74.425781 159.175781 C 74.890625 157.324219 75.398438 155.484375 75.953125 153.660156 C 76.507812 151.835938 77.105469 150.023438 77.746094 148.226562 C 78.390625 146.429688 79.074219 144.652344 79.804688 142.890625 C 80.535156 141.128906 81.308594 139.382812 82.125 137.660156 C 82.941406 135.933594 83.796875 134.230469 84.695312 132.550781 C 85.597656 130.867188 86.535156 129.207031 87.515625 127.570312 C 88.496094 125.933594 89.519531 124.324219 90.578125 122.738281 C 91.636719 121.152344 92.734375 119.59375 93.871094 118.058594 C 95.007812 116.527344 96.179688 115.023438 97.390625 113.550781 C 98.601562 112.074219 99.847656 110.628906 101.128906 109.21875 C 102.410156 107.804688 103.726562 106.421875 105.074219 105.074219 C 106.421875 103.726562 107.804688 102.410156 109.21875 101.128906 C 110.628906 99.847656 112.074219 98.601562 113.550781 97.390625 C 115.023438 96.179688 116.527344 95.007812 118.058594 93.871094 C 119.59375 92.734375 121.152344 91.636719 122.738281 90.578125 C 124.324219 89.519531 125.933594 88.496094 127.570312 87.515625 C 129.207031 86.535156 130.867188 85.597656 132.550781 84.695312 C 134.230469 83.796875 135.933594 82.941406 137.660156 82.125 C 139.382812 81.308594 141.128906 80.535156 142.890625 79.804688 C 144.652344 79.074219 146.429688 78.390625 148.226562 77.746094 C 150.023438 77.105469 151.835938 76.507812 153.660156 75.953125 C 155.484375 75.398438 157.324219 74.890625 159.175781 74.425781 C 161.023438 73.960938 162.886719 73.542969 164.757812 73.171875 C 166.628906 72.800781 168.507812 72.472656 170.394531 72.195312 C 172.28125 71.914062 174.171875 71.679688 176.070312 71.496094 C 177.96875 71.308594 179.871094 71.167969 181.777344 71.074219 C 183.683594 70.980469 185.589844 70.933594 187.496094 70.933594 C 189.40625 70.933594 191.3125 70.980469 193.214844 71.074219 C 195.121094 71.167969 197.023438 71.308594 198.921875 71.496094 C 200.820312 71.679688 202.714844 71.914062 204.601562 72.195312 C 206.488281 72.472656 208.367188 72.800781 210.238281 73.171875 C 212.109375 73.542969 213.96875 73.960938 215.820312 74.425781 C 217.671875 74.890625 219.507812 75.398438 221.332031 75.953125 C 223.160156 76.507812 224.96875 77.105469 226.765625 77.746094 C 228.5625 78.390625 230.339844 79.074219 232.105469 79.804688 C 233.867188 80.535156 235.609375 81.308594 237.335938 82.125 C 239.058594 82.941406 240.761719 83.796875 242.445312 84.695312 C 244.128906 85.597656 245.785156 86.535156 247.421875 87.515625 C 249.058594 88.496094 250.671875 89.519531 252.257812 90.578125 C 253.84375 91.636719 255.402344 92.734375 256.933594 93.871094 C 258.464844 95.007812 259.96875 96.179688 261.445312 97.390625 C 262.917969 98.601562 264.363281 99.847656 265.777344 101.128906 C 267.191406 102.410156 268.570312 103.726562 269.921875 105.074219 C 271.269531 106.421875 272.585938 107.804688 273.863281 109.21875 C 275.144531 110.628906 276.390625 112.074219 277.601562 113.550781 C 278.8125 115.023438 279.984375 116.527344 281.121094 118.058594 C 282.257812 119.59375 283.355469 121.152344 284.417969 122.738281 C 285.476562 124.324219 286.496094 125.933594 287.476562 127.570312 C 288.457031 129.207031 289.398438 130.867188 290.296875 132.550781 C 291.195312 134.230469 292.054688 135.933594 292.871094 137.660156 C 293.683594 139.382812 294.457031 141.128906 295.1875 142.890625 C 295.917969 144.652344 296.605469 146.429688 297.246094 148.226562 C 297.890625 150.023438 298.488281 151.835938 299.042969 153.660156 C 299.59375 155.484375 300.105469 157.324219 300.566406 159.175781 C 301.03125 161.023438 301.449219 162.886719 301.820312 164.757812 C 302.195312 166.628906 302.519531 168.507812 302.800781 170.394531 C 303.078125 172.28125 303.3125 174.171875 303.5 176.070312 C 303.6875 177.96875 303.828125 179.871094 303.921875 181.777344 C 304.015625 183.683594 304.0625 185.589844 304.0625 187.496094 Z M 304.0625 187.496094 " fill-opacity="1" fill-rule="nonzero"/></g><g clip-path="url(#59d62d4bdb)"><path fill="#e2eaff" d="M 187.496094 47.070312 C 109.9375 47.070312 47.070312 109.9375 47.070312 187.496094 C 47.070312 265.050781 109.9375 327.917969 187.496094 327.917969 C 265.050781 327.917969 327.917969 265.050781 327.917969 187.496094 C 327.917969 109.9375 265.050781 47.070312 187.496094 47.070312 Z M 223.808594 243.664062 L 177.566406 197.421875 C 174.925781 194.78125 173.453125 191.214844 173.453125 187.496094 L 173.453125 117.28125 C 173.453125 109.53125 179.742188 103.238281 187.496094 103.238281 C 195.246094 103.238281 201.535156 109.53125 201.535156 117.28125 L 201.535156 181.679688 L 243.664062 223.808594 C 249.140625 229.285156 249.140625 238.1875 243.664062 243.664062 C 238.1875 249.140625 229.285156 249.140625 223.808594 243.664062 Z M 223.808594 243.664062 " fill-opacity="1" fill-rule="nonzero"/></g><g clip-path="url(#49d305f9a7)"><path fill="#e2eaff" d="M 70.933594 187.503906 C 70.933594 185.59375 70.980469 183.6875 71.074219 181.78125 C 71.167969 179.878906 71.308594 177.976562 71.496094 176.078125 C 71.679688 174.179688 71.914062 172.285156 72.195312 170.398438 C 72.472656 168.511719 72.800781 166.632812 73.171875 164.761719 C 73.546875 162.890625 73.960938 161.03125 74.425781 159.179688 C 74.890625 157.328125 75.398438 155.492188 75.953125 153.664062 C 76.507812 151.839844 77.105469 150.027344 77.746094 148.234375 C 78.390625 146.4375 79.074219 144.65625 79.804688 142.894531 C 80.535156 141.132812 81.308594 139.390625 82.125 137.664062 C 82.941406 135.941406 83.796875 134.238281 84.695312 132.554688 C 85.597656 130.871094 86.535156 129.210938 87.515625 127.578125 C 88.496094 125.941406 89.519531 124.328125 90.578125 122.742188 C 91.636719 121.15625 92.734375 119.597656 93.871094 118.066406 C 95.007812 116.53125 96.179688 115.03125 97.390625 113.554688 C 98.601562 112.082031 99.847656 110.636719 101.128906 109.222656 C 102.410156 107.808594 103.726562 106.429688 105.074219 105.078125 C 106.421875 103.730469 107.804688 102.414062 109.21875 101.132812 C 110.632812 99.851562 112.074219 98.605469 113.550781 97.398438 C 115.023438 96.1875 116.527344 95.011719 118.058594 93.878906 C 119.59375 92.742188 121.152344 91.644531 122.738281 90.582031 C 124.324219 89.523438 125.933594 88.503906 127.570312 87.523438 C 129.207031 86.542969 130.867188 85.601562 132.550781 84.703125 C 134.230469 83.800781 135.933594 82.945312 137.660156 82.128906 C 139.382812 81.3125 141.128906 80.542969 142.890625 79.8125 C 144.652344 79.082031 146.433594 78.394531 148.226562 77.753906 C 150.023438 77.109375 151.835938 76.511719 153.660156 75.957031 C 155.484375 75.402344 157.324219 74.894531 159.175781 74.429688 C 161.023438 73.96875 162.886719 73.550781 164.757812 73.179688 C 166.628906 72.804688 168.507812 72.480469 170.394531 72.199219 C 172.28125 71.917969 174.171875 71.6875 176.070312 71.5 C 177.96875 71.3125 179.871094 71.171875 181.777344 71.078125 C 183.683594 70.984375 185.589844 70.9375 187.496094 70.9375 C 189.40625 70.9375 191.3125 70.984375 193.214844 71.078125 C 195.121094 71.171875 197.023438 71.3125 198.921875 71.5 C 200.820312 71.6875 202.714844 71.917969 204.601562 72.199219 C 206.488281 72.480469 208.367188 72.804688 210.238281 73.179688 C 212.109375 73.550781 213.96875 73.96875 215.820312 74.429688 C 217.671875 74.894531 219.507812 75.402344 221.332031 75.957031 C 223.160156 76.511719 224.96875 77.109375 226.765625 77.753906 C 228.5625 78.394531 230.339844 79.082031 232.105469 79.8125 C 233.867188 80.542969 235.609375 81.3125 237.335938 82.128906 C 239.058594 82.945312 240.761719 83.800781 242.445312 84.703125 C 244.128906 85.601562 245.785156 86.542969 247.421875 87.523438 C 249.058594 88.503906 250.671875 89.523438 252.257812 90.582031 C 253.84375 91.644531 255.402344 92.742188 256.933594 93.878906 C 258.464844 95.011719 259.96875 96.1875 261.445312 97.398438 C 262.917969 98.605469 264.363281 99.851562 265.777344 101.132812 C 267.191406 102.414062 268.570312 103.730469 269.921875 105.078125 C 271.269531 106.429688 272.585938 107.808594 273.863281 109.222656 C 275.144531 110.636719 276.390625 112.082031 277.601562 113.554688 C 278.8125 115.03125 279.984375 116.53125 281.121094 118.066406 C 282.257812 119.597656 283.355469 121.15625 284.417969 122.742188 C 285.476562 124.328125 286.496094 125.941406 287.476562 127.578125 C 288.457031 129.210938 289.398438 130.871094 290.296875 132.554688 C 291.195312 134.238281 292.054688 135.941406 292.871094 137.664062 C 293.683594 139.390625 294.457031 141.132812 295.1875 142.894531 C 295.917969 144.65625 296.605469 146.4375 297.246094 148.234375 C 297.890625 150.027344 298.488281 151.839844 299.042969 153.664062 C 299.59375 155.492188 300.105469 157.328125 300.566406 159.179688 C 301.03125 161.03125 301.449219 162.890625 301.820312 164.761719 C 302.195312 166.632812 302.519531 168.511719 302.800781 170.398438 C 303.078125 172.285156 303.3125 174.179688 303.5 176.078125 C 303.6875 177.976562 303.828125 179.878906 303.921875 181.78125 C 304.015625 183.6875 304.0625 185.59375 304.0625 187.503906 C 304.0625 189.410156 304.015625 191.316406 303.921875 193.222656 C 303.828125 195.128906 303.6875 197.027344 303.5 198.925781 C 303.3125 200.824219 303.078125 202.71875 302.800781 204.605469 C 302.519531 206.492188 302.195312 208.371094 301.820312 210.242188 C 301.449219 212.113281 301.03125 213.972656 300.566406 215.824219 C 300.105469 217.675781 299.59375 219.511719 299.042969 221.339844 C 298.488281 223.164062 297.890625 224.976562 297.246094 226.769531 C 296.605469 228.566406 295.917969 230.347656 295.1875 232.109375 C 294.457031 233.871094 293.683594 235.613281 292.871094 237.339844 C 292.054688 239.0625 291.195312 240.769531 290.296875 242.449219 C 289.398438 244.132812 288.457031 245.792969 287.476562 247.429688 C 286.496094 249.0625 285.476562 250.675781 284.417969 252.261719 C 283.355469 253.847656 282.257812 255.40625 281.121094 256.9375 C 279.984375 258.472656 278.8125 259.976562 277.601562 261.449219 C 276.390625 262.925781 275.144531 264.367188 273.863281 265.78125 C 272.585938 267.195312 271.269531 268.578125 269.921875 269.925781 C 268.570312 271.273438 267.191406 272.589844 265.777344 273.871094 C 264.363281 275.152344 262.917969 276.398438 261.445312 277.605469 C 259.96875 278.816406 258.464844 279.992188 256.933594 281.128906 C 255.402344 282.261719 253.84375 283.363281 252.257812 284.421875 C 250.671875 285.480469 249.058594 286.5 247.421875 287.484375 C 245.785156 288.464844 244.128906 289.402344 242.445312 290.300781 C 240.761719 291.203125 239.058594 292.058594 237.335938 292.875 C 235.609375 293.691406 233.867188 294.464844 232.105469 295.191406 C 230.339844 295.921875 228.5625 296.609375 226.765625 297.253906 C 224.96875 297.894531 223.160156 298.492188 221.332031 299.046875 C 219.507812 299.601562 217.671875 300.109375 215.820312 300.574219 C 213.96875 301.035156 212.109375 301.453125 210.238281 301.828125 C 208.367188 302.199219 206.488281 302.523438 204.601562 302.804688 C 202.714844 303.085938 200.820312 303.316406 198.921875 303.503906 C 197.023438 303.691406 195.121094 303.832031 193.214844 303.925781 C 191.3125 304.019531 189.40625 304.066406 187.496094 304.066406 C 185.589844 304.066406 183.683594 304.019531 181.777344 303.925781 C 179.871094 303.832031 177.96875 303.691406 176.070312 303.503906 C 174.171875 303.316406 172.28125 303.085938 170.394531 302.804688 C 168.507812 302.523438 166.628906 302.199219 164.757812 301.828125 C 162.886719 301.453125 161.023438 301.035156 159.175781 300.574219 C 157.324219 300.109375 155.484375 299.601562 153.660156 299.046875 C 151.835938 298.492188 150.023438 297.894531 148.226562 297.253906 C 146.429688 296.609375 144.652344 295.921875 142.890625 295.191406 C 141.128906 294.464844 139.382812 293.691406 137.660156 292.875 C 135.933594 292.058594 134.230469 291.203125 132.550781 290.300781 C 130.867188 289.402344 129.207031 288.464844 127.570312 287.484375 C 125.933594 286.5 124.324219 285.480469 122.738281 284.421875 C 121.152344 283.363281 119.59375 282.261719 118.058594 281.128906 C 116.527344 279.992188 115.023438 278.816406 113.550781 277.605469 C 112.074219 276.398438 110.632812 275.152344 109.21875 273.871094 C 107.804688 272.589844 106.421875 271.273438 105.074219 269.925781 C 103.726562 268.578125 102.410156 267.195312 101.128906 265.78125 C 99.847656 264.367188 98.601562 262.925781 97.390625 261.449219 C 96.179688 259.976562 95.007812 258.472656 93.871094 256.9375 C 92.734375 255.40625 91.636719 253.847656 90.578125 252.261719 C 89.519531 250.675781 88.496094 249.0625 87.515625 247.429688 C 86.535156 245.792969 85.597656 244.132812 84.695312 242.449219 C 83.796875 240.769531 82.941406 239.0625 82.125 237.339844 C 81.308594 235.613281 80.535156 233.871094 79.804688 232.109375 C 79.074219 230.347656 78.390625 228.566406 77.746094 226.769531 C 77.105469 224.976562 76.507812 223.164062 75.953125 221.339844 C 75.398438 219.511719 74.890625 217.675781 74.425781 215.824219 C 73.960938 213.972656 73.542969 212.113281 73.171875 210.242188 C 72.800781 208.371094 72.472656 206.492188 72.195312 204.605469 C 71.914062 202.71875 71.679688 200.824219 71.496094 198.925781 C 71.308594 197.027344 71.167969 195.128906 71.074219 193.222656 C 70.980469 191.316406 70.933594 189.410156 70.933594 187.503906 Z M 70.933594 187.503906 " fill-opacity="1" fill-rule="nonzero"/></g><g clip-path="url(#e5925d54d7)"><path fill="#e2eaff" d="M 70.933594 187.496094 C 70.933594 185.589844 70.980469 183.683594 71.074219 181.777344 C 71.167969 179.871094 71.308594 177.96875 71.496094 176.070312 C 71.679688 174.171875 71.914062 172.28125 72.195312 170.390625 C 72.472656 168.503906 72.800781 166.625 73.171875 164.753906 C 73.546875 162.882812 73.960938 161.023438 74.425781 159.171875 C 74.890625 157.324219 75.398438 155.484375 75.953125 153.660156 C 76.507812 151.832031 77.105469 150.023438 77.746094 148.226562 C 78.390625 146.429688 79.074219 144.652344 79.804688 142.890625 C 80.535156 141.125 81.308594 139.382812 82.125 137.660156 C 82.941406 135.933594 83.796875 134.230469 84.695312 132.546875 C 85.597656 130.867188 86.535156 129.207031 87.515625 127.570312 C 88.496094 125.933594 89.519531 124.324219 90.578125 122.738281 C 91.636719 121.148438 92.734375 119.589844 93.871094 118.058594 C 95.007812 116.527344 96.179688 115.023438 97.390625 113.546875 C 98.601562 112.074219 99.847656 110.628906 101.128906 109.214844 C 102.410156 107.804688 103.726562 106.421875 105.074219 105.074219 C 106.421875 103.722656 107.804688 102.410156 109.21875 101.128906 C 110.632812 99.847656 112.074219 98.601562 113.550781 97.390625 C 115.023438 96.179688 116.527344 95.007812 118.058594 93.871094 C 119.59375 92.734375 121.152344 91.636719 122.738281 90.578125 C 124.324219 89.515625 125.933594 88.496094 127.570312 87.515625 C 129.207031 86.535156 130.867188 85.59375 132.550781 84.695312 C 134.230469 83.796875 135.933594 82.9375 137.660156 82.125 C 139.382812 81.308594 141.128906 80.535156 142.890625 79.804688 C 144.652344 79.074219 146.433594 78.386719 148.226562 77.746094 C 150.023438 77.101562 151.835938 76.503906 153.660156 75.949219 C 155.484375 75.398438 157.324219 74.890625 159.175781 74.425781 C 161.023438 73.960938 162.886719 73.542969 164.757812 73.171875 C 166.628906 72.800781 168.507812 72.472656 170.394531 72.195312 C 172.28125 71.914062 174.171875 71.679688 176.070312 71.492188 C 177.96875 71.304688 179.871094 71.164062 181.777344 71.074219 C 183.683594 70.980469 185.589844 70.933594 187.496094 70.933594 C 189.40625 70.933594 191.3125 70.980469 193.214844 71.074219 C 195.121094 71.164062 197.023438 71.304688 198.921875 71.492188 C 200.820312 71.679688 202.714844 71.914062 204.601562 72.195312 C 206.488281 72.472656 208.367188 72.800781 210.238281 73.171875 C 212.109375 73.542969 213.96875 73.960938 215.820312 74.425781 C 217.671875 74.890625 219.507812 75.398438 221.332031 75.949219 C 223.160156 76.503906 224.96875 77.101562 226.765625 77.746094 C 228.5625 78.386719 230.339844 79.074219 232.105469 79.804688 C 233.867188 80.535156 235.609375 81.308594 237.335938 82.125 C 239.058594 82.9375 240.761719 83.796875 242.445312 84.695312 C 244.128906 85.59375 245.785156 86.535156 247.421875 87.515625 C 249.058594 88.496094 250.671875 89.515625 252.257812 90.578125 C 253.84375 91.636719 255.402344 92.734375 256.933594 93.871094 C 258.464844 95.007812 259.96875 96.179688 261.445312 97.390625 C 262.917969 98.601562 264.363281 99.847656 265.777344 101.128906 C 267.191406 102.410156 268.570312 103.722656 269.921875 105.074219 C 271.269531 106.421875 272.585938 107.804688 273.863281 109.214844 C 275.144531 110.628906 276.390625 112.074219 277.601562 113.546875 C 278.8125 115.023438 279.984375 116.527344 281.121094 118.058594 C 282.257812 119.589844 283.355469 121.148438 284.417969 122.738281 C 285.476562 124.324219 286.496094 125.933594 287.476562 127.570312 C 288.457031 129.207031 289.398438 130.867188 290.296875 132.546875 C 291.195312 134.230469 292.054688 135.933594 292.871094 137.660156 C 293.683594 139.382812 294.457031 141.125 295.1875 142.890625 C 295.917969 144.652344 296.605469 146.429688 297.246094 148.226562 C 297.890625 150.023438 298.488281 151.832031 299.042969 153.660156 C 299.59375 155.484375 300.105469 157.324219 300.566406 159.171875 C 301.03125 161.023438 301.449219 162.882812 301.820312 164.753906 C 302.195312 166.625 302.519531 168.503906 302.800781 170.390625 C 303.078125 172.28125 303.3125 174.171875 303.5 176.070312 C 303.6875 177.96875 303.828125 179.871094 303.921875 181.777344 C 304.015625 183.683594 304.0625 185.589844 304.0625 187.496094 C 304.0625 189.402344 304.015625 191.308594 303.921875 193.214844 C 303.828125 195.121094 303.6875 197.023438 303.5 198.921875 C 303.3125 200.820312 303.078125 202.710938 302.800781 204.597656 C 302.519531 206.488281 302.195312 208.367188 301.820312 210.238281 C 301.449219 212.109375 301.03125 213.96875 300.566406 215.820312 C 300.105469 217.667969 299.59375 219.507812 299.042969 221.332031 C 298.488281 223.15625 297.890625 224.96875 297.246094 226.765625 C 296.605469 228.5625 295.917969 230.339844 295.1875 232.101562 C 294.457031 233.867188 293.683594 235.609375 292.871094 237.332031 C 292.054688 239.058594 291.195312 240.761719 290.296875 242.445312 C 289.398438 244.125 288.457031 245.785156 287.476562 247.421875 C 286.496094 249.058594 285.476562 250.667969 284.417969 252.253906 C 283.355469 253.839844 282.257812 255.402344 281.121094 256.933594 C 279.984375 258.464844 278.8125 259.96875 277.601562 261.441406 C 276.390625 262.917969 275.144531 264.363281 273.863281 265.777344 C 272.585938 267.1875 271.269531 268.570312 269.921875 269.917969 C 268.570312 271.269531 267.191406 272.582031 265.777344 273.863281 C 264.363281 275.144531 262.917969 276.390625 261.445312 277.601562 C 259.96875 278.8125 258.464844 279.984375 256.933594 281.121094 C 255.402344 282.257812 253.84375 283.355469 252.257812 284.414062 C 250.671875 285.476562 249.058594 286.496094 247.421875 287.476562 C 245.785156 288.457031 244.128906 289.398438 242.445312 290.296875 C 240.761719 291.195312 239.058594 292.054688 237.335938 292.867188 C 235.609375 293.683594 233.867188 294.457031 232.105469 295.1875 C 230.339844 295.917969 228.5625 296.601562 226.765625 297.246094 C 224.96875 297.890625 223.160156 298.488281 221.332031 299.039062 C 219.507812 299.59375 217.671875 300.101562 215.820312 300.566406 C 213.96875 301.03125 212.109375 301.449219 210.238281 301.820312 C 208.367188 302.191406 206.488281 302.519531 204.601562 302.796875 C 202.714844 303.078125 200.820312 303.3125 198.921875 303.5 C 197.023438 303.6875 195.121094 303.824219 193.214844 303.917969 C 191.3125 304.011719 189.40625 304.058594 187.496094 304.058594 C 185.589844 304.058594 183.683594 304.011719 181.777344 303.917969 C 179.871094 303.824219 177.96875 303.6875 176.070312 303.5 C 174.171875 303.3125 172.28125 303.078125 170.394531 302.796875 C 168.507812 302.519531 166.628906 302.191406 164.757812 301.820312 C 162.886719 301.449219 161.023438 301.03125 159.175781 300.566406 C 157.324219 300.101562 155.484375 299.59375 153.660156 299.039062 C 151.835938 298.488281 150.023438 297.890625 148.226562 297.246094 C 146.429688 296.601562 144.652344 295.917969 142.890625 295.1875 C 141.128906 294.457031 139.382812 293.683594 137.660156 292.867188 C 135.933594 292.054688 134.230469 291.195312 132.550781 290.296875 C 130.867188 289.398438 129.207031 288.457031 127.570312 287.476562 C 125.933594 286.496094 124.324219 285.476562 122.738281 284.414062 C 121.152344 283.355469 119.59375 282.257812 118.058594 281.121094 C 116.527344 279.984375 115.023438 278.8125 113.550781 277.601562 C 112.074219 276.390625 110.632812 275.144531 109.21875 273.863281 C 107.804688 272.582031 106.421875 271.269531 105.074219 269.917969 C 103.726562 268.570312 102.410156 267.1875 101.128906 265.777344 C 99.847656 264.363281 98.601562 262.917969 97.390625 261.441406 C 96.179688 259.96875 95.007812 258.464844 93.871094 256.933594 C 92.734375 255.402344 91.636719 253.839844 90.578125 252.253906 C 89.519531 250.667969 88.496094 249.058594 87.515625 247.421875 C 86.535156 245.785156 85.597656 244.125 84.695312 242.445312 C 83.796875 240.761719 82.941406 239.058594 82.125 237.332031 C 81.308594 235.609375 80.535156 233.867188 79.804688 232.101562 C 79.074219 230.339844 78.390625 228.5625 77.746094 226.765625 C 77.105469 224.96875 76.507812 223.15625 75.953125 221.332031 C 75.398438 219.507812 74.890625 217.667969 74.425781 215.820312 C 73.960938 213.96875 73.542969 212.109375 73.171875 210.238281 C 72.800781 208.367188 72.472656 206.488281 72.195312 204.597656 C 71.914062 202.710938 71.679688 200.820312 71.496094 198.921875 C 71.308594 197.023438 71.167969 195.121094 71.074219 193.214844 C 70.980469 191.308594 70.933594 189.402344 70.933594 187.496094 Z M 70.933594 187.496094 " fill-opacity="1" fill-rule="nonzero"/></g></svg>