<svg xmlns="http://www.w3.org/2000/svg" xmlns:xlink="http://www.w3.org/1999/xlink" width="500" zoomAndPan="magnify" viewBox="0 0 375 374.999991" height="500" preserveAspectRatio="xMidYMid meet" version="1.0"><defs><clipPath id="f9da5b99c9"><path d="M 161 34 L 345 34 L 345 217 L 161 217 Z M 161 34 " clip-rule="nonzero"/></clipPath><clipPath id="5dafd2b7bb"><path d="M 406.582031 124.402344 L 314.304688 216.679688 L 161.570312 63.945312 L 253.847656 -28.332031 Z M 406.582031 124.402344 " clip-rule="nonzero"/></clipPath><clipPath id="524d47f280"><path d="M 406.582031 124.402344 L 182.785156 348.199219 L 30.046875 195.464844 L 253.847656 -28.332031 Z M 406.582031 124.402344 " clip-rule="nonzero"/></clipPath><clipPath id="d1b6c47798"><path d="M 30 158 L 214 158 L 214 342 L 30 342 Z M 30 158 " clip-rule="nonzero"/></clipPath><clipPath id="4da60e2a81"><path d="M -31.628906 250.632812 L 60.648438 158.355469 L 213.382812 311.089844 L 121.105469 403.367188 Z M -31.628906 250.632812 " clip-rule="nonzero"/></clipPath><clipPath id="49ae9ed16e"><path d="M -31.628906 250.632812 L 192.167969 26.835938 L 344.90625 179.570312 L 121.105469 403.367188 Z M -31.628906 250.632812 " clip-rule="nonzero"/></clipPath><clipPath id="bd73e7e615"><path d="M 3 3 L 375 3 L 375 374 L 3 374 Z M 3 3 " clip-rule="nonzero"/></clipPath><clipPath id="b4efe18d1d"><path d="M -94.535156 271.347656 L 271.390625 -94.578125 L 469.734375 103.765625 L 103.808594 469.691406 Z M -94.535156 271.347656 " clip-rule="nonzero"/></clipPath><clipPath id="47ee39b35a"><path d="M -94.9375 271.746094 L 271.523438 -94.710938 L 469.863281 103.632812 L 103.40625 470.089844 Z M -94.9375 271.746094 " clip-rule="nonzero"/></clipPath><clipPath id="5e82bffd8e"><path d="M 101 101 L 274 101 L 274 274 L 101 274 Z M 101 101 " clip-rule="nonzero"/></clipPath><clipPath id="7cf705946e"><path d="M -94.535156 271.347656 L 271.390625 -94.578125 L 469.734375 103.765625 L 103.808594 469.691406 Z M -94.535156 271.347656 " clip-rule="nonzero"/></clipPath><clipPath id="058ea9bd31"><path d="M -94.9375 271.746094 L 271.523438 -94.710938 L 469.863281 103.632812 L 103.40625 470.089844 Z M -94.9375 271.746094 " clip-rule="nonzero"/></clipPath><clipPath id="da67e7e236"><path d="M 12 12 L 370 12 L 370 368 L 12 368 Z M 12 12 " clip-rule="nonzero"/></clipPath><clipPath id="8c3b9cc9dd"><path d="M -81.683594 269.777344 L 269.925781 -81.832031 L 460.3125 108.554688 L 108.707031 460.164062 Z M -81.683594 269.777344 " clip-rule="nonzero"/></clipPath><clipPath id="7d983b912c"><path d="M -82.066406 270.160156 L 270.070312 -81.980469 L 460.460938 108.410156 L 108.320312 460.546875 Z M -82.066406 270.160156 " clip-rule="nonzero"/></clipPath><clipPath id="19cae9f2cd"><path d="M 106 106 L 273 106 L 273 272 L 106 272 Z M 106 106 " clip-rule="nonzero"/></clipPath><clipPath id="06e4dd1780"><path d="M -81.683594 269.777344 L 269.925781 -81.832031 L 460.3125 108.554688 L 108.707031 460.164062 Z M -81.683594 269.777344 " clip-rule="nonzero"/></clipPath><clipPath id="335cc9d1b4"><path d="M -82.066406 270.160156 L 270.070312 -81.980469 L 460.460938 108.410156 L 108.320312 460.546875 Z M -82.066406 270.160156 " clip-rule="nonzero"/></clipPath><clipPath id="9e74d71d0b"><path d="M 63 62 L 316 62 L 316 316 L 63 316 Z M 63 62 " clip-rule="nonzero"/></clipPath><clipPath id="0c55c9e425"><path d="M 11.078125 188.832031 L 189.800781 10.113281 L 368.519531 188.832031 L 189.800781 367.554688 Z M 11.078125 188.832031 " clip-rule="nonzero"/></clipPath><clipPath id="548941e789"><path d="M 11.078125 188.832031 L 189.800781 10.113281 L 368.519531 188.832031 L 189.800781 367.554688 Z M 11.078125 188.832031 " clip-rule="nonzero"/></clipPath><clipPath id="b2b6e30163"><path d="M 115 115 L 260 115 L 260 260 L 115 260 Z M 115 115 " clip-rule="nonzero"/></clipPath><clipPath id="d7e04725b7"><path d="M 85.292969 187.5 L 187.648438 85.144531 L 290 187.5 L 187.648438 289.851562 Z M 85.292969 187.5 " clip-rule="nonzero"/></clipPath><clipPath id="0041f009ad"><path d="M 85.292969 187.5 L 187.648438 85.144531 L 290 187.5 L 187.648438 289.851562 Z M 85.292969 187.5 " clip-rule="nonzero"/></clipPath><clipPath id="480d58a0a4"><path d="M 97 97 L 278 97 L 278 278 L 97 278 Z M 97 97 " clip-rule="nonzero"/></clipPath><clipPath id="189dc9f6b0"><path d="M 59.589844 187.5 L 187.398438 59.6875 L 315.207031 187.5 L 187.398438 315.308594 Z M 59.589844 187.5 " clip-rule="nonzero"/></clipPath><clipPath id="acdcce2fe4"><path d="M 59.589844 187.5 L 187.398438 59.6875 L 315.207031 187.5 L 187.398438 315.308594 Z M 59.589844 187.5 " clip-rule="nonzero"/></clipPath><clipPath id="86bcd4ce04"><path d="M 83 83 L 295 83 L 295 295 L 83 295 Z M 83 83 " clip-rule="nonzero"/></clipPath><clipPath id="36304bb0d5"><path d="M 39.984375 189.230469 L 189.007812 40.207031 L 338.027344 189.230469 L 189.007812 338.253906 Z M 39.984375 189.230469 " clip-rule="nonzero"/></clipPath><clipPath id="d30c32e6a9"><path d="M 39.984375 189.230469 L 189.007812 40.207031 L 338.027344 189.230469 L 189.007812 338.253906 Z M 39.984375 189.230469 " clip-rule="nonzero"/></clipPath><clipPath id="b0972de7ae"><path d="M 95.816406 95.015625 L 280 95.015625 L 280 279.515625 L 95.816406 279.515625 Z M 95.816406 95.015625 " clip-rule="nonzero"/></clipPath></defs><g clip-path="url(#f9da5b99c9)"><g clip-path="url(#5dafd2b7bb)"><g clip-path="url(#524d47f280)"><path fill="#f4f6fc" d="M 294.734375 236.25 C 345.574219 185.410156 357.367188 110.371094 330.320312 48.144531 C 268.09375 21.097656 193.054688 32.890625 142.214844 83.730469 C 91.375 134.570312 79.578125 209.609375 106.625 271.839844 C 168.855469 298.886719 243.84375 287.140625 294.734375 236.25 Z M 167.632812 109.152344 C 195.695312 81.085938 241.25 81.085938 269.3125 109.152344 C 297.375 137.214844 297.375 182.765625 269.3125 210.832031 C 241.25 238.894531 195.695312 238.894531 167.632812 210.832031 C 139.570312 182.765625 139.570312 137.214844 167.632812 109.152344 Z M 248.976562 190.496094 C 265.804688 173.667969 265.804688 146.316406 248.976562 129.488281 C 232.148438 112.660156 204.796875 112.660156 187.96875 129.488281 C 171.140625 146.316406 171.140625 173.667969 187.96875 190.496094 C 204.796875 207.324219 232.148438 207.324219 248.976562 190.496094 Z M 248.976562 190.496094 " fill-opacity="1" fill-rule="nonzero"/></g></g></g><g clip-path="url(#d1b6c47798)"><g clip-path="url(#4da60e2a81)"><g clip-path="url(#49ae9ed16e)"><path fill="#f4f6fc" d="M 80.21875 138.785156 C 29.378906 189.625 17.585938 264.664062 44.632812 326.890625 C 106.859375 353.9375 181.898438 342.144531 232.738281 291.304688 C 283.578125 240.464844 295.375 165.421875 268.328125 103.195312 C 206.101562 76.148438 131.109375 87.894531 80.21875 138.785156 Z M 207.320312 265.882812 C 179.257812 293.945312 133.703125 293.945312 105.640625 265.882812 C 77.578125 237.820312 77.578125 192.265625 105.640625 164.203125 C 133.703125 136.140625 179.257812 136.140625 207.320312 164.203125 C 235.382812 192.265625 235.382812 237.820312 207.320312 265.882812 Z M 125.976562 184.539062 C 109.148438 201.367188 109.148438 228.71875 125.976562 245.546875 C 142.804688 262.375 170.15625 262.375 186.984375 245.546875 C 203.8125 228.71875 203.8125 201.367188 186.984375 184.539062 C 170.15625 167.710938 142.804688 167.710938 125.976562 184.539062 Z M 125.976562 184.539062 " fill-opacity="1" fill-rule="nonzero"/></g></g></g><g clip-path="url(#bd73e7e615)"><g clip-path="url(#b4efe18d1d)"><g clip-path="url(#47ee39b35a)"><path fill="#233dff" d="M 288.683594 284.234375 C 227.195312 345.726562 136.019531 375.550781 17.695312 372.878906 L 5.929688 372.613281 L 4.605469 360.921875 C 3.820312 354.007812 -13.375 190.449219 91.253906 85.820312 C 152.902344 24.171875 243.515625 -3.277344 360.578125 4.234375 L 371.621094 4.941406 L 373.074219 15.910156 C 373.960938 22.542969 393.425781 179.496094 288.683594 284.234375 Z M 30.578125 346.082031 C 135.253906 346.359375 215.632812 319.167969 269.625 265.175781 C 349.898438 184.902344 349.554688 66.867188 347.304688 30.511719 C 243.945312 25.953125 164.25 50.949219 110.316406 104.882812 C 30.117188 185.078125 28.824219 307.8125 30.578125 346.082031 Z M 30.578125 346.082031 " fill-opacity="1" fill-rule="nonzero"/></g></g></g><g clip-path="url(#5e82bffd8e)"><g clip-path="url(#7cf705946e)"><g clip-path="url(#058ea9bd31)"><path fill="#233dff" d="M 126.800781 126.484375 C 93.1875 160.097656 93.191406 214.585938 126.800781 248.195312 C 160.410156 281.808594 214.902344 281.808594 248.511719 248.199219 C 282.121094 214.585938 282.117188 160.097656 248.507812 126.488281 C 214.898438 92.878906 160.410156 92.875 126.800781 126.484375 Z M 213.195312 212.882812 C 199.089844 226.988281 176.222656 226.992188 162.113281 212.882812 C 148.007812 198.777344 148.007812 175.90625 162.113281 161.800781 C 176.222656 147.695312 199.089844 147.699219 213.195312 161.804688 C 227.300781 175.910156 227.300781 198.777344 213.195312 212.882812 Z M 213.195312 212.882812 " fill-opacity="1" fill-rule="nonzero"/></g></g></g><g clip-path="url(#da67e7e236)"><g clip-path="url(#8c3b9cc9dd)"><g clip-path="url(#7d983b912c)"><path fill="#233dff" d="M 286.433594 282.15625 C 227.367188 341.222656 139.785156 369.871094 26.125 367.304688 L 14.820312 367.050781 L 13.546875 355.816406 C 12.796875 349.179688 -3.722656 192.066406 96.785156 91.558594 C 156.003906 32.339844 243.042969 5.972656 355.492188 13.1875 L 366.101562 13.867188 L 367.5 24.40625 C 368.347656 30.773438 387.046875 181.542969 286.433594 282.15625 Z M 38.5 341.566406 C 139.050781 341.832031 216.261719 315.707031 268.125 263.84375 C 345.234375 186.734375 344.90625 73.355469 342.742188 38.429688 C 243.457031 34.050781 166.902344 58.0625 115.097656 109.867188 C 38.058594 186.90625 36.8125 304.800781 38.5 341.566406 Z M 38.5 341.566406 " fill-opacity="1" fill-rule="nonzero"/></g></g></g><g clip-path="url(#19cae9f2cd)"><g clip-path="url(#06e4dd1780)"><g clip-path="url(#335cc9d1b4)"><path fill="#233dff" d="M 130.929688 130.621094 C 98.640625 162.90625 98.644531 215.25 130.929688 247.535156 C 163.214844 279.820312 215.558594 279.824219 247.84375 247.539062 C 280.128906 215.25 280.125 162.910156 247.839844 130.621094 C 215.558594 98.339844 163.214844 98.335938 130.929688 130.621094 Z M 213.921875 213.613281 C 200.371094 227.164062 178.402344 227.167969 164.851562 213.613281 C 151.300781 200.066406 151.300781 178.097656 164.851562 164.546875 C 178.402344 150.996094 200.367188 150.996094 213.917969 164.546875 C 227.46875 178.097656 227.46875 200.066406 213.921875 213.613281 Z M 213.921875 213.613281 " fill-opacity="1" fill-rule="nonzero"/></g></g></g><g clip-path="url(#9e74d71d0b)"><g clip-path="url(#0c55c9e425)"><g clip-path="url(#548941e789)"><path fill="#233dff" d="M 100.355469 99.554688 C 51.03125 148.882812 51.03125 228.785156 100.355469 278.109375 C 149.683594 327.4375 229.585938 327.4375 278.910156 278.109375 C 328.238281 228.785156 328.238281 148.882812 278.910156 99.554688 C 229.585938 50.230469 149.683594 50.230469 100.355469 99.554688 Z M 261.054688 260.253906 C 221.59375 299.714844 157.671875 299.714844 118.210938 260.253906 C 78.75 220.796875 78.75 156.871094 118.210938 117.410156 C 157.671875 77.949219 221.59375 77.949219 261.054688 117.410156 C 300.515625 156.871094 300.515625 220.796875 261.054688 260.253906 Z M 261.054688 260.253906 " fill-opacity="1" fill-rule="nonzero"/></g></g></g><g clip-path="url(#b2b6e30163)"><g clip-path="url(#d7e04725b7)"><g clip-path="url(#0041f009ad)"><path fill="#ffffff" d="M 136.394531 136.394531 C 108.171875 164.621094 108.171875 210.378906 136.394531 238.601562 C 164.621094 266.824219 210.378906 266.824219 238.601562 238.601562 C 266.824219 210.378906 266.824219 164.621094 238.601562 136.394531 C 210.378906 108.171875 164.621094 108.171875 136.394531 136.394531 Z M 221.15625 194.722656 L 187.5 194.722656 C 185.578125 194.722656 183.742188 193.964844 182.386719 192.609375 L 156.835938 167.058594 C 154.015625 164.238281 154.015625 159.65625 156.835938 156.835938 C 159.65625 154.015625 164.238281 154.015625 167.058594 156.835938 L 190.492188 180.273438 L 221.15625 180.273438 C 225.140625 180.273438 228.378906 183.511719 228.378906 187.5 C 228.378906 191.484375 225.140625 194.722656 221.15625 194.722656 Z M 221.15625 194.722656 " fill-opacity="1" fill-rule="nonzero"/></g></g></g><g clip-path="url(#480d58a0a4)"><g clip-path="url(#189dc9f6b0)"><g clip-path="url(#acdcce2fe4)"><path fill="#f4f6fc" d="M 251.453125 123.542969 C 252.5 124.589844 253.519531 125.664062 254.515625 126.757812 C 255.507812 127.855469 256.476562 128.976562 257.414062 130.121094 C 258.351562 131.265625 259.261719 132.433594 260.144531 133.621094 C 261.027344 134.808594 261.878906 136.019531 262.703125 137.25 C 263.523438 138.480469 264.316406 139.730469 265.078125 141 C 265.835938 142.269531 266.566406 143.558594 267.265625 144.863281 C 267.960938 146.167969 268.628906 147.492188 269.261719 148.828125 C 269.894531 150.167969 270.492188 151.519531 271.058594 152.886719 C 271.625 154.253906 272.160156 155.636719 272.65625 157.027344 C 273.15625 158.421875 273.621094 159.828125 274.050781 161.242188 C 274.480469 162.660156 274.875 164.085938 275.234375 165.523438 C 275.59375 166.957031 275.917969 168.402344 276.207031 169.855469 C 276.496094 171.304688 276.746094 172.761719 276.964844 174.226562 C 277.183594 175.691406 277.363281 177.160156 277.507812 178.632812 C 277.652344 180.105469 277.761719 181.582031 277.835938 183.0625 C 277.90625 184.539062 277.945312 186.019531 277.945312 187.5 C 277.945312 188.980469 277.90625 190.457031 277.835938 191.9375 C 277.761719 193.414062 277.652344 194.890625 277.507812 196.363281 C 277.363281 197.835938 277.183594 199.304688 276.964844 200.769531 C 276.746094 202.234375 276.496094 203.691406 276.207031 205.144531 C 275.917969 206.59375 275.59375 208.039062 275.234375 209.476562 C 274.875 210.910156 274.480469 212.335938 274.050781 213.753906 C 273.621094 215.171875 273.15625 216.574219 272.65625 217.96875 C 272.160156 219.363281 271.625 220.742188 271.058594 222.109375 C 270.492188 223.476562 269.894531 224.832031 269.261719 226.167969 C 268.628906 227.507812 267.960938 228.828125 267.265625 230.132812 C 266.566406 231.441406 265.835938 232.726562 265.078125 233.996094 C 264.316406 235.265625 263.523438 236.515625 262.703125 237.746094 C 261.878906 238.976562 261.027344 240.1875 260.144531 241.378906 C 259.261719 242.566406 258.351562 243.734375 257.414062 244.875 C 256.476562 246.019531 255.507812 247.140625 254.515625 248.238281 C 253.519531 249.335938 252.5 250.40625 251.453125 251.453125 C 250.40625 252.5 249.335938 253.519531 248.238281 254.515625 C 247.140625 255.507812 246.019531 256.476562 244.875 257.414062 C 243.734375 258.351562 242.566406 259.261719 241.378906 260.144531 C 240.1875 261.027344 238.976562 261.878906 237.746094 262.703125 C 236.515625 263.523438 235.265625 264.316406 233.996094 265.078125 C 232.726562 265.835938 231.441406 266.566406 230.132812 267.265625 C 228.828125 267.960938 227.507812 268.628906 226.167969 269.261719 C 224.832031 269.894531 223.476562 270.492188 222.109375 271.058594 C 220.742188 271.625 219.363281 272.160156 217.96875 272.65625 C 216.574219 273.15625 215.171875 273.621094 213.753906 274.050781 C 212.335938 274.480469 210.910156 274.875 209.476562 275.234375 C 208.039062 275.59375 206.59375 275.917969 205.144531 276.207031 C 203.691406 276.496094 202.234375 276.746094 200.769531 276.964844 C 199.304688 277.183594 197.835938 277.363281 196.363281 277.507812 C 194.890625 277.652344 193.414062 277.761719 191.9375 277.835938 C 190.457031 277.90625 188.980469 277.945312 187.5 277.945312 C 186.019531 277.945312 184.539062 277.90625 183.0625 277.835938 C 181.582031 277.761719 180.105469 277.652344 178.632812 277.507812 C 177.160156 277.363281 175.691406 277.183594 174.226562 276.964844 C 172.761719 276.746094 171.304688 276.496094 169.855469 276.207031 C 168.402344 275.917969 166.957031 275.59375 165.523438 275.234375 C 164.085938 274.875 162.660156 274.480469 161.242188 274.050781 C 159.828125 273.621094 158.421875 273.15625 157.027344 272.65625 C 155.636719 272.160156 154.253906 271.625 152.886719 271.058594 C 151.519531 270.492188 150.167969 269.894531 148.828125 269.261719 C 147.492188 268.628906 146.167969 267.960938 144.863281 267.265625 C 143.558594 266.566406 142.269531 265.835938 141 265.078125 C 139.730469 264.316406 138.480469 263.523438 137.25 262.703125 C 136.019531 261.878906 134.808594 261.027344 133.621094 260.144531 C 132.433594 259.261719 131.265625 258.351562 130.121094 257.414062 C 128.976562 256.476562 127.855469 255.507812 126.757812 254.515625 C 125.664062 253.519531 124.589844 252.5 123.542969 251.453125 C 122.496094 250.40625 121.476562 249.335938 120.484375 248.238281 C 119.488281 247.140625 118.523438 246.019531 117.582031 244.875 C 116.644531 243.734375 115.734375 242.566406 114.851562 241.378906 C 113.972656 240.1875 113.117188 238.976562 112.296875 237.746094 C 111.472656 236.515625 110.683594 235.265625 109.921875 233.996094 C 109.160156 232.726562 108.429688 231.441406 107.734375 230.132812 C 107.035156 228.828125 106.371094 227.507812 105.738281 226.167969 C 105.105469 224.832031 104.503906 223.476562 103.9375 222.109375 C 103.371094 220.742188 102.839844 219.363281 102.339844 217.96875 C 101.84375 216.574219 101.378906 215.171875 100.949219 213.753906 C 100.519531 212.335938 100.125 210.910156 99.765625 209.476562 C 99.40625 208.039062 99.082031 206.59375 98.792969 205.144531 C 98.503906 203.691406 98.25 202.234375 98.03125 200.769531 C 97.816406 199.304688 97.632812 197.835938 97.488281 196.363281 C 97.34375 194.890625 97.234375 193.414062 97.164062 191.9375 C 97.089844 190.457031 97.054688 188.980469 97.054688 187.5 C 97.054688 186.019531 97.089844 184.539062 97.164062 183.0625 C 97.234375 181.582031 97.34375 180.105469 97.488281 178.632812 C 97.632812 177.160156 97.816406 175.691406 98.03125 174.226562 C 98.25 172.761719 98.503906 171.304688 98.792969 169.855469 C 99.082031 168.402344 99.40625 166.957031 99.765625 165.523438 C 100.125 164.085938 100.519531 162.660156 100.949219 161.242188 C 101.378906 159.828125 101.84375 158.421875 102.339844 157.027344 C 102.839844 155.636719 103.371094 154.253906 103.9375 152.886719 C 104.503906 151.519531 105.105469 150.167969 105.738281 148.828125 C 106.371094 147.492188 107.035156 146.167969 107.734375 144.863281 C 108.429688 143.558594 109.160156 142.269531 109.921875 141 C 110.683594 139.730469 111.472656 138.480469 112.296875 137.25 C 113.117188 136.019531 113.972656 134.808594 114.851562 133.621094 C 115.734375 132.433594 116.644531 131.265625 117.582031 130.121094 C 118.523438 128.976562 119.488281 127.855469 120.484375 126.757812 C 121.476562 125.664062 122.496094 124.589844 123.542969 123.542969 C 124.589844 122.496094 125.664062 121.476562 126.757812 120.484375 C 127.855469 119.488281 128.976562 118.523438 130.121094 117.582031 C 131.265625 116.644531 132.433594 115.734375 133.621094 114.851562 C 134.808594 113.972656 136.019531 113.117188 137.25 112.296875 C 138.480469 111.472656 139.730469 110.683594 141 109.921875 C 142.269531 109.160156 143.558594 108.429688 144.863281 107.734375 C 146.167969 107.035156 147.492188 106.371094 148.828125 105.738281 C 150.167969 105.105469 151.519531 104.503906 152.886719 103.9375 C 154.253906 103.371094 155.636719 102.839844 157.027344 102.339844 C 158.421875 101.84375 159.828125 101.378906 161.242188 100.949219 C 162.660156 100.519531 164.085938 100.125 165.523438 99.765625 C 166.957031 99.40625 168.402344 99.082031 169.855469 98.792969 C 171.304688 98.503906 172.761719 98.25 174.226562 98.03125 C 175.691406 97.816406 177.160156 97.632812 178.632812 97.488281 C 180.105469 97.34375 181.582031 97.234375 183.0625 97.164062 C 184.539062 97.089844 186.019531 97.054688 187.5 97.054688 C 188.980469 97.054688 190.457031 97.089844 191.9375 97.164062 C 193.414062 97.234375 194.890625 97.34375 196.363281 97.488281 C 197.835938 97.632812 199.304688 97.816406 200.769531 98.03125 C 202.234375 98.25 203.691406 98.503906 205.144531 98.792969 C 206.59375 99.082031 208.039062 99.40625 209.476562 99.765625 C 210.910156 100.125 212.335938 100.519531 213.753906 100.949219 C 215.171875 101.378906 216.574219 101.84375 217.96875 102.339844 C 219.363281 102.839844 220.742188 103.371094 222.109375 103.9375 C 223.476562 104.503906 224.832031 105.105469 226.167969 105.738281 C 227.507812 106.371094 228.828125 107.035156 230.132812 107.734375 C 231.441406 108.429688 232.726562 109.160156 233.996094 109.921875 C 235.265625 110.683594 236.515625 111.472656 237.746094 112.296875 C 238.976562 113.117188 240.1875 113.972656 241.378906 114.851562 C 242.566406 115.734375 243.734375 116.644531 244.875 117.582031 C 246.019531 118.523438 247.140625 119.488281 248.238281 120.484375 C 249.335938 121.476562 250.40625 122.496094 251.453125 123.542969 Z M 251.453125 123.542969 " fill-opacity="1" fill-rule="nonzero"/></g></g></g><g clip-path="url(#86bcd4ce04)"><g clip-path="url(#36304bb0d5)"><g clip-path="url(#d30c32e6a9)"><path fill="#233dff" d="M 114.605469 114.605469 C 73.378906 155.835938 73.378906 222.625 114.605469 263.851562 C 155.835938 305.082031 222.625 305.082031 263.851562 263.851562 C 305.082031 222.625 305.082031 155.835938 263.851562 114.605469 C 222.625 73.378906 155.835938 73.378906 114.605469 114.605469 Z M 248.929688 248.929688 C 215.945312 281.910156 162.515625 281.910156 129.53125 248.929688 C 96.546875 215.945312 96.546875 162.515625 129.53125 129.53125 C 162.515625 96.546875 215.945312 96.546875 248.929688 129.53125 C 281.910156 162.515625 281.910156 215.945312 248.929688 248.929688 Z M 248.929688 248.929688 " fill-opacity="1" fill-rule="nonzero"/></g></g></g><g clip-path="url(#b0972de7ae)"><path fill="#050a30" d="M 187.898438 95.015625 C 137.042969 95.015625 95.816406 136.242188 95.816406 187.097656 C 95.816406 237.953125 137.042969 279.175781 187.898438 279.175781 C 238.753906 279.175781 279.976562 237.953125 279.976562 187.097656 C 279.976562 136.242188 238.753906 95.015625 187.898438 95.015625 Z M 211.710938 223.929688 L 181.386719 193.605469 C 179.65625 191.875 178.6875 189.535156 178.6875 187.097656 L 178.6875 141.054688 C 178.6875 135.972656 182.8125 131.847656 187.898438 131.847656 C 192.980469 131.847656 197.105469 135.972656 197.105469 141.054688 L 197.105469 183.285156 L 224.730469 210.910156 C 228.320312 214.5 228.320312 220.335938 224.730469 223.929688 C 221.136719 227.519531 215.300781 227.519531 211.710938 223.929688 Z M 211.710938 223.929688 " fill-opacity="1" fill-rule="nonzero"/></g></svg>