<svg xmlns="http://www.w3.org/2000/svg" xmlns:xlink="http://www.w3.org/1999/xlink" width="500" zoomAndPan="magnify" viewBox="0 0 375 374.999991" height="500" preserveAspectRatio="xMidYMid meet" version="1.0"><defs><clipPath id="e8f8465959"><path d="M 0 59.660156 L 375 59.660156 L 375 315.410156 L 0 315.410156 Z M 0 59.660156 " clip-rule="nonzero"/></clipPath><clipPath id="07f42a3502"><path d="M 72.652344 72.652344 L 302.152344 72.652344 L 302.152344 302.152344 L 72.652344 302.152344 Z M 72.652344 72.652344 " clip-rule="nonzero"/></clipPath><clipPath id="502dc3f567"><path d="M 251.6875 69.964844 L 305.214844 69.964844 L 305.214844 305.328125 L 251.6875 305.328125 Z M 251.6875 69.964844 " clip-rule="nonzero"/></clipPath><clipPath id="eea51c5efc"><path d="M 69.964844 69.964844 L 168.949219 69.964844 L 168.949219 291.398438 L 69.964844 291.398438 Z M 69.964844 69.964844 " clip-rule="nonzero"/></clipPath><clipPath id="08c4e4b63e"><path d="M 69.964844 69.964844 L 305.328125 69.964844 L 305.328125 99.292969 L 69.964844 99.292969 Z M 69.964844 69.964844 " clip-rule="nonzero"/></clipPath><clipPath id="b7f49e18eb"><path d="M 134.96875 95.992188 L 252.285156 95.992188 L 252.285156 276.367188 L 134.96875 276.367188 Z M 134.96875 95.992188 " clip-rule="nonzero"/></clipPath><clipPath id="2a90095422"><path d="M 69.664062 276.160156 L 305.03125 276.160156 L 305.03125 295.222656 L 69.664062 295.222656 Z M 69.664062 276.160156 " clip-rule="nonzero"/></clipPath><clipPath id="b6003164e3"><path d="M 69.664062 275.699219 L 305.03125 275.699219 L 305.03125 305.03125 L 69.664062 305.03125 Z M 69.664062 275.699219 " clip-rule="nonzero"/></clipPath><clipPath id="b3be711a94"><path d="M 59.660156 59.660156 L 315.410156 59.660156 L 315.410156 315.410156 L 59.660156 315.410156 Z M 59.660156 59.660156 " clip-rule="nonzero"/></clipPath></defs><g clip-path="url(#e8f8465959)"><path fill="#233dff" d="M 187.5 59.660156 C 102.273438 59.660156 29.488281 112.671875 0 187.5 C 29.488281 262.328125 102.273438 315.339844 187.5 315.339844 C 272.726562 315.339844 345.511719 262.328125 375 187.5 C 345.511719 112.671875 272.8125 59.660156 187.5 59.660156 Z M 187.5 272.726562 C 140.453125 272.726562 102.273438 234.542969 102.273438 187.5 C 102.273438 140.453125 140.453125 102.273438 187.5 102.273438 C 234.546875 102.273438 272.726562 140.453125 272.726562 187.5 C 272.726562 234.542969 234.546875 272.726562 187.5 272.726562 Z M 187.5 136.363281 C 159.289062 136.363281 136.363281 159.289062 136.363281 187.5 C 136.363281 215.707031 159.289062 238.636719 187.5 238.636719 C 215.710938 238.636719 238.636719 215.707031 238.636719 187.5 C 238.636719 159.289062 215.710938 136.363281 187.5 136.363281 Z M 187.5 136.363281 " fill-opacity="1" fill-rule="nonzero"/></g><g clip-path="url(#07f42a3502)"><path fill="#050a30" d="M 302.339844 187.496094 C 302.339844 189.375 302.292969 191.253906 302.203125 193.132812 C 302.109375 195.007812 301.972656 196.882812 301.785156 198.753906 C 301.601562 200.625 301.371094 202.488281 301.097656 204.347656 C 300.820312 206.207031 300.5 208.058594 300.132812 209.902344 C 299.765625 211.746094 299.355469 213.578125 298.898438 215.402344 C 298.441406 217.222656 297.941406 219.035156 297.394531 220.832031 C 296.847656 222.632812 296.261719 224.417969 295.625 226.1875 C 294.992188 227.957031 294.316406 229.707031 293.597656 231.445312 C 292.878906 233.179688 292.117188 234.898438 291.3125 236.597656 C 290.511719 238.296875 289.664062 239.976562 288.78125 241.632812 C 287.894531 243.289062 286.96875 244.925781 286 246.539062 C 285.035156 248.148438 284.03125 249.738281 282.984375 251.300781 C 281.941406 252.863281 280.859375 254.398438 279.738281 255.910156 C 278.621094 257.417969 277.464844 258.898438 276.273438 260.351562 C 275.078125 261.804688 273.851562 263.226562 272.589844 264.621094 C 271.328125 266.011719 270.03125 267.375 268.703125 268.703125 C 267.375 270.03125 266.011719 271.328125 264.621094 272.589844 C 263.226562 273.851562 261.804688 275.078125 260.351562 276.273438 C 258.898438 277.464844 257.417969 278.621094 255.910156 279.738281 C 254.398438 280.859375 252.863281 281.941406 251.300781 282.984375 C 249.738281 284.03125 248.148438 285.035156 246.539062 286 C 244.925781 286.96875 243.289062 287.894531 241.632812 288.78125 C 239.976562 289.664062 238.296875 290.511719 236.597656 291.3125 C 234.898438 292.117188 233.179688 292.878906 231.445312 293.597656 C 229.707031 294.316406 227.957031 294.992188 226.1875 295.625 C 224.417969 296.261719 222.632812 296.847656 220.832031 297.394531 C 219.035156 297.941406 217.222656 298.441406 215.402344 298.898438 C 213.578125 299.355469 211.746094 299.765625 209.902344 300.132812 C 208.058594 300.5 206.207031 300.820312 204.347656 301.097656 C 202.488281 301.371094 200.625 301.601562 198.753906 301.785156 C 196.882812 301.972656 195.007812 302.109375 193.132812 302.203125 C 191.253906 302.292969 189.375 302.339844 187.496094 302.339844 C 185.617188 302.339844 183.738281 302.292969 181.859375 302.203125 C 179.984375 302.109375 178.109375 301.972656 176.238281 301.785156 C 174.371094 301.601562 172.503906 301.371094 170.644531 301.097656 C 168.785156 300.820312 166.933594 300.5 165.089844 300.132812 C 163.246094 299.765625 161.414062 299.355469 159.589844 298.898438 C 157.769531 298.441406 155.957031 297.941406 154.160156 297.394531 C 152.359375 296.847656 150.578125 296.261719 148.804688 295.625 C 147.035156 294.992188 145.285156 294.316406 143.546875 293.597656 C 141.8125 292.878906 140.09375 292.117188 138.394531 291.3125 C 136.695312 290.511719 135.015625 289.664062 133.359375 288.78125 C 131.703125 287.894531 130.066406 286.96875 128.453125 286 C 126.84375 285.035156 125.253906 284.03125 123.691406 282.984375 C 122.128906 281.941406 120.59375 280.859375 119.082031 279.738281 C 117.574219 278.621094 116.09375 277.464844 114.640625 276.273438 C 113.1875 275.078125 111.765625 273.851562 110.371094 272.589844 C 108.980469 271.328125 107.617188 270.03125 106.289062 268.703125 C 104.960938 267.375 103.664062 266.011719 102.402344 264.621094 C 101.140625 263.226562 99.914062 261.804688 98.722656 260.351562 C 97.527344 258.898438 96.371094 257.417969 95.253906 255.910156 C 94.132812 254.398438 93.050781 252.863281 92.007812 251.300781 C 90.964844 249.738281 89.957031 248.148438 88.992188 246.539062 C 88.023438 244.925781 87.097656 243.289062 86.214844 241.632812 C 85.328125 239.976562 84.480469 238.296875 83.679688 236.597656 C 82.875 234.898438 82.113281 233.179688 81.394531 231.445312 C 80.675781 229.707031 80 227.957031 79.367188 226.1875 C 78.734375 224.417969 78.144531 222.632812 77.597656 220.832031 C 77.050781 219.035156 76.550781 217.222656 76.09375 215.402344 C 75.636719 213.578125 75.226562 211.746094 74.859375 209.902344 C 74.492188 208.058594 74.171875 206.207031 73.894531 204.347656 C 73.621094 202.488281 73.390625 200.625 73.207031 198.753906 C 73.019531 196.882812 72.882812 195.007812 72.789062 193.132812 C 72.699219 191.253906 72.652344 189.375 72.652344 187.496094 C 72.652344 185.617188 72.699219 183.738281 72.789062 181.859375 C 72.882812 179.984375 73.019531 178.109375 73.207031 176.238281 C 73.390625 174.371094 73.621094 172.503906 73.894531 170.644531 C 74.171875 168.785156 74.492188 166.933594 74.859375 165.089844 C 75.226562 163.246094 75.636719 161.414062 76.09375 159.589844 C 76.550781 157.769531 77.050781 155.957031 77.597656 154.160156 C 78.144531 152.359375 78.734375 150.578125 79.367188 148.804688 C 80 147.035156 80.675781 145.285156 81.394531 143.546875 C 82.113281 141.8125 82.875 140.09375 83.679688 138.394531 C 84.480469 136.695312 85.328125 135.015625 86.214844 133.359375 C 87.097656 131.703125 88.023438 130.066406 88.992188 128.453125 C 89.957031 126.84375 90.964844 125.253906 92.007812 123.691406 C 93.050781 122.128906 94.132812 120.59375 95.253906 119.082031 C 96.371094 117.574219 97.527344 116.09375 98.722656 114.640625 C 99.914062 113.1875 101.140625 111.765625 102.402344 110.371094 C 103.664062 108.980469 104.960938 107.617188 106.289062 106.289062 C 107.617188 104.960938 108.980469 103.664062 110.371094 102.402344 C 111.765625 101.140625 113.1875 99.914062 114.640625 98.722656 C 116.09375 97.527344 117.574219 96.371094 119.082031 95.253906 C 120.59375 94.132812 122.128906 93.050781 123.691406 92.007812 C 125.253906 90.964844 126.84375 89.957031 128.453125 88.992188 C 130.066406 88.023438 131.703125 87.097656 133.359375 86.214844 C 135.015625 85.328125 136.695312 84.480469 138.394531 83.679688 C 140.09375 82.875 141.8125 82.113281 143.546875 81.394531 C 145.285156 80.675781 147.035156 80 148.804688 79.367188 C 150.578125 78.734375 152.359375 78.144531 154.160156 77.597656 C 155.957031 77.050781 157.769531 76.550781 159.589844 76.09375 C 161.414062 75.636719 163.246094 75.226562 165.089844 74.859375 C 166.933594 74.492188 168.785156 74.171875 170.644531 73.894531 C 172.503906 73.621094 174.371094 73.390625 176.238281 73.207031 C 178.109375 73.019531 179.984375 72.882812 181.859375 72.789062 C 183.738281 72.699219 185.617188 72.652344 187.496094 72.652344 C 189.375 72.652344 191.253906 72.699219 193.132812 72.789062 C 195.007812 72.882812 196.882812 73.019531 198.753906 73.207031 C 200.625 73.390625 202.488281 73.621094 204.347656 73.894531 C 206.207031 74.171875 208.058594 74.492188 209.902344 74.859375 C 211.746094 75.226562 213.578125 75.636719 215.402344 76.09375 C 217.222656 76.550781 219.035156 77.050781 220.832031 77.597656 C 222.632812 78.144531 224.417969 78.734375 226.1875 79.367188 C 227.957031 80 229.707031 80.675781 231.445312 81.394531 C 233.179688 82.113281 234.898438 82.875 236.597656 83.679688 C 238.296875 84.480469 239.976562 85.328125 241.632812 86.214844 C 243.289062 87.097656 244.925781 88.023438 246.539062 88.992188 C 248.148438 89.957031 249.738281 90.964844 251.300781 92.007812 C 252.863281 93.050781 254.398438 94.132812 255.910156 95.253906 C 257.417969 96.371094 258.898438 97.527344 260.351562 98.722656 C 261.804688 99.914062 263.226562 101.140625 264.621094 102.402344 C 266.011719 103.664062 267.375 104.960938 268.703125 106.289062 C 270.03125 107.617188 271.328125 108.980469 272.589844 110.371094 C 273.851562 111.765625 275.078125 113.1875 276.273438 114.640625 C 277.464844 116.09375 278.621094 117.574219 279.738281 119.082031 C 280.859375 120.59375 281.941406 122.128906 282.984375 123.691406 C 284.03125 125.253906 285.035156 126.84375 286 128.453125 C 286.96875 130.066406 287.894531 131.703125 288.78125 133.359375 C 289.664062 135.015625 290.511719 136.695312 291.3125 138.394531 C 292.117188 140.09375 292.878906 141.8125 293.597656 143.546875 C 294.316406 145.285156 294.992188 147.035156 295.625 148.804688 C 296.261719 150.578125 296.847656 152.359375 297.394531 154.160156 C 297.941406 155.957031 298.441406 157.769531 298.898438 159.589844 C 299.355469 161.414062 299.765625 163.246094 300.132812 165.089844 C 300.5 166.933594 300.820312 168.785156 301.097656 170.644531 C 301.371094 172.503906 301.601562 174.371094 301.785156 176.238281 C 301.972656 178.109375 302.109375 179.984375 302.203125 181.859375 C 302.292969 183.738281 302.339844 185.617188 302.339844 187.496094 Z M 302.339844 187.496094 " fill-opacity="1" fill-rule="nonzero"/></g><g clip-path="url(#502dc3f567)"><path fill="#e2eaff" d="M 305.03125 187.496094 C 305.03125 189.421875 304.984375 191.34375 304.890625 193.265625 C 304.792969 195.183594 304.652344 197.101562 304.464844 199.015625 C 304.277344 200.929688 304.039062 202.839844 303.757812 204.742188 C 303.476562 206.644531 303.148438 208.539062 302.773438 210.425781 C 302.398438 212.3125 301.976562 214.1875 301.507812 216.054688 C 301.039062 217.921875 300.527344 219.773438 299.96875 221.613281 C 299.410156 223.457031 298.808594 225.28125 298.160156 227.09375 C 297.511719 228.902344 296.820312 230.699219 296.082031 232.476562 C 295.347656 234.253906 294.570312 236.011719 293.746094 237.75 C 292.921875 239.488281 292.058594 241.207031 291.152344 242.902344 C 290.246094 244.597656 289.296875 246.269531 288.308594 247.921875 C 287.320312 249.570312 286.292969 251.195312 285.222656 252.796875 C 284.152344 254.394531 283.046875 255.964844 281.902344 257.511719 C 280.753906 259.054688 279.570312 260.574219 278.351562 262.058594 C 277.132812 263.546875 275.875 265.003906 274.582031 266.425781 C 273.292969 267.851562 271.964844 269.246094 270.605469 270.605469 C 269.246094 271.964844 267.851562 273.292969 266.425781 274.582031 C 265.003906 275.875 263.546875 277.132812 262.058594 278.351562 C 260.574219 279.570312 259.054688 280.753906 257.511719 281.902344 C 255.964844 283.046875 254.394531 284.152344 252.796875 285.222656 C 251.195312 286.292969 249.570312 287.320312 247.921875 288.308594 C 246.269531 289.296875 244.597656 290.246094 242.902344 291.152344 C 241.207031 292.058594 239.488281 292.921875 237.75 293.746094 C 236.011719 294.570312 234.253906 295.347656 232.476562 296.082031 C 230.699219 296.820312 228.902344 297.511719 227.09375 298.160156 C 225.28125 298.808594 223.457031 299.410156 221.613281 299.96875 C 219.773438 300.527344 217.921875 301.039062 216.054688 301.507812 C 214.1875 301.976562 212.3125 302.398438 210.425781 302.773438 C 208.539062 303.148438 206.644531 303.476562 204.742188 303.757812 C 202.839844 304.039062 200.929688 304.277344 199.015625 304.464844 C 197.101562 304.652344 195.183594 304.792969 193.265625 304.890625 C 191.34375 304.984375 189.421875 305.03125 187.496094 305.03125 C 185.574219 305.03125 183.652344 304.984375 181.730469 304.890625 C 179.808594 304.792969 177.890625 304.652344 175.976562 304.464844 C 174.0625 304.277344 172.152344 304.039062 170.25 303.757812 C 168.347656 303.476562 166.453125 303.148438 164.566406 302.773438 C 162.679688 302.398438 160.804688 301.976562 158.9375 301.507812 C 157.074219 301.039062 155.21875 300.527344 153.378906 299.96875 C 151.539062 299.410156 149.710938 298.808594 147.902344 298.160156 C 146.089844 297.511719 144.296875 296.820312 142.519531 296.082031 C 140.742188 295.347656 138.984375 294.570312 137.246094 293.746094 C 135.507812 292.921875 133.789062 292.058594 132.09375 291.152344 C 130.394531 290.246094 128.722656 289.296875 127.074219 288.308594 C 125.421875 287.320312 123.796875 286.292969 122.199219 285.222656 C 120.597656 284.152344 119.027344 283.046875 117.480469 281.902344 C 115.9375 280.753906 114.421875 279.570312 112.933594 278.351562 C 111.449219 277.132812 109.992188 275.875 108.566406 274.582031 C 107.140625 273.292969 105.75 271.964844 104.386719 270.605469 C 103.027344 269.246094 101.703125 267.851562 100.410156 266.425781 C 99.117188 265.003906 97.863281 263.546875 96.640625 262.058594 C 95.421875 260.574219 94.238281 259.054688 93.09375 257.511719 C 91.949219 255.964844 90.839844 254.394531 89.769531 252.796875 C 88.703125 251.195312 87.675781 249.570312 86.683594 247.921875 C 85.695312 246.269531 84.75 244.597656 83.839844 242.902344 C 82.933594 241.207031 82.070312 239.488281 81.246094 237.75 C 80.425781 236.011719 79.644531 234.253906 78.910156 232.476562 C 78.175781 230.699219 77.480469 228.902344 76.832031 227.09375 C 76.1875 225.28125 75.582031 223.457031 75.023438 221.613281 C 74.464844 219.773438 73.953125 217.921875 73.484375 216.054688 C 73.019531 214.1875 72.597656 212.3125 72.222656 210.425781 C 71.847656 208.539062 71.519531 206.644531 71.234375 204.742188 C 70.953125 202.839844 70.71875 200.929688 70.53125 199.015625 C 70.339844 197.101562 70.199219 195.183594 70.105469 193.265625 C 70.011719 191.34375 69.964844 189.421875 69.964844 187.496094 C 69.964844 185.574219 70.011719 183.652344 70.105469 181.730469 C 70.199219 179.808594 70.339844 177.890625 70.53125 175.976562 C 70.71875 174.0625 70.953125 172.152344 71.234375 170.25 C 71.519531 168.347656 71.847656 166.453125 72.222656 164.566406 C 72.597656 162.679688 73.019531 160.804688 73.484375 158.9375 C 73.953125 157.074219 74.464844 155.21875 75.023438 153.378906 C 75.582031 151.539062 76.1875 149.710938 76.832031 147.902344 C 77.480469 146.089844 78.175781 144.296875 78.910156 142.519531 C 79.644531 140.742188 80.425781 138.984375 81.246094 137.246094 C 82.070312 135.507812 82.933594 133.789062 83.839844 132.09375 C 84.75 130.394531 85.695312 128.722656 86.683594 127.074219 C 87.675781 125.421875 88.703125 123.796875 89.769531 122.199219 C 90.839844 120.597656 91.949219 119.027344 93.09375 117.480469 C 94.238281 115.9375 95.421875 114.421875 96.640625 112.933594 C 97.863281 111.449219 99.117188 109.992188 100.410156 108.566406 C 101.703125 107.140625 103.027344 105.75 104.386719 104.386719 C 105.75 103.027344 107.140625 101.703125 108.566406 100.410156 C 109.992188 99.117188 111.449219 97.863281 112.933594 96.640625 C 114.421875 95.421875 115.9375 94.238281 117.480469 93.09375 C 119.027344 91.949219 120.597656 90.839844 122.199219 89.769531 C 123.796875 88.703125 125.421875 87.675781 127.074219 86.683594 C 128.722656 85.695312 130.394531 84.75 132.09375 83.839844 C 133.789062 82.933594 135.507812 82.070312 137.246094 81.246094 C 138.984375 80.425781 140.742188 79.644531 142.519531 78.910156 C 144.296875 78.175781 146.089844 77.480469 147.902344 76.832031 C 149.710938 76.1875 151.539062 75.582031 153.378906 75.023438 C 155.21875 74.464844 157.074219 73.953125 158.9375 73.484375 C 160.804688 73.019531 162.679688 72.597656 164.566406 72.222656 C 166.453125 71.847656 168.347656 71.519531 170.25 71.234375 C 172.152344 70.953125 174.0625 70.71875 175.976562 70.53125 C 177.890625 70.339844 179.808594 70.199219 181.730469 70.105469 C 183.652344 70.011719 185.574219 69.964844 187.496094 69.964844 C 189.421875 69.964844 191.34375 70.011719 193.265625 70.105469 C 195.183594 70.199219 197.101562 70.339844 199.015625 70.53125 C 200.929688 70.71875 202.839844 70.953125 204.742188 71.234375 C 206.644531 71.519531 208.539062 71.847656 210.425781 72.222656 C 212.3125 72.597656 214.1875 73.019531 216.054688 73.484375 C 217.921875 73.953125 219.773438 74.464844 221.613281 75.023438 C 223.457031 75.582031 225.28125 76.1875 227.09375 76.832031 C 228.902344 77.480469 230.699219 78.175781 232.476562 78.910156 C 234.253906 79.644531 236.011719 80.425781 237.75 81.246094 C 239.488281 82.070312 241.207031 82.933594 242.902344 83.839844 C 244.597656 84.75 246.269531 85.695312 247.921875 86.683594 C 249.570312 87.675781 251.195312 88.703125 252.796875 89.769531 C 254.394531 90.839844 255.964844 91.949219 257.511719 93.09375 C 259.054688 94.238281 260.574219 95.421875 262.058594 96.640625 C 263.546875 97.863281 265.003906 99.117188 266.425781 100.410156 C 267.851562 101.703125 269.246094 103.027344 270.605469 104.386719 C 271.964844 105.75 273.292969 107.140625 274.582031 108.566406 C 275.875 109.992188 277.132812 111.449219 278.351562 112.933594 C 279.570312 114.421875 280.753906 115.9375 281.902344 117.480469 C 283.046875 119.027344 284.152344 120.597656 285.222656 122.199219 C 286.292969 123.796875 287.320312 125.421875 288.308594 127.074219 C 289.296875 128.722656 290.246094 130.394531 291.152344 132.09375 C 292.058594 133.789062 292.921875 135.507812 293.746094 137.246094 C 294.570312 138.984375 295.347656 140.742188 296.082031 142.519531 C 296.820312 144.296875 297.511719 146.089844 298.160156 147.902344 C 298.808594 149.710938 299.410156 151.539062 299.96875 153.378906 C 300.527344 155.21875 301.039062 157.074219 301.507812 158.9375 C 301.976562 160.804688 302.398438 162.679688 302.773438 164.566406 C 303.148438 166.453125 303.476562 168.347656 303.757812 170.25 C 304.039062 172.152344 304.277344 174.0625 304.464844 175.976562 C 304.652344 177.890625 304.792969 179.808594 304.890625 181.730469 C 304.984375 183.652344 305.03125 185.574219 305.03125 187.496094 Z M 305.03125 187.496094 " fill-opacity="1" fill-rule="nonzero"/></g><g clip-path="url(#eea51c5efc)"><path fill="#e2eaff" d="M 305.03125 187.496094 C 305.03125 189.421875 304.984375 191.34375 304.890625 193.265625 C 304.792969 195.183594 304.652344 197.101562 304.464844 199.015625 C 304.277344 200.929688 304.039062 202.839844 303.757812 204.742188 C 303.476562 206.644531 303.148438 208.539062 302.773438 210.425781 C 302.398438 212.3125 301.976562 214.1875 301.507812 216.054688 C 301.039062 217.921875 300.527344 219.773438 299.96875 221.613281 C 299.410156 223.457031 298.808594 225.28125 298.160156 227.09375 C 297.511719 228.902344 296.820312 230.699219 296.082031 232.476562 C 295.347656 234.253906 294.570312 236.011719 293.746094 237.75 C 292.921875 239.488281 292.058594 241.207031 291.152344 242.902344 C 290.246094 244.597656 289.296875 246.269531 288.308594 247.921875 C 287.320312 249.570312 286.292969 251.195312 285.222656 252.796875 C 284.152344 254.394531 283.046875 255.964844 281.902344 257.511719 C 280.753906 259.054688 279.570312 260.574219 278.351562 262.058594 C 277.132812 263.546875 275.875 265.003906 274.582031 266.425781 C 273.292969 267.851562 271.964844 269.246094 270.605469 270.605469 C 269.246094 271.964844 267.851562 273.292969 266.425781 274.582031 C 265.003906 275.875 263.546875 277.132812 262.058594 278.351562 C 260.574219 279.570312 259.054688 280.753906 257.511719 281.902344 C 255.964844 283.046875 254.394531 284.152344 252.796875 285.222656 C 251.195312 286.292969 249.570312 287.320312 247.921875 288.308594 C 246.269531 289.296875 244.597656 290.246094 242.902344 291.152344 C 241.207031 292.058594 239.488281 292.921875 237.75 293.746094 C 236.011719 294.570312 234.253906 295.347656 232.476562 296.082031 C 230.699219 296.820312 228.902344 297.511719 227.09375 298.160156 C 225.28125 298.808594 223.457031 299.410156 221.613281 299.96875 C 219.773438 300.527344 217.921875 301.039062 216.054688 301.507812 C 214.1875 301.976562 212.3125 302.398438 210.425781 302.773438 C 208.539062 303.148438 206.644531 303.476562 204.742188 303.757812 C 202.839844 304.039062 200.929688 304.277344 199.015625 304.464844 C 197.101562 304.652344 195.183594 304.792969 193.265625 304.890625 C 191.34375 304.984375 189.421875 305.03125 187.496094 305.03125 C 185.574219 305.03125 183.652344 304.984375 181.730469 304.890625 C 179.808594 304.792969 177.890625 304.652344 175.976562 304.464844 C 174.0625 304.277344 172.152344 304.039062 170.25 303.757812 C 168.347656 303.476562 166.453125 303.148438 164.566406 302.773438 C 162.679688 302.398438 160.804688 301.976562 158.9375 301.507812 C 157.074219 301.039062 155.21875 300.527344 153.378906 299.96875 C 151.539062 299.410156 149.710938 298.808594 147.902344 298.160156 C 146.089844 297.511719 144.296875 296.820312 142.519531 296.082031 C 140.742188 295.347656 138.984375 294.570312 137.246094 293.746094 C 135.507812 292.921875 133.789062 292.058594 132.09375 291.152344 C 130.394531 290.246094 128.722656 289.296875 127.074219 288.308594 C 125.421875 287.320312 123.796875 286.292969 122.199219 285.222656 C 120.597656 284.152344 119.027344 283.046875 117.480469 281.902344 C 115.9375 280.753906 114.421875 279.570312 112.933594 278.351562 C 111.449219 277.132812 109.992188 275.875 108.566406 274.582031 C 107.140625 273.292969 105.75 271.964844 104.386719 270.605469 C 103.027344 269.246094 101.703125 267.851562 100.410156 266.425781 C 99.117188 265.003906 97.863281 263.546875 96.640625 262.058594 C 95.421875 260.574219 94.238281 259.054688 93.09375 257.511719 C 91.949219 255.964844 90.839844 254.394531 89.769531 252.796875 C 88.703125 251.195312 87.675781 249.570312 86.683594 247.921875 C 85.695312 246.269531 84.75 244.597656 83.839844 242.902344 C 82.933594 241.207031 82.070312 239.488281 81.246094 237.75 C 80.425781 236.011719 79.644531 234.253906 78.910156 232.476562 C 78.175781 230.699219 77.480469 228.902344 76.832031 227.09375 C 76.1875 225.28125 75.582031 223.457031 75.023438 221.613281 C 74.464844 219.773438 73.953125 217.921875 73.484375 216.054688 C 73.019531 214.1875 72.597656 212.3125 72.222656 210.425781 C 71.847656 208.539062 71.519531 206.644531 71.234375 204.742188 C 70.953125 202.839844 70.71875 200.929688 70.53125 199.015625 C 70.339844 197.101562 70.199219 195.183594 70.105469 193.265625 C 70.011719 191.34375 69.964844 189.421875 69.964844 187.496094 C 69.964844 185.574219 70.011719 183.652344 70.105469 181.730469 C 70.199219 179.808594 70.339844 177.890625 70.53125 175.976562 C 70.71875 174.0625 70.953125 172.152344 71.234375 170.25 C 71.519531 168.347656 71.847656 166.453125 72.222656 164.566406 C 72.597656 162.679688 73.019531 160.804688 73.484375 158.9375 C 73.953125 157.074219 74.464844 155.21875 75.023438 153.378906 C 75.582031 151.539062 76.1875 149.710938 76.832031 147.902344 C 77.480469 146.089844 78.175781 144.296875 78.910156 142.519531 C 79.644531 140.742188 80.425781 138.984375 81.246094 137.246094 C 82.070312 135.507812 82.933594 133.789062 83.839844 132.09375 C 84.75 130.394531 85.695312 128.722656 86.683594 127.074219 C 87.675781 125.421875 88.703125 123.796875 89.769531 122.199219 C 90.839844 120.597656 91.949219 119.027344 93.09375 117.480469 C 94.238281 115.9375 95.421875 114.421875 96.640625 112.933594 C 97.863281 111.449219 99.117188 109.992188 100.410156 108.566406 C 101.703125 107.140625 103.027344 105.75 104.386719 104.386719 C 105.75 103.027344 107.140625 101.703125 108.566406 100.410156 C 109.992188 99.117188 111.449219 97.863281 112.933594 96.640625 C 114.421875 95.421875 115.9375 94.238281 117.480469 93.09375 C 119.027344 91.949219 120.597656 90.839844 122.199219 89.769531 C 123.796875 88.703125 125.421875 87.675781 127.074219 86.683594 C 128.722656 85.695312 130.394531 84.75 132.09375 83.839844 C 133.789062 82.933594 135.507812 82.070312 137.246094 81.246094 C 138.984375 80.425781 140.742188 79.644531 142.519531 78.910156 C 144.296875 78.175781 146.089844 77.480469 147.902344 76.832031 C 149.710938 76.1875 151.539062 75.582031 153.378906 75.023438 C 155.21875 74.464844 157.074219 73.953125 158.9375 73.484375 C 160.804688 73.019531 162.679688 72.597656 164.566406 72.222656 C 166.453125 71.847656 168.347656 71.519531 170.25 71.234375 C 172.152344 70.953125 174.0625 70.71875 175.976562 70.53125 C 177.890625 70.339844 179.808594 70.199219 181.730469 70.105469 C 183.652344 70.011719 185.574219 69.964844 187.496094 69.964844 C 189.421875 69.964844 191.34375 70.011719 193.265625 70.105469 C 195.183594 70.199219 197.101562 70.339844 199.015625 70.53125 C 200.929688 70.71875 202.839844 70.953125 204.742188 71.234375 C 206.644531 71.519531 208.539062 71.847656 210.425781 72.222656 C 212.3125 72.597656 214.1875 73.019531 216.054688 73.484375 C 217.921875 73.953125 219.773438 74.464844 221.613281 75.023438 C 223.457031 75.582031 225.28125 76.1875 227.09375 76.832031 C 228.902344 77.480469 230.699219 78.175781 232.476562 78.910156 C 234.253906 79.644531 236.011719 80.425781 237.75 81.246094 C 239.488281 82.070312 241.207031 82.933594 242.902344 83.839844 C 244.597656 84.75 246.269531 85.695312 247.921875 86.683594 C 249.570312 87.675781 251.195312 88.703125 252.796875 89.769531 C 254.394531 90.839844 255.964844 91.949219 257.511719 93.09375 C 259.054688 94.238281 260.574219 95.421875 262.058594 96.640625 C 263.546875 97.863281 265.003906 99.117188 266.425781 100.410156 C 267.851562 101.703125 269.246094 103.027344 270.605469 104.386719 C 271.964844 105.75 273.292969 107.140625 274.582031 108.566406 C 275.875 109.992188 277.132812 111.449219 278.351562 112.933594 C 279.570312 114.421875 280.753906 115.9375 281.902344 117.480469 C 283.046875 119.027344 284.152344 120.597656 285.222656 122.199219 C 286.292969 123.796875 287.320312 125.421875 288.308594 127.074219 C 289.296875 128.722656 290.246094 130.394531 291.152344 132.09375 C 292.058594 133.789062 292.921875 135.507812 293.746094 137.246094 C 294.570312 138.984375 295.347656 140.742188 296.082031 142.519531 C 296.820312 144.296875 297.511719 146.089844 298.160156 147.902344 C 298.808594 149.710938 299.410156 151.539062 299.96875 153.378906 C 300.527344 155.21875 301.039062 157.074219 301.507812 158.9375 C 301.976562 160.804688 302.398438 162.679688 302.773438 164.566406 C 303.148438 166.453125 303.476562 168.347656 303.757812 170.25 C 304.039062 172.152344 304.277344 174.0625 304.464844 175.976562 C 304.652344 177.890625 304.792969 179.808594 304.890625 181.730469 C 304.984375 183.652344 305.03125 185.574219 305.03125 187.496094 Z M 305.03125 187.496094 " fill-opacity="1" fill-rule="nonzero"/></g><g clip-path="url(#08c4e4b63e)"><path fill="#e2eaff" d="M 305.03125 187.496094 C 305.03125 189.421875 304.984375 191.34375 304.890625 193.265625 C 304.792969 195.183594 304.652344 197.101562 304.464844 199.015625 C 304.277344 200.929688 304.039062 202.839844 303.757812 204.742188 C 303.476562 206.644531 303.148438 208.539062 302.773438 210.425781 C 302.398438 212.3125 301.976562 214.1875 301.507812 216.054688 C 301.039062 217.921875 300.527344 219.773438 299.96875 221.613281 C 299.410156 223.457031 298.808594 225.28125 298.160156 227.09375 C 297.511719 228.902344 296.820312 230.699219 296.082031 232.476562 C 295.347656 234.253906 294.570312 236.011719 293.746094 237.75 C 292.921875 239.488281 292.058594 241.207031 291.152344 242.902344 C 290.246094 244.597656 289.296875 246.269531 288.308594 247.921875 C 287.320312 249.570312 286.292969 251.195312 285.222656 252.796875 C 284.152344 254.394531 283.046875 255.964844 281.902344 257.511719 C 280.753906 259.054688 279.570312 260.574219 278.351562 262.058594 C 277.132812 263.546875 275.875 265.003906 274.582031 266.425781 C 273.292969 267.851562 271.964844 269.246094 270.605469 270.605469 C 269.246094 271.964844 267.851562 273.292969 266.425781 274.582031 C 265.003906 275.875 263.546875 277.132812 262.058594 278.351562 C 260.574219 279.570312 259.054688 280.753906 257.511719 281.902344 C 255.964844 283.046875 254.394531 284.152344 252.796875 285.222656 C 251.195312 286.292969 249.570312 287.320312 247.921875 288.308594 C 246.269531 289.296875 244.597656 290.246094 242.902344 291.152344 C 241.207031 292.058594 239.488281 292.921875 237.75 293.746094 C 236.011719 294.570312 234.253906 295.347656 232.476562 296.082031 C 230.699219 296.820312 228.902344 297.511719 227.09375 298.160156 C 225.28125 298.808594 223.457031 299.410156 221.613281 299.96875 C 219.773438 300.527344 217.921875 301.039062 216.054688 301.507812 C 214.1875 301.976562 212.3125 302.398438 210.425781 302.773438 C 208.539062 303.148438 206.644531 303.476562 204.742188 303.757812 C 202.839844 304.039062 200.929688 304.277344 199.015625 304.464844 C 197.101562 304.652344 195.183594 304.792969 193.265625 304.890625 C 191.34375 304.984375 189.421875 305.03125 187.496094 305.03125 C 185.574219 305.03125 183.652344 304.984375 181.730469 304.890625 C 179.808594 304.792969 177.890625 304.652344 175.976562 304.464844 C 174.0625 304.277344 172.152344 304.039062 170.25 303.757812 C 168.347656 303.476562 166.453125 303.148438 164.566406 302.773438 C 162.679688 302.398438 160.804688 301.976562 158.9375 301.507812 C 157.074219 301.039062 155.21875 300.527344 153.378906 299.96875 C 151.539062 299.410156 149.710938 298.808594 147.902344 298.160156 C 146.089844 297.511719 144.296875 296.820312 142.519531 296.082031 C 140.742188 295.347656 138.984375 294.570312 137.246094 293.746094 C 135.507812 292.921875 133.789062 292.058594 132.09375 291.152344 C 130.394531 290.246094 128.722656 289.296875 127.074219 288.308594 C 125.421875 287.320312 123.796875 286.292969 122.199219 285.222656 C 120.597656 284.152344 119.027344 283.046875 117.480469 281.902344 C 115.9375 280.753906 114.421875 279.570312 112.933594 278.351562 C 111.449219 277.132812 109.992188 275.875 108.566406 274.582031 C 107.140625 273.292969 105.75 271.964844 104.386719 270.605469 C 103.027344 269.246094 101.703125 267.851562 100.410156 266.425781 C 99.117188 265.003906 97.863281 263.546875 96.640625 262.058594 C 95.421875 260.574219 94.238281 259.054688 93.09375 257.511719 C 91.949219 255.964844 90.839844 254.394531 89.769531 252.796875 C 88.703125 251.195312 87.675781 249.570312 86.683594 247.921875 C 85.695312 246.269531 84.75 244.597656 83.839844 242.902344 C 82.933594 241.207031 82.070312 239.488281 81.246094 237.75 C 80.425781 236.011719 79.644531 234.253906 78.910156 232.476562 C 78.175781 230.699219 77.480469 228.902344 76.832031 227.09375 C 76.1875 225.28125 75.582031 223.457031 75.023438 221.613281 C 74.464844 219.773438 73.953125 217.921875 73.484375 216.054688 C 73.019531 214.1875 72.597656 212.3125 72.222656 210.425781 C 71.847656 208.539062 71.519531 206.644531 71.234375 204.742188 C 70.953125 202.839844 70.71875 200.929688 70.53125 199.015625 C 70.339844 197.101562 70.199219 195.183594 70.105469 193.265625 C 70.011719 191.34375 69.964844 189.421875 69.964844 187.496094 C 69.964844 185.574219 70.011719 183.652344 70.105469 181.730469 C 70.199219 179.808594 70.339844 177.890625 70.53125 175.976562 C 70.71875 174.0625 70.953125 172.152344 71.234375 170.25 C 71.519531 168.347656 71.847656 166.453125 72.222656 164.566406 C 72.597656 162.679688 73.019531 160.804688 73.484375 158.9375 C 73.953125 157.074219 74.464844 155.21875 75.023438 153.378906 C 75.582031 151.539062 76.1875 149.710938 76.832031 147.902344 C 77.480469 146.089844 78.175781 144.296875 78.910156 142.519531 C 79.644531 140.742188 80.425781 138.984375 81.246094 137.246094 C 82.070312 135.507812 82.933594 133.789062 83.839844 132.09375 C 84.75 130.394531 85.695312 128.722656 86.683594 127.074219 C 87.675781 125.421875 88.703125 123.796875 89.769531 122.199219 C 90.839844 120.597656 91.949219 119.027344 93.09375 117.480469 C 94.238281 115.9375 95.421875 114.421875 96.640625 112.933594 C 97.863281 111.449219 99.117188 109.992188 100.410156 108.566406 C 101.703125 107.140625 103.027344 105.75 104.386719 104.386719 C 105.75 103.027344 107.140625 101.703125 108.566406 100.410156 C 109.992188 99.117188 111.449219 97.863281 112.933594 96.640625 C 114.421875 95.421875 115.9375 94.238281 117.480469 93.09375 C 119.027344 91.949219 120.597656 90.839844 122.199219 89.769531 C 123.796875 88.703125 125.421875 87.675781 127.074219 86.683594 C 128.722656 85.695312 130.394531 84.75 132.09375 83.839844 C 133.789062 82.933594 135.507812 82.070312 137.246094 81.246094 C 138.984375 80.425781 140.742188 79.644531 142.519531 78.910156 C 144.296875 78.175781 146.089844 77.480469 147.902344 76.832031 C 149.710938 76.1875 151.539062 75.582031 153.378906 75.023438 C 155.21875 74.464844 157.074219 73.953125 158.9375 73.484375 C 160.804688 73.019531 162.679688 72.597656 164.566406 72.222656 C 166.453125 71.847656 168.347656 71.519531 170.25 71.234375 C 172.152344 70.953125 174.0625 70.71875 175.976562 70.53125 C 177.890625 70.339844 179.808594 70.199219 181.730469 70.105469 C 183.652344 70.011719 185.574219 69.964844 187.496094 69.964844 C 189.421875 69.964844 191.34375 70.011719 193.265625 70.105469 C 195.183594 70.199219 197.101562 70.339844 199.015625 70.53125 C 200.929688 70.71875 202.839844 70.953125 204.742188 71.234375 C 206.644531 71.519531 208.539062 71.847656 210.425781 72.222656 C 212.3125 72.597656 214.1875 73.019531 216.054688 73.484375 C 217.921875 73.953125 219.773438 74.464844 221.613281 75.023438 C 223.457031 75.582031 225.28125 76.1875 227.09375 76.832031 C 228.902344 77.480469 230.699219 78.175781 232.476562 78.910156 C 234.253906 79.644531 236.011719 80.425781 237.75 81.246094 C 239.488281 82.070312 241.207031 82.933594 242.902344 83.839844 C 244.597656 84.75 246.269531 85.695312 247.921875 86.683594 C 249.570312 87.675781 251.195312 88.703125 252.796875 89.769531 C 254.394531 90.839844 255.964844 91.949219 257.511719 93.09375 C 259.054688 94.238281 260.574219 95.421875 262.058594 96.640625 C 263.546875 97.863281 265.003906 99.117188 266.425781 100.410156 C 267.851562 101.703125 269.246094 103.027344 270.605469 104.386719 C 271.964844 105.75 273.292969 107.140625 274.582031 108.566406 C 275.875 109.992188 277.132812 111.449219 278.351562 112.933594 C 279.570312 114.421875 280.753906 115.9375 281.902344 117.480469 C 283.046875 119.027344 284.152344 120.597656 285.222656 122.199219 C 286.292969 123.796875 287.320312 125.421875 288.308594 127.074219 C 289.296875 128.722656 290.246094 130.394531 291.152344 132.09375 C 292.058594 133.789062 292.921875 135.507812 293.746094 137.246094 C 294.570312 138.984375 295.347656 140.742188 296.082031 142.519531 C 296.820312 144.296875 297.511719 146.089844 298.160156 147.902344 C 298.808594 149.710938 299.410156 151.539062 299.96875 153.378906 C 300.527344 155.21875 301.039062 157.074219 301.507812 158.9375 C 301.976562 160.804688 302.398438 162.679688 302.773438 164.566406 C 303.148438 166.453125 303.476562 168.347656 303.757812 170.25 C 304.039062 172.152344 304.277344 174.0625 304.464844 175.976562 C 304.652344 177.890625 304.792969 179.808594 304.890625 181.730469 C 304.984375 183.652344 305.03125 185.574219 305.03125 187.496094 Z M 305.03125 187.496094 " fill-opacity="1" fill-rule="nonzero"/></g><g clip-path="url(#b7f49e18eb)"><path fill="#e2eaff" d="M 187.496094 45.902344 C 109.292969 45.902344 45.902344 109.292969 45.902344 187.496094 C 45.902344 265.695312 109.292969 329.085938 187.496094 329.085938 C 265.695312 329.085938 329.085938 265.695312 329.085938 187.496094 C 329.085938 109.292969 265.695312 45.902344 187.496094 45.902344 Z M 224.109375 244.132812 L 177.484375 197.503906 C 174.820312 194.84375 173.335938 191.246094 173.335938 187.496094 L 173.335938 116.699219 C 173.335938 108.882812 179.679688 102.539062 187.496094 102.539062 C 195.308594 102.539062 201.652344 108.882812 201.652344 116.699219 L 201.652344 181.632812 L 244.132812 224.109375 C 249.652344 229.632812 249.652344 238.609375 244.132812 244.132812 C 238.609375 249.652344 229.632812 249.652344 224.109375 244.132812 Z M 224.109375 244.132812 " fill-opacity="1" fill-rule="nonzero"/></g><g clip-path="url(#2a90095422)"><path fill="#e2eaff" d="M 69.964844 187.503906 C 69.964844 185.578125 70.011719 183.65625 70.105469 181.734375 C 70.199219 179.8125 70.339844 177.894531 70.53125 175.980469 C 70.71875 174.066406 70.953125 172.160156 71.234375 170.257812 C 71.519531 168.355469 71.847656 166.460938 72.222656 164.574219 C 72.597656 162.6875 73.019531 160.808594 73.484375 158.945312 C 73.953125 157.078125 74.464844 155.226562 75.023438 153.382812 C 75.582031 151.542969 76.1875 149.71875 76.835938 147.90625 C 77.480469 146.09375 78.175781 144.300781 78.910156 142.523438 C 79.644531 140.746094 80.425781 138.988281 81.246094 137.25 C 82.070312 135.511719 82.933594 133.792969 83.839844 132.097656 C 84.75 130.402344 85.695312 128.726562 86.683594 127.078125 C 87.675781 125.429688 88.703125 123.804688 89.769531 122.203125 C 90.839844 120.605469 91.949219 119.03125 93.09375 117.488281 C 94.238281 115.941406 95.421875 114.425781 96.640625 112.941406 C 97.863281 111.453125 99.117188 109.996094 100.410156 108.570312 C 101.703125 107.144531 103.027344 105.753906 104.386719 104.394531 C 105.75 103.035156 107.140625 101.707031 108.566406 100.414062 C 109.992188 99.125 111.449219 97.867188 112.933594 96.648438 C 114.421875 95.425781 115.9375 94.246094 117.480469 93.097656 C 119.027344 91.953125 120.597656 90.84375 122.199219 89.777344 C 123.796875 88.707031 125.421875 87.679688 127.074219 86.691406 C 128.722656 85.703125 130.394531 84.753906 132.09375 83.847656 C 133.789062 82.941406 135.507812 82.074219 137.246094 81.253906 C 138.984375 80.429688 140.742188 79.652344 142.519531 78.914062 C 144.296875 78.179688 146.089844 77.488281 147.902344 76.839844 C 149.710938 76.191406 151.539062 75.589844 153.378906 75.03125 C 155.21875 74.472656 157.074219 73.957031 158.9375 73.492188 C 160.804688 73.023438 162.679688 72.601562 164.566406 72.226562 C 166.453125 71.851562 168.347656 71.523438 170.25 71.242188 C 172.152344 70.957031 174.0625 70.722656 175.976562 70.535156 C 177.890625 70.347656 179.808594 70.203125 181.730469 70.109375 C 183.652344 70.015625 185.574219 69.96875 187.496094 69.96875 C 189.421875 69.96875 191.34375 70.015625 193.265625 70.109375 C 195.183594 70.203125 197.101562 70.347656 199.015625 70.535156 C 200.929688 70.722656 202.839844 70.957031 204.742188 71.242188 C 206.644531 71.523438 208.539062 71.851562 210.425781 72.226562 C 212.3125 72.601562 214.1875 73.023438 216.054688 73.492188 C 217.921875 73.957031 219.773438 74.472656 221.613281 75.03125 C 223.457031 75.589844 225.28125 76.191406 227.09375 76.839844 C 228.902344 77.488281 230.699219 78.179688 232.476562 78.914062 C 234.253906 79.652344 236.011719 80.429688 237.75 81.253906 C 239.488281 82.074219 241.207031 82.941406 242.902344 83.847656 C 244.597656 84.753906 246.269531 85.703125 247.921875 86.691406 C 249.570312 87.679688 251.195312 88.707031 252.796875 89.777344 C 254.394531 90.84375 255.964844 91.953125 257.511719 93.097656 C 259.054688 94.246094 260.574219 95.425781 262.058594 96.648438 C 263.546875 97.867188 265.003906 99.125 266.425781 100.414062 C 267.851562 101.707031 269.246094 103.035156 270.605469 104.394531 C 271.964844 105.753906 273.292969 107.144531 274.582031 108.570312 C 275.875 109.996094 277.132812 111.453125 278.351562 112.941406 C 279.570312 114.425781 280.753906 115.941406 281.902344 117.488281 C 283.046875 119.03125 284.152344 120.605469 285.222656 122.203125 C 286.292969 123.804688 287.320312 125.429688 288.308594 127.078125 C 289.296875 128.726562 290.246094 130.402344 291.152344 132.097656 C 292.058594 133.792969 292.921875 135.511719 293.746094 137.25 C 294.570312 138.988281 295.347656 140.746094 296.082031 142.523438 C 296.820312 144.300781 297.511719 146.09375 298.160156 147.90625 C 298.808594 149.71875 299.410156 151.542969 299.96875 153.382812 C 300.527344 155.226562 301.039062 157.078125 301.507812 158.945312 C 301.976562 160.808594 302.398438 162.6875 302.773438 164.574219 C 303.148438 166.460938 303.476562 168.355469 303.757812 170.257812 C 304.039062 172.160156 304.277344 174.066406 304.464844 175.980469 C 304.652344 177.894531 304.792969 179.8125 304.890625 181.734375 C 304.984375 183.65625 305.03125 185.578125 305.03125 187.503906 C 305.03125 189.425781 304.984375 191.347656 304.890625 193.269531 C 304.792969 195.191406 304.652344 197.109375 304.464844 199.023438 C 304.277344 200.9375 304.039062 202.84375 303.757812 204.746094 C 303.476562 206.652344 303.148438 208.546875 302.773438 210.433594 C 302.398438 212.320312 301.976562 214.195312 301.507812 216.058594 C 301.039062 217.925781 300.527344 219.78125 299.96875 221.621094 C 299.410156 223.460938 298.808594 225.285156 298.160156 227.097656 C 297.511719 228.910156 296.820312 230.703125 296.082031 232.480469 C 295.347656 234.257812 294.570312 236.015625 293.746094 237.753906 C 292.921875 239.492188 292.058594 241.210938 291.152344 242.90625 C 290.246094 244.601562 289.296875 246.277344 288.308594 247.925781 C 287.320312 249.578125 286.292969 251.199219 285.222656 252.800781 C 284.152344 254.398438 283.046875 255.972656 281.902344 257.515625 C 280.753906 259.0625 279.570312 260.578125 278.351562 262.066406 C 277.132812 263.550781 275.875 265.007812 274.582031 266.433594 C 273.292969 267.859375 271.964844 269.25 270.605469 270.609375 C 269.246094 271.972656 267.851562 273.296875 266.425781 274.589844 C 265.003906 275.878906 263.546875 277.136719 262.058594 278.355469 C 260.574219 279.578125 259.054688 280.761719 257.511719 281.90625 C 255.964844 283.050781 254.394531 284.160156 252.796875 285.226562 C 251.195312 286.296875 249.570312 287.324219 247.921875 288.3125 C 246.269531 289.304688 244.597656 290.25 242.902344 291.15625 C 241.207031 292.0625 239.488281 292.929688 237.75 293.75 C 236.011719 294.574219 234.253906 295.351562 232.476562 296.089844 C 230.699219 296.824219 228.902344 297.515625 227.09375 298.164062 C 225.28125 298.8125 223.457031 299.417969 221.613281 299.976562 C 219.773438 300.53125 217.921875 301.046875 216.054688 301.511719 C 214.1875 301.980469 212.3125 302.402344 210.425781 302.777344 C 208.539062 303.152344 206.644531 303.480469 204.742188 303.761719 C 202.839844 304.046875 200.929688 304.28125 199.015625 304.46875 C 197.101562 304.660156 195.183594 304.800781 193.265625 304.894531 C 191.34375 304.988281 189.421875 305.035156 187.496094 305.035156 C 185.574219 305.035156 183.652344 304.988281 181.730469 304.894531 C 179.808594 304.800781 177.890625 304.660156 175.976562 304.46875 C 174.0625 304.28125 172.152344 304.046875 170.25 303.761719 C 168.347656 303.480469 166.453125 303.152344 164.566406 302.777344 C 162.679688 302.402344 160.804688 301.980469 158.9375 301.511719 C 157.074219 301.046875 155.21875 300.53125 153.378906 299.976562 C 151.539062 299.417969 149.710938 298.8125 147.902344 298.164062 C 146.089844 297.515625 144.296875 296.824219 142.519531 296.089844 C 140.742188 295.351562 138.984375 294.574219 137.246094 293.75 C 135.507812 292.929688 133.789062 292.0625 132.09375 291.15625 C 130.394531 290.25 128.722656 289.304688 127.074219 288.3125 C 125.421875 287.324219 123.796875 286.296875 122.199219 285.226562 C 120.597656 284.160156 119.027344 283.050781 117.480469 281.90625 C 115.9375 280.761719 114.421875 279.578125 112.933594 278.355469 C 111.449219 277.136719 109.992188 275.878906 108.566406 274.589844 C 107.140625 273.296875 105.75 271.972656 104.386719 270.609375 C 103.027344 269.25 101.703125 267.859375 100.410156 266.433594 C 99.117188 265.007812 97.863281 263.550781 96.640625 262.066406 C 95.421875 260.578125 94.238281 259.0625 93.09375 257.515625 C 91.949219 255.972656 90.839844 254.398438 89.769531 252.800781 C 88.703125 251.199219 87.675781 249.578125 86.683594 247.925781 C 85.695312 246.277344 84.75 244.601562 83.839844 242.90625 C 82.933594 241.210938 82.070312 239.492188 81.246094 237.753906 C 80.425781 236.015625 79.644531 234.257812 78.910156 232.480469 C 78.175781 230.703125 77.480469 228.910156 76.835938 227.097656 C 76.1875 225.285156 75.582031 223.460938 75.023438 221.621094 C 74.464844 219.78125 73.953125 217.925781 73.484375 216.058594 C 73.019531 214.195312 72.597656 212.320312 72.222656 210.433594 C 71.847656 208.546875 71.519531 206.652344 71.234375 204.746094 C 70.953125 202.84375 70.71875 200.9375 70.53125 199.023438 C 70.339844 197.109375 70.199219 195.191406 70.105469 193.269531 C 70.011719 191.347656 69.964844 189.425781 69.964844 187.503906 Z M 69.964844 187.503906 " fill-opacity="1" fill-rule="nonzero"/></g><g clip-path="url(#b6003164e3)"><path fill="#e2eaff" d="M 69.964844 187.496094 C 69.964844 185.574219 70.011719 183.648438 70.105469 181.730469 C 70.199219 179.808594 70.339844 177.890625 70.53125 175.976562 C 70.71875 174.0625 70.953125 172.152344 71.234375 170.25 C 71.519531 168.347656 71.847656 166.453125 72.222656 164.566406 C 72.597656 162.679688 73.019531 160.804688 73.484375 158.9375 C 73.953125 157.070312 74.464844 155.21875 75.023438 153.378906 C 75.582031 151.535156 76.1875 149.710938 76.835938 147.898438 C 77.480469 146.089844 78.175781 144.292969 78.910156 142.519531 C 79.644531 140.742188 80.425781 138.984375 81.246094 137.242188 C 82.070312 135.503906 82.933594 133.789062 83.839844 132.089844 C 84.75 130.394531 85.695312 128.722656 86.683594 127.070312 C 87.675781 125.421875 88.703125 123.796875 89.769531 122.199219 C 90.839844 120.597656 91.949219 119.027344 93.09375 117.480469 C 94.238281 115.9375 95.421875 114.421875 96.640625 112.933594 C 97.863281 111.445312 99.117188 109.992188 100.410156 108.566406 C 101.703125 107.140625 103.027344 105.746094 104.386719 104.386719 C 105.75 103.027344 107.140625 101.699219 108.566406 100.410156 C 109.992188 99.117188 111.449219 97.863281 112.933594 96.640625 C 114.421875 95.421875 115.9375 94.238281 117.480469 93.09375 C 119.027344 91.945312 120.597656 90.839844 122.199219 89.769531 C 123.796875 88.703125 125.421875 87.671875 127.074219 86.683594 C 128.722656 85.695312 130.394531 84.746094 132.09375 83.839844 C 133.789062 82.933594 135.507812 82.070312 137.246094 81.246094 C 138.984375 80.425781 140.742188 79.644531 142.519531 78.910156 C 144.296875 78.171875 146.089844 77.480469 147.902344 76.832031 C 149.710938 76.183594 151.539062 75.582031 153.378906 75.023438 C 155.21875 74.464844 157.074219 73.953125 158.9375 73.484375 C 160.804688 73.015625 162.679688 72.597656 164.566406 72.222656 C 166.453125 71.84375 168.347656 71.515625 170.25 71.234375 C 172.152344 70.953125 174.0625 70.71875 175.976562 70.527344 C 177.890625 70.339844 179.808594 70.199219 181.730469 70.105469 C 183.652344 70.007812 185.574219 69.960938 187.496094 69.960938 C 189.421875 69.960938 191.34375 70.007812 193.265625 70.105469 C 195.183594 70.199219 197.101562 70.339844 199.015625 70.527344 C 200.929688 70.71875 202.839844 70.953125 204.742188 71.234375 C 206.644531 71.515625 208.539062 71.84375 210.425781 72.222656 C 212.3125 72.597656 214.1875 73.015625 216.054688 73.484375 C 217.921875 73.953125 219.773438 74.464844 221.613281 75.023438 C 223.457031 75.582031 225.28125 76.183594 227.09375 76.832031 C 228.902344 77.480469 230.699219 78.171875 232.476562 78.910156 C 234.253906 79.644531 236.011719 80.425781 237.75 81.246094 C 239.488281 82.070312 241.207031 82.933594 242.902344 83.839844 C 244.597656 84.746094 246.269531 85.695312 247.921875 86.683594 C 249.570312 87.671875 251.195312 88.703125 252.796875 89.769531 C 254.394531 90.839844 255.964844 91.945312 257.511719 93.09375 C 259.054688 94.238281 260.574219 95.421875 262.058594 96.640625 C 263.546875 97.863281 265.003906 99.117188 266.425781 100.410156 C 267.851562 101.699219 269.246094 103.027344 270.605469 104.386719 C 271.964844 105.746094 273.292969 107.140625 274.582031 108.566406 C 275.875 109.992188 277.132812 111.445312 278.351562 112.933594 C 279.570312 114.421875 280.753906 115.9375 281.902344 117.480469 C 283.046875 119.027344 284.152344 120.597656 285.222656 122.199219 C 286.292969 123.796875 287.320312 125.421875 288.308594 127.070312 C 289.296875 128.722656 290.246094 130.394531 291.152344 132.089844 C 292.058594 133.789062 292.921875 135.503906 293.746094 137.242188 C 294.570312 138.984375 295.347656 140.742188 296.082031 142.519531 C 296.820312 144.292969 297.511719 146.089844 298.160156 147.898438 C 298.808594 149.710938 299.410156 151.535156 299.96875 153.378906 C 300.527344 155.21875 301.039062 157.070312 301.507812 158.9375 C 301.976562 160.804688 302.398438 162.679688 302.773438 164.566406 C 303.148438 166.453125 303.476562 168.347656 303.757812 170.25 C 304.039062 172.152344 304.277344 174.0625 304.464844 175.976562 C 304.652344 177.890625 304.792969 179.808594 304.890625 181.730469 C 304.984375 183.648438 305.03125 185.574219 305.03125 187.496094 C 305.03125 189.417969 304.984375 191.339844 304.890625 193.261719 C 304.792969 195.183594 304.652344 197.101562 304.464844 199.015625 C 304.277344 200.929688 304.039062 202.839844 303.757812 204.742188 C 303.476562 206.644531 303.148438 208.539062 302.773438 210.425781 C 302.398438 212.3125 301.976562 214.1875 301.507812 216.054688 C 301.039062 217.921875 300.527344 219.773438 299.96875 221.613281 C 299.410156 223.453125 298.808594 225.28125 298.160156 227.089844 C 297.511719 228.902344 296.820312 230.695312 296.082031 232.472656 C 295.347656 234.25 294.570312 236.007812 293.746094 237.746094 C 292.921875 239.488281 292.058594 241.203125 291.152344 242.902344 C 290.246094 244.597656 289.296875 246.269531 288.308594 247.921875 C 287.320312 249.570312 286.292969 251.195312 285.222656 252.792969 C 284.152344 254.394531 283.046875 255.964844 281.902344 257.511719 C 280.753906 259.054688 279.570312 260.570312 278.351562 262.058594 C 277.132812 263.546875 275.875 265 274.582031 266.425781 C 273.292969 267.851562 271.964844 269.246094 270.605469 270.605469 C 269.246094 271.964844 267.851562 273.289062 266.425781 274.582031 C 265.003906 275.875 263.546875 277.128906 262.058594 278.351562 C 260.574219 279.570312 259.054688 280.753906 257.511719 281.898438 C 255.964844 283.046875 254.394531 284.152344 252.796875 285.222656 C 251.195312 286.289062 249.570312 287.320312 247.921875 288.308594 C 246.269531 289.296875 244.597656 290.246094 242.902344 291.152344 C 241.207031 292.058594 239.488281 292.921875 237.75 293.746094 C 236.011719 294.566406 234.253906 295.347656 232.476562 296.082031 C 230.699219 296.820312 228.902344 297.511719 227.09375 298.160156 C 225.28125 298.808594 223.457031 299.410156 221.613281 299.96875 C 219.773438 300.527344 217.921875 301.039062 216.054688 301.507812 C 214.1875 301.972656 212.3125 302.394531 210.425781 302.769531 C 208.539062 303.144531 206.644531 303.476562 204.742188 303.757812 C 202.839844 304.039062 200.929688 304.273438 199.015625 304.464844 C 197.101562 304.652344 195.183594 304.792969 193.265625 304.886719 C 191.34375 304.980469 189.421875 305.03125 187.496094 305.03125 C 185.574219 305.03125 183.652344 304.980469 181.730469 304.886719 C 179.808594 304.792969 177.890625 304.652344 175.976562 304.464844 C 174.0625 304.273438 172.152344 304.039062 170.25 303.757812 C 168.347656 303.476562 166.453125 303.144531 164.566406 302.769531 C 162.679688 302.394531 160.804688 301.972656 158.9375 301.507812 C 157.074219 301.039062 155.21875 300.527344 153.378906 299.96875 C 151.539062 299.410156 149.710938 298.808594 147.902344 298.160156 C 146.089844 297.511719 144.296875 296.820312 142.519531 296.082031 C 140.742188 295.347656 138.984375 294.566406 137.246094 293.746094 C 135.507812 292.921875 133.789062 292.058594 132.09375 291.152344 C 130.394531 290.246094 128.722656 289.296875 127.074219 288.308594 C 125.421875 287.320312 123.796875 286.289062 122.199219 285.222656 C 120.597656 284.152344 119.027344 283.046875 117.480469 281.898438 C 115.9375 280.753906 114.421875 279.570312 112.933594 278.351562 C 111.449219 277.128906 109.992188 275.875 108.566406 274.582031 C 107.140625 273.289062 105.75 271.964844 104.386719 270.605469 C 103.027344 269.246094 101.703125 267.851562 100.410156 266.425781 C 99.117188 265 97.863281 263.546875 96.640625 262.058594 C 95.421875 260.570312 94.238281 259.054688 93.09375 257.511719 C 91.949219 255.964844 90.839844 254.394531 89.769531 252.792969 C 88.703125 251.195312 87.675781 249.570312 86.683594 247.921875 C 85.695312 246.269531 84.75 244.597656 83.839844 242.902344 C 82.933594 241.203125 82.070312 239.488281 81.246094 237.746094 C 80.425781 236.007812 79.644531 234.25 78.910156 232.472656 C 78.175781 230.695312 77.480469 228.902344 76.835938 227.089844 C 76.1875 225.28125 75.582031 223.453125 75.023438 221.613281 C 74.464844 219.773438 73.953125 217.921875 73.484375 216.054688 C 73.019531 214.1875 72.597656 212.3125 72.222656 210.425781 C 71.847656 208.539062 71.519531 206.644531 71.234375 204.742188 C 70.953125 202.839844 70.71875 200.929688 70.53125 199.015625 C 70.339844 197.101562 70.199219 195.183594 70.105469 193.261719 C 70.011719 191.339844 69.964844 189.417969 69.964844 187.496094 Z M 69.964844 187.496094 " fill-opacity="1" fill-rule="nonzero"/></g><g clip-path="url(#b3be711a94)"><path fill="#050a30" d="M 187.5 59.660156 C 116.867188 59.660156 59.660156 116.867188 59.660156 187.5 C 59.660156 258.128906 116.867188 315.339844 187.5 315.339844 C 258.128906 315.339844 315.339844 258.128906 315.339844 187.5 C 315.339844 116.867188 258.128906 59.660156 187.5 59.660156 Z M 187.5 289.769531 C 130.992188 289.769531 85.226562 244.003906 85.226562 187.5 C 85.226562 130.992188 130.992188 85.226562 187.5 85.226562 C 244.003906 85.226562 289.769531 130.992188 289.769531 187.5 C 289.769531 244.003906 244.003906 289.769531 187.5 289.769531 Z M 187.5 289.769531 " fill-opacity="1" fill-rule="nonzero"/></g></svg>