<svg xmlns="http://www.w3.org/2000/svg" xmlns:xlink="http://www.w3.org/1999/xlink" width="500" zoomAndPan="magnify" viewBox="0 0 375 374.999991" height="500" preserveAspectRatio="xMidYMid meet" version="1.0"><defs><g/><clipPath id="d4df925f3b"><path d="M 75 0 L 300 0 C 341.421875 0 375 33.578125 375 75 L 375 300 C 375 341.421875 341.421875 375 300 375 L 75 375 C 33.578125 375 0 341.421875 0 300 L 0 75 C 0 33.578125 33.578125 0 75 0 Z M 75 0 " clip-rule="nonzero"/></clipPath><clipPath id="8c13798c84"><path d="M 182.480469 194.382812 L 349.753906 194.382812 L 349.753906 258.289062 L 182.480469 258.289062 Z M 182.480469 194.382812 " clip-rule="nonzero"/></clipPath></defs><g clip-path="url(#d4df925f3b)"><rect x="-37.5" width="450" fill="#ffffff" y="-37.499999" height="449.999989" fill-opacity="1"/></g><g fill="#000000" fill-opacity="1"><g transform="translate(23.734346, 191.97487)"><g><path d="M 70.359375 2 C 58.929688 2 48.578125 -0.59375 39.296875 -5.78125 C 30.015625 -10.976562 22.738281 -18.363281 17.46875 -27.9375 C 12.207031 -37.507812 9.578125 -48.601562 9.578125 -61.21875 C 9.578125 -73.6875 12.285156 -84.707031 17.703125 -94.28125 C 23.117188 -103.863281 30.5 -111.210938 39.84375 -116.328125 C 49.195312 -121.453125 59.664062 -124.015625 71.25 -124.015625 C 82.820312 -124.015625 93.28125 -121.453125 102.625 -116.328125 C 111.976562 -111.210938 119.363281 -103.90625 124.78125 -94.40625 C 130.207031 -84.90625 132.921875 -73.84375 132.921875 -61.21875 C 132.921875 -48.601562 130.132812 -37.507812 124.5625 -27.9375 C 119 -18.363281 111.46875 -10.976562 101.96875 -5.78125 C 92.46875 -0.59375 81.929688 2 70.359375 2 Z M 70.359375 -15.8125 C 77.628906 -15.8125 84.453125 -17.515625 90.828125 -20.921875 C 97.210938 -24.335938 102.367188 -29.457031 106.296875 -36.28125 C 110.234375 -43.113281 112.203125 -51.425781 112.203125 -61.21875 C 112.203125 -71.019531 110.273438 -79.332031 106.421875 -86.15625 C 102.566406 -92.988281 97.519531 -98.070312 91.28125 -101.40625 C 85.050781 -104.75 78.296875 -106.421875 71.015625 -106.421875 C 63.597656 -106.421875 56.804688 -104.75 50.640625 -101.40625 C 44.484375 -98.070312 39.550781 -92.988281 35.84375 -86.15625 C 32.132812 -79.332031 30.28125 -71.019531 30.28125 -61.21875 C 30.28125 -51.28125 32.097656 -42.894531 35.734375 -36.0625 C 39.367188 -29.238281 44.226562 -24.15625 50.3125 -20.8125 C 56.394531 -17.476562 63.078125 -15.8125 70.359375 -15.8125 Z M 70.359375 -15.8125 "/></g></g></g><g fill="#000000" fill-opacity="1"><g transform="translate(200.73694, 191.97487)"><g><path d="M 67.453125 -124.015625 C 77.992188 -124.015625 87.234375 -121.710938 95.171875 -117.109375 C 103.117188 -112.503906 109.019531 -106.71875 112.875 -99.75 L 112.875 -122 L 133.359375 -122 L 133.359375 2.671875 C 133.359375 13.804688 130.984375 23.710938 126.234375 32.390625 C 121.484375 41.078125 114.691406 47.867188 105.859375 52.765625 C 97.035156 57.660156 86.757812 60.109375 75.03125 60.109375 C 59 60.109375 45.640625 56.320312 34.953125 48.75 C 24.265625 41.1875 17.957031 30.875 16.03125 17.8125 L 36.0625 17.8125 C 38.289062 25.226562 42.890625 31.203125 49.859375 35.734375 C 56.835938 40.265625 65.226562 42.53125 75.03125 42.53125 C 86.164062 42.53125 95.253906 39.039062 102.296875 32.0625 C 109.347656 25.082031 112.875 15.285156 112.875 2.671875 L 112.875 -22.9375 C 108.875 -15.8125 102.9375 -9.875 95.0625 -5.125 C 87.195312 -0.375 77.992188 2 67.453125 2 C 56.617188 2 46.785156 -0.671875 37.953125 -6.015625 C 29.128906 -11.359375 22.191406 -18.851562 17.140625 -28.5 C 12.097656 -38.144531 9.578125 -49.128906 9.578125 -61.453125 C 9.578125 -73.921875 12.097656 -84.863281 17.140625 -94.28125 C 22.191406 -103.707031 29.128906 -111.019531 37.953125 -116.21875 C 46.785156 -121.414062 56.617188 -124.015625 67.453125 -124.015625 Z M 112.875 -61.21875 C 112.875 -70.425781 111.019531 -78.441406 107.3125 -85.265625 C 103.601562 -92.097656 98.59375 -97.332031 92.28125 -100.96875 C 85.976562 -104.601562 79.039062 -106.421875 71.46875 -106.421875 C 63.894531 -106.421875 56.988281 -104.640625 50.75 -101.078125 C 44.519531 -97.515625 39.550781 -92.316406 35.84375 -85.484375 C 32.132812 -78.660156 30.28125 -70.648438 30.28125 -61.453125 C 30.28125 -52.097656 32.132812 -43.96875 35.84375 -37.0625 C 39.550781 -30.164062 44.519531 -24.898438 50.75 -21.265625 C 56.988281 -17.628906 63.894531 -15.8125 71.46875 -15.8125 C 79.039062 -15.8125 85.976562 -17.628906 92.28125 -21.265625 C 98.59375 -24.898438 103.601562 -30.164062 107.3125 -37.0625 C 111.019531 -43.96875 112.875 -52.019531 112.875 -61.21875 Z M 112.875 -61.21875 "/></g></g></g><g clip-path="url(#8c13798c84)"><path fill="#ffffff" d="M 182.480469 194.382812 L 349.730469 194.382812 L 349.730469 258.289062 L 182.480469 258.289062 Z M 182.480469 194.382812 " fill-opacity="1" fill-rule="nonzero"/></g><path stroke-linecap="butt" transform="matrix(0.620767, 0, 0, 0.620767, 48.521212, 181.466311)" fill="none" stroke-linejoin="miter" d="M 16.502826 59.255206 L 16.502826 123.905548 C 16.502826 141.046636 23.311437 157.495535 35.437309 169.615115 C 47.556889 181.740987 63.999496 188.549598 81.146876 188.549598 L 349.709458 188.549598 C 374.710023 188.549598 398.691185 178.619849 416.373437 160.937597 C 434.049397 143.255344 443.985439 119.280475 443.985439 94.273617 L 443.985439 -0.00236406 " stroke="#000000" stroke-width="33" stroke-opacity="1" stroke-miterlimit="4"/></svg>