<svg xmlns="http://www.w3.org/2000/svg" xmlns:xlink="http://www.w3.org/1999/xlink" width="500" zoomAndPan="magnify" viewBox="0 0 375 374.999991" height="500" preserveAspectRatio="xMidYMid meet" version="1.0"><defs><g/><clipPath id="2eaeb4071a"><path d="M 52.5 0 L 322.5 0 C 351.496094 0 375 23.503906 375 52.5 L 375 322.5 C 375 351.496094 351.496094 375 322.5 375 L 52.5 375 C 23.503906 375 0 351.496094 0 322.5 L 0 52.5 C 0 23.503906 23.503906 0 52.5 0 Z M 52.5 0 " clip-rule="nonzero"/></clipPath><clipPath id="d2394c22a7"><path d="M 188.210938 199.320312 L 375 199.320312 L 375 276.527344 L 188.210938 276.527344 Z M 188.210938 199.320312 " clip-rule="nonzero"/></clipPath></defs><g clip-path="url(#2eaeb4071a)"><rect x="-37.5" width="450" fill="#000000" y="-37.499999" height="449.999989" fill-opacity="1"/></g><g fill="#ffffff" fill-opacity="1"><g transform="translate(3.015762, 193.494125)"><g><path d="M 83.453125 2.375 C 69.890625 2.375 57.609375 -0.703125 46.609375 -6.859375 C 35.609375 -13.023438 26.984375 -21.785156 20.734375 -33.140625 C 14.484375 -44.492188 11.359375 -57.65625 11.359375 -72.625 C 11.359375 -87.40625 14.570312 -100.472656 21 -111.828125 C 27.425781 -123.191406 36.179688 -131.910156 47.265625 -137.984375 C 58.359375 -144.054688 70.769531 -147.09375 84.5 -147.09375 C 98.238281 -147.09375 110.648438 -144.054688 121.734375 -137.984375 C 132.828125 -131.910156 141.585938 -123.238281 148.015625 -111.96875 C 154.441406 -100.695312 157.65625 -87.582031 157.65625 -72.625 C 157.65625 -57.65625 154.351562 -44.492188 147.75 -33.140625 C 141.144531 -21.785156 132.207031 -13.023438 120.9375 -6.859375 C 109.675781 -0.703125 97.179688 2.375 83.453125 2.375 Z M 83.453125 -18.75 C 92.078125 -18.75 100.171875 -20.769531 107.734375 -24.8125 C 115.304688 -28.863281 121.425781 -34.9375 126.09375 -43.03125 C 130.757812 -51.132812 133.09375 -61 133.09375 -72.625 C 133.09375 -84.238281 130.800781 -94.09375 126.21875 -102.1875 C 121.644531 -110.289062 115.660156 -116.320312 108.265625 -120.28125 C 100.878906 -124.25 92.867188 -126.234375 84.234375 -126.234375 C 75.429688 -126.234375 67.378906 -124.25 60.078125 -120.28125 C 52.773438 -116.320312 46.921875 -110.289062 42.515625 -102.1875 C 38.117188 -94.09375 35.921875 -84.238281 35.921875 -72.625 C 35.921875 -60.820312 38.078125 -50.875 42.390625 -42.78125 C 46.703125 -34.6875 52.46875 -28.65625 59.6875 -24.6875 C 66.90625 -20.726562 74.828125 -18.75 83.453125 -18.75 Z M 83.453125 -18.75 "/></g></g></g><g fill="#ffffff" fill-opacity="1"><g transform="translate(212.942452, 193.494125)"><g><path d="M 80.015625 -147.09375 C 92.515625 -147.09375 103.472656 -144.363281 112.890625 -138.90625 C 122.304688 -133.445312 129.304688 -126.582031 133.890625 -118.3125 L 133.890625 -144.71875 L 158.1875 -144.71875 L 158.1875 3.171875 C 158.1875 16.367188 155.367188 28.117188 149.734375 38.421875 C 144.097656 48.722656 136.039062 56.773438 125.5625 62.578125 C 115.09375 68.390625 102.90625 71.296875 89 71.296875 C 69.976562 71.296875 54.128906 66.804688 41.453125 57.828125 C 28.785156 48.847656 21.304688 36.613281 19.015625 21.125 L 42.78125 21.125 C 45.414062 29.925781 50.867188 37.007812 59.140625 42.375 C 67.421875 47.75 77.375 50.4375 89 50.4375 C 102.195312 50.4375 112.976562 46.296875 121.34375 38.015625 C 129.707031 29.742188 133.890625 18.128906 133.890625 3.171875 L 133.890625 -27.203125 C 129.128906 -18.753906 122.082031 -11.710938 112.75 -6.078125 C 103.425781 -0.441406 92.515625 2.375 80.015625 2.375 C 67.160156 2.375 55.492188 -0.789062 45.015625 -7.125 C 34.546875 -13.46875 26.316406 -22.359375 20.328125 -33.796875 C 14.347656 -45.242188 11.359375 -58.273438 11.359375 -72.890625 C 11.359375 -87.671875 14.347656 -100.648438 20.328125 -111.828125 C 26.316406 -123.015625 34.546875 -131.6875 45.015625 -137.84375 C 55.492188 -144.007812 67.160156 -147.09375 80.015625 -147.09375 Z M 133.890625 -72.625 C 133.890625 -83.539062 131.6875 -93.046875 127.28125 -101.140625 C 122.882812 -109.242188 116.941406 -115.453125 109.453125 -119.765625 C 101.972656 -124.078125 93.742188 -126.234375 84.765625 -126.234375 C 75.785156 -126.234375 67.597656 -124.117188 60.203125 -119.890625 C 52.816406 -115.660156 46.921875 -109.5 42.515625 -101.40625 C 38.117188 -93.3125 35.921875 -83.804688 35.921875 -72.890625 C 35.921875 -61.796875 38.117188 -52.15625 42.515625 -43.96875 C 46.921875 -35.78125 52.816406 -29.53125 60.203125 -25.21875 C 67.597656 -20.90625 75.785156 -18.75 84.765625 -18.75 C 93.742188 -18.75 101.972656 -20.90625 109.453125 -25.21875 C 116.941406 -29.53125 122.882812 -35.78125 127.28125 -43.96875 C 131.6875 -52.15625 133.890625 -61.707031 133.890625 -72.625 Z M 133.890625 -72.625 "/></g></g></g><g clip-path="url(#d2394c22a7)"><path fill="#000000" d="M 188.210938 199.320312 L 390.277344 199.320312 L 390.277344 276.527344 L 188.210938 276.527344 Z M 188.210938 199.320312 " fill-opacity="1" fill-rule="nonzero"/></g><path stroke-linecap="butt" transform="matrix(3.084981, 0, 0, 3.084981, 3.98383, 183.746604)" fill="none" stroke-linejoin="miter" d="M 4.000151 14.405565 L 4.000151 30.123094 C 4.000151 34.291475 5.65636 38.288916 8.602843 41.236665 C 11.550592 44.183148 15.548033 45.839358 19.716414 45.839358 L 92.514925 45.839358 C 98.594024 45.839358 104.423679 43.424685 108.722479 39.125885 C 113.020014 34.82835 115.434686 28.998695 115.434686 22.919596 L 115.434686 -0.000165377 " stroke="#ffffff" stroke-width="8" stroke-opacity="1" stroke-miterlimit="4"/></svg>