<svg xmlns="http://www.w3.org/2000/svg" xmlns:xlink="http://www.w3.org/1999/xlink" width="500" zoomAndPan="magnify" viewBox="0 0 375 374.999991" height="500" preserveAspectRatio="xMidYMid meet" version="1.0"><defs><g/><clipPath id="a1c8bfc2e8"><path d="M 75 0 L 300 0 C 341.421875 0 375 33.578125 375 75 L 375 300 C 375 341.421875 341.421875 375 300 375 L 75 375 C 33.578125 375 0 341.421875 0 300 L 0 75 C 0 33.578125 33.578125 0 75 0 Z M 75 0 " clip-rule="nonzero"/></clipPath><clipPath id="091e064141"><path d="M 178.730469 193.671875 L 346 193.671875 L 346 257.574219 L 178.730469 257.574219 Z M 178.730469 193.671875 " clip-rule="nonzero"/></clipPath></defs><g clip-path="url(#a1c8bfc2e8)"><rect x="-37.5" width="450" fill="#ffffff" y="-37.499999" height="449.999989" fill-opacity="1"/></g><g fill="#000000" fill-opacity="1"><g transform="translate(23.739412, 189.452851)"><g><path d="M 70.359375 1.78125 C 58.179688 1.78125 47.234375 -0.8125 37.515625 -6 C 27.796875 -11.195312 20.148438 -18.617188 14.578125 -28.265625 C 9.015625 -37.921875 6.234375 -49.203125 6.234375 -62.109375 C 6.234375 -74.878906 9.050781 -86.125 14.6875 -95.84375 C 20.332031 -105.570312 28.050781 -113.03125 37.84375 -118.21875 C 47.644531 -123.414062 58.628906 -126.015625 70.796875 -126.015625 C 82.972656 -126.015625 93.957031 -123.414062 103.75 -118.21875 C 113.539062 -113.03125 121.253906 -105.570312 126.890625 -95.84375 C 132.535156 -86.125 135.359375 -74.878906 135.359375 -62.109375 C 135.359375 -49.347656 132.5 -38.101562 126.78125 -28.375 C 121.070312 -18.65625 113.28125 -11.195312 103.40625 -6 C 93.539062 -0.8125 82.523438 1.78125 70.359375 1.78125 Z M 70.359375 -31.171875 C 77.628906 -31.171875 83.820312 -33.84375 88.9375 -39.1875 C 94.0625 -44.53125 96.625 -52.171875 96.625 -62.109375 C 96.625 -72.054688 94.132812 -79.703125 89.15625 -85.046875 C 84.1875 -90.390625 78.066406 -93.0625 70.796875 -93.0625 C 63.378906 -93.0625 57.21875 -90.425781 52.3125 -85.15625 C 47.414062 -79.882812 44.96875 -72.203125 44.96875 -62.109375 C 44.96875 -52.171875 47.378906 -44.53125 52.203125 -39.1875 C 57.023438 -33.84375 63.078125 -31.171875 70.359375 -31.171875 Z M 70.359375 -31.171875 "/></g></g></g><g fill="#000000" fill-opacity="1"><g transform="translate(200.074451, 189.452851)"><g><path d="M 61 -126.015625 C 69.757812 -126.015625 77.441406 -124.234375 84.046875 -120.671875 C 90.648438 -117.109375 95.734375 -112.429688 99.296875 -106.640625 L 99.296875 -124.234375 L 137.375 -124.234375 L 137.375 -0.21875 C 137.375 11.207031 135.109375 21.554688 130.578125 30.828125 C 126.046875 40.109375 119.140625 47.492188 109.859375 52.984375 C 100.585938 58.472656 89.050781 61.21875 75.25 61.21875 C 56.84375 61.21875 41.925781 56.875 30.5 48.1875 C 19.070312 39.507812 12.539062 27.75 10.90625 12.90625 L 48.53125 12.90625 C 49.71875 17.65625 52.535156 21.40625 56.984375 24.15625 C 61.441406 26.90625 66.9375 28.28125 73.46875 28.28125 C 81.332031 28.28125 87.601562 26.015625 92.28125 21.484375 C 96.957031 16.953125 99.296875 9.71875 99.296875 -0.21875 L 99.296875 -17.8125 C 95.585938 -12.019531 90.46875 -7.304688 83.9375 -3.671875 C 77.40625 -0.0351562 69.757812 1.78125 61 1.78125 C 50.757812 1.78125 41.484375 -0.851562 33.171875 -6.125 C 24.859375 -11.394531 18.289062 -18.890625 13.46875 -28.609375 C 8.644531 -38.328125 6.234375 -49.570312 6.234375 -62.34375 C 6.234375 -75.101562 8.644531 -86.304688 13.46875 -95.953125 C 18.289062 -105.609375 24.859375 -113.03125 33.171875 -118.21875 C 41.484375 -123.414062 50.757812 -126.015625 61 -126.015625 Z M 99.296875 -62.109375 C 99.296875 -71.609375 96.660156 -79.101562 91.390625 -84.59375 C 86.117188 -90.09375 79.703125 -92.84375 72.140625 -92.84375 C 64.566406 -92.84375 58.144531 -90.132812 52.875 -84.71875 C 47.601562 -79.300781 44.96875 -71.84375 44.96875 -62.34375 C 44.96875 -52.84375 47.601562 -45.304688 52.875 -39.734375 C 58.144531 -34.171875 64.566406 -31.390625 72.140625 -31.390625 C 79.703125 -31.390625 86.117188 -34.132812 91.390625 -39.625 C 96.660156 -45.125 99.296875 -52.617188 99.296875 -62.109375 Z M 99.296875 -62.109375 "/></g></g></g><g clip-path="url(#091e064141)"><path fill="#ffffff" d="M 178.730469 193.671875 L 345.980469 193.671875 L 345.980469 257.574219 L 178.730469 257.574219 Z M 178.730469 193.671875 " fill-opacity="1" fill-rule="nonzero"/></g><path stroke-linecap="butt" transform="matrix(0.75, 0, 0, 0.75, 47.307306, 183.139822)" fill="none" stroke-linejoin="miter" d="M 25.501718 49.047949 L 25.501718 102.553161 C 25.501718 116.745871 31.137135 130.355246 41.173594 140.391705 C 51.204845 150.422956 64.814221 156.063581 79.00693 156.063581 L 283.215277 156.063581 C 326.314238 156.063581 361.246532 121.126079 361.246532 78.032326 L 361.246532 0.00107123 " stroke="#000000" stroke-width="51" stroke-opacity="1" stroke-miterlimit="4"/></svg>